{
.appVersion = "3208";
.formatVersion = 3;
DisplayStrings = (
"Tabular Numbers 


/Placeholder 
/Placeholder 
/Placeholder 
/Placeholder 
/Placeholder 
/Placeholder 
/Placeholder 
/Placeholder 
/Placeholder 
/Placeholder",
"

















",
"éáéĕěêëėèēeęẽ̄ē",
"́ǽ",
"488)6789
00000 11011 22022 33033 44044 55055 66066 77077 88088 99099
00100 11111 22122 33133 44144 55155 66166 77177 88188 99199
00200 11211 22222 33233 44244 55255 66266 77277 88288 99299
00300 11311 22322 33333 44344 55355 66366 77377 88388 99399
00400 11411 22422 33433 44444 55455 66466 77477 88488 99499
00500 11511 22522 33533 44544 55555 66566 77577 88588 99599
00600 11611 22622 33633 44644 55655 66666 77677 88688 99699
00700 11711 22722 33733 44744 55755 66766 77777 88788 99799
0000 1111 22822 33833 44844 55855 66866 77877 88888 99899
00900 11911 22922 33933 44944 55955 66966 77977 88988 99999
         
         
         
",
"488)6789
00000 11011 22022 33033 44044 55055 66066 77077 88088 99099
00100 11111 22122 33133 44144 55155 66166 77177 88188 99199
00200 11211 22222 33233 44244 55255 66266 77277 88288 99299
00300 11311 22322 33333 44344 55355 66366 77377 88388 99399
00400 11411 22422 33433 44444 55455 66466 77477 88488 99499
00500 11511 22522 33533 44544 55555 66566 77577 88588 99599
00600 11611 22622 33633 44644 55655 66666 77677 88688 99699
00700 11711 22722 33733 44744 55755 66766 77777 88788 99799
0000 1111 22822 33833 44844 55855 66866 77877 88888 99899
00900 11911 22922 33933 44944 55955 66966 77977 88988 99999
         
         
         
",
"488)6789
00000 11011 22022 33033 44044 55055 66066 77077 88088 99099
00100 11111 22122 33133 44144 55155 66166 77177 88188 99199
00200 11211 22222 33233 44244 55255 66266 77277 88288 99299
00300 11311 22322 33333 44344 55355 66366 77377 88388 99399
00400 11411 22422 33433 44444 55455 66466 77477 88488 99499
00500 11511 22522 33533 44544 55555 66566 77577 88588 99599
00600 11611 22622 33633 44644 55655 66666 77677 88688 99699

glyphs = (
{
glyphname = A;
kernLeft = A;
kernRight = A;
lastChange = "2023-01-24 20:59:15 +0000";
layers = (
{
associatedMasterId = "897F30B6-1700-43C7-9C60-A606C7C7F267";
layerId = "02575D39-7864-4EEF-9012-950E1A85E8A1";
name = public.background;
shapes = (
{
closed = 1;
nodes = (
(106,0,l),
(343,654,l),
(309,654,l),
(546,0,l),
(620,0,l),
(362,700,l),
(291,700,l),
(32,0,l)
);
},
{
closed = 1;
nodes = (
(500,166,l),
(479,224,l),
(173,224,l),
(152,166,l)
);
}
);
width = 712;
},
{
anchors = (
{
name = ogonek;
pos = (682,0);
},
{
name = top;
pos = (347,700);
}
);
layerId = "BD1314B0-2F62-4F06-89D3-8B766BA843F0";
shapes = (
{
closed = 1;
nodes = (
(159,0,l),
(375,624,l),
(318,624,l),
(534,0,l),
(682,0,l),
(426,700,l),
(267,700,l),
(12,0,l)
);
},
{
closed = 1;
nodes = (
(564,157,l),
(527,266,l),
(167,266,l),
(130,157,l)
);
}
);
width = 694;
},
{
anchors = (
{
name = ogonek;
pos = (641,0);
},
{
name = top;
pos = (348,700);
}
);
layerId = "897F30B6-1700-43C7-9C60-A606C7C7F267";
shapes = (
{
closed = 1;
nodes = (
(127,0,l),
(364,654,l),
(330,654,l),
(567,0,l),
(641,0,l),
(383,700,l),
(312,700,l),
(53,0,l)
);
},
{
closed = 1;
nodes = (
(521,186,l),
(500,244,l),
(194,244,l),
(173,186,l)
);
}
);
width = 694;
}
);
unicode = 65;
},
{
color = 0;
glyphname = B;
kernLeft = H;
lastChange = "2023-01-26 17:53:58 +0000";
layers = (
{
associatedMasterId = "897F30B6-1700-43C7-9C60-A606C7C7F267";
layerId = "C2F9BAFC-5580-4CF8-8BE5-F0A0A7E63D04";
name = "#instance";
shapes = (
{
closed = 1;
nodes = (
(379,0,ls),
(527,0,o),
(610,78,o),
(610,191,cs),
(610,283,o),
(540,361,o),
(444,364,c),
(428,353,l),
(517,360,o),
(594,414,o),
(594,520,cs),
(594,627,o),
(514,700,o),
(369,700,cs),
(78,700,l),
(78,0,l)
);
},
{
closed = 1;
nodes = (
(218,305,l),
(355,305,ls),
(425,305,o),
(468,268,o),
(468,208,cs),
(468,147,o),
(427,114,o),
(357,114,cs),
(218,114,l)
);
},
{
closed = 1;
nodes = (
(218,588,l),
(345,588,ls),
(415,588,o),
(451,555,o),
(451,499,cs),
(451,441,o),
(414,409,o),
(346,409,cs),
(218,409,l)
);
}
);
width = 651;
},
{
associatedMasterId = "897F30B6-1700-43C7-9C60-A606C7C7F267";
layerId = "02575D39-7864-4EEF-9012-950E1A85E8A1";
name = public.background;
shapes = (
{
closed = 1;
nodes = (
(318,0,ls),
(465,0,o),
(544,82,o),
(544,187,cs),
(544,284,o),
(467,362,o),
(378,364,c),
(365,354,l),
(447,363,o),
(528,414,o),
(528,523,c),
(528,621,o),
(458,699,o),
(311,699,cs),
(76,699,l),
(76,0,l)
);
},
{
closed = 1;
nodes = (
(146,332,l),
(310,332,ls),
(410,332,o),
(474,278,o),
(474,194,cs),
(474,110,o),
(414,59,o),
(313,59,cs),
(146,59,l)
);
},
{
closed = 1;
nodes = (
(146,640,l),
(306,640,ls),
(407,640,o),
(457,591,o),
(457,516,c),
(457,438,o),
(404,390,o),
(309,390,cs),
(146,390,l)
);
}
);
width = 593;
},
{
layerId = "BD1314B0-2F62-4F06-89D3-8B766BA843F0";
shapes = (
{
closed = 1;
nodes = (
(348,0,ls),
(496,0,o),
(579,78,o),
(579,191,cs),
(579,283,o),
(509,361,o),
(413,364,c),
(397,353,l),
(486,360,o),
(563,414,o),
(563,520,cs),
(563,627,o),
(483,700,o),
(338,700,cs),
(47,700,l),
(47,0,l)
);
},
{
closed = 1;
nodes = (
(187,305,l),
(324,305,ls),
(394,305,o),
(437,268,o),
(437,208,cs),
(437,147,o),
(396,114,o),
(326,114,cs),
(187,114,l)
);
},
{
closed = 1;
nodes = (
(187,588,l),
(314,588,ls),
(384,588,o),
(420,555,o),
(420,499,cs),
(420,441,o),
(383,409,o),
(315,409,cs),
(187,409,l)
);
}
);
width = 613;
},
{
layerId = "897F30B6-1700-43C7-9C60-A606C7C7F267";
shapes = (
{
closed = 1;
nodes = (
(320,0,ls),
(467,0,o),
(546,86,o),
(546,191,cs),
(546,288,o),
(469,362,o),
(380,364,c),
(367,354,l),
(449,363,o),
(530,414,o),
(530,523,cs),
(530,621,o),
(460,700,o),
(313,700,cs),
(78,700,l),
(78,0,l)
);
},
{
closed = 1;
nodes = (
(148,332,l),
(312,332,ls),
(412,332,o),
(474,278,o),
(474,194,cs),
(474,110,o),
(416,59,o),
(315,59,cs),
(148,59,l)
);
},
{
closed = 1;
nodes = (
(148,641,l),
(308,641,ls),
(409,641,o),
(458,591,o),
(458,516,cs),
(458,438,o),
(406,390,o),
(311,390,cs),
(148,390,l)
);
}
);
width = 613;
}
);
metricLeft = H;
unicode = 66;
},
{
glyphname = C;
kernLeft = O;
kernRight = C;
lastChange = "2023-01-24 19:35:08 +0000";
layers = (
{
associatedMasterId = "897F30B6-1700-43C7-9C60-A606C7C7F267";
layerId = "02575D39-7864-4EEF-9012-950E1A85E8A1";
name = public.background;
shapes = (
{
closed = 1;
nodes = (
(523,-12,o),
(639,66,o),
(679,198,c),
(599,198,l),
(568,107,o),
(486,49,o),
(377,49,cs),
(232,49,o),
(117,162,o),
(117,350,cs),
(117,538,o),
(232,651,o),
(377,651,cs),
(486,651,o),
(568,593,o),
(599,500,c),
(679,500,l),
(639,634,o),
(523,712,o),
(377,712,cs),
(189,712,o),
(45,565,o),
(45,350,cs),
(45,134,o),
(189,-12,o),
(377,-12,cs)
);
}
);
width = 735;
},
{
anchors = (
{
name = bottom;
pos = (391,0);
},
{
name = top;
pos = (391,700);
}
);
guides = (
{
pos = (229,1141);
}
);
layerId = "BD1314B0-2F62-4F06-89D3-8B766BA843F0";
shapes = (
{
closed = 1;
nodes = (
(558,-12,o),
(673,76,o),
(698,224,c),
(544,224,l),
(528,153,o),
(474,114,o),
(386,114,cs),
(262,114,o),
(189,203,o),
(189,349,cs),
(189,495,o),
(262,585,o),
(386,585,cs),
(474,585,o),
(529,542,o),
(545,468,c),
(699,468,l),
(673,623,o),
(558,712,o),
(388,712,cs),
(175,712,o),
(47,563,o),
(47,349,cs),
(47,135,o),
(175,-12,o),
(388,-12,cs)
);
}
);
width = 748;
},
{
anchors = (
{
name = bottom;
pos = (389,0);
},
{
name = top;
pos = (389,700);
}
);
guides = (
{
pos = (15,358);
}
);
layerId = "897F30B6-1700-43C7-9C60-A606C7C7F267";
shapes = (
{
closed = 1;
nodes = (
(552,-12,o),
(653,66,o),
(685,207,c),
(607,207,l),
(582,105,o),
(513,49,o),
(394,49,cs),
(237,49,o),
(134,162,o),
(134,350,cs),
(134,538,o),
(237,651,o),
(394,651,cs),
(513,651,o),
(581,591,o),
(603,500,c),
(681,500,l),
(652,634,o),
(552,712,o),
(394,712,cs),
(190,712,o),
(62,565,o),
(62,350,cs),
(62,134,o),
(190,-12,o),
(394,-12,cs)
);
}
);
width = 748;
}
);
unicode = 67;
},
{
glyphname = D;
kernLeft = H;
kernRight = O;
lastChange = "2023-01-24 19:35:08 +0000";
layers = (
{
associatedMasterId = "897F30B6-1700-43C7-9C60-A606C7C7F267";
layerId = "02575D39-7864-4EEF-9012-950E1A85E8A1";
name = public.background;
shapes = (
{
closed = 1;
nodes = (
(283,0,ls),
(516,0,o),
(653,131,o),
(653,348,cs),
(653,568,o),
(516,700,o),
(283,700,cs),
(76,700,l),
(76,0,l)
);
},
{
closed = 1;
nodes = (
(146,642,l),
(283,642,ls),
(481,642,o),
(581,530,o),
(581,348,cs),
(581,168,o),
(481,58,o),
(283,58,cs),
(146,58,l)
);
}
);
width = 709;
},
{
anchors = (
{
name = top;
pos = (274,700);
}
);
layerId = "BD1314B0-2F62-4F06-89D3-8B766BA843F0";
shapes = (
{
closed = 1;
nodes = (
(293,0,ls),
(538,0,o),
(652,139,o),
(652,350,cs),
(652,561,o),
(538,700,o),
(293,700,cs),
(47,700,l),
(47,0,l)
);
},
{
closed = 1;
nodes = (
(187,581,l),
(285,581,ls),
(454,581,o),
(509,494,o),
(509,350,cs),
(509,205,o),
(454,120,o),
(285,120,cs),
(187,120,l)
);
}
);
width = 700;
},
{
anchors = (
{
name = top;
pos = (287,700);
}
);
layerId = "897F30B6-1700-43C7-9C60-A606C7C7F267";
shapes = (
{
closed = 1;
nodes = (
(283,0,ls),
(530,0,o),
(643,131,o),
(643,348,cs),
(643,568,o),
(530,700,o),
(283,700,cs),
(78,700,l),
(78,0,l)
);
},
{
closed = 1;
nodes = (
(148,642,l),
(283,642,ls),
(495,642,o),
(571,530,o),
(571,348,cs),
(571,168,o),
(495,58,o),
(283,58,cs),
(148,58,l)
);
}
);
width = 700;
}
);
metricLeft = H;
metricRight = O;
unicode = 68;
},
{
glyphname = E;
kernLeft = H;
kernRight = E;
lastChange = "2023-01-24 20:30:38 +0000";
layers = (
{
associatedMasterId = "897F30B6-1700-43C7-9C60-A606C7C7F267";
layerId = "02575D39-7864-4EEF-9012-950E1A85E8A1";
name = public.background;
shapes = (
{
closed = 1;
nodes = (
(471,0,l),
(471,58,l),
(146,58,l),
(146,323,l),
(441,323,l),
(441,381,l),
(146,381,l),
(146,642,l),
(471,642,l),
(471,700,l),
(76,700,l),
(76,0,l)
);
}
);
width = 559;
},
{
anchors = (
{
name = bottom;
pos = (281,0);
},
{
name = ogonek;
pos = (510,0);
},
{
name = top;
pos = (298,700);
}
);
layerId = "BD1314B0-2F62-4F06-89D3-8B766BA843F0";
shapes = (
{
closed = 1;
nodes = (
(510,0,l),
(510,113,l),
(187,113,l),
(187,301,l),
(480,301,l),
(480,410,l),
(187,410,l),
(187,587,l),
(510,587,l),
(510,700,l),
(47,700,l),
(47,0,l)
);
}
);
width = 539;
},
{
anchors = (
{
name = bottom;
pos = (297,0);
},
{
name = ogonek;
pos = (492,0);
},
{
name = top;
pos = (297,700);
}
);
layerId = "897F30B6-1700-43C7-9C60-A606C7C7F267";
shapes = (
{
closed = 1;
nodes = (
(492,0,l),
(492,58,l),
(137,58,l),
(137,323,l),
(462,323,l),
(462,381,l),
(137,381,l),
(137,642,l),
(492,642,l),
(492,700,l),
(67,700,l),
(67,0,l)
);
}
);
width = 539;
}
);
unicode = 69;
},
{
glyphname = F;
kernLeft = H;
lastChange = "2023-01-24 19:35:08 +0000";
layers = (
{
associatedMasterId = "897F30B6-1700-43C7-9C60-A606C7C7F267";
layerId = "02575D39-7864-4EEF-9012-950E1A85E8A1";
name = public.background;
shapes = (
{
closed = 1;
nodes = (
(146,0,l),
(146,322,l),
(406,322,l),
(406,380,l),
(146,380,l),
(146,641,l),
(454,641,l),
(454,699,l),
(76,699,l),
(76,0,l)
);
}
);
width = 529;
},
{
layerId = "BD1314B0-2F62-4F06-89D3-8B766BA843F0";
shapes = (
{
closed = 1;
nodes = (
(187,0,l),
(187,296,l),
(442,296,l),
(442,406,l),
(187,406,l),
(187,587,l),
(506,587,l),
(506,700,l),
(47,700,l),
(47,0,l)
);
}
);
width = 533;
},
{
layerId = "897F30B6-1700-43C7-9C60-A606C7C7F267";
shapes = (
{
closed = 1;
nodes = (
(148,0,l),
(148,322,l),
(448,322,l),
(448,380,l),
(148,380,l),
(148,642,l),
(496,642,l),
(496,700,l),
(78,700,l),
(78,0,l)
);
}
);
width = 533;
}
);
metricLeft = H;
unicode = 70;
},
{
color = 0;
glyphname = G;
kernLeft = O;
kernRight = G;
lastChange = "2023-08-06 13:47:12 +0000";
layers = (
{
associatedMasterId = "897F30B6-1700-43C7-9C60-A606C7C7F267";
layerId = "02575D39-7864-4EEF-9012-950E1A85E8A1";
name = public.background;
shapes = (
{
closed = 1;
nodes = (
(576,-12,o),
(700,117,o),
(700,346,cs),
(700,371,l),
(404,371,l),
(404,314,l),
(624,314,l),
(621,147,o),
(536,51,o),
(372,51,cs),
(222,51,o),
(117,164,o),
(117,350,cs),
(117,536,o),
(222,648,o),
(382,648,cs),
(498,648,o),
(575,590,o),
(594,500,c),
(676,500,l),
(646,633,o),
(536,712,o),
(382,712,cs),
(176,712,o),
(45,564,o),
(45,350,cs),
(45,135,o),
(176,-12,o),
(378,-12,cs)
);
}
);
width = 797;
},
{
anchors = (
{
name = bottom;
pos = (392,0);
},
{
name = top;
pos = (398,700);
}
);
layerId = "BD1314B0-2F62-4F06-89D3-8B766BA843F0";
shapes = (
{
closed = 1;
nodes = (
(595,-12,o),
(732,102,o),
(732,327,cs),
(732,388,l),
(400,388,l),
(400,284,l),
(590,284,l),
(590,176,o),
(521,112,o),
(411,112,cs),
(267,112,o),
(190,197,o),
(190,344,cs),
(190,492,o),
(265,583,o),
(400,583,cs),
(483,583,o),
(535,548,o),
(556,488,c),
(712,488,l),
(680,628,o),
(566,712,o),
(400,712,cs),
(181,712,o),
(48,561,o),
(48,345,cs),
(48,131,o),
(179,-12,o),
(410,-12,cs)
);
}
);
width = 781;
},
{
anchors = (
{
name = bottom;
pos = (394,0);
},
{
name = top;
pos = (394,700);
}
);
layerId = "897F30B6-1700-43C7-9C60-A606C7C7F267";
shapes = (
{
closed = 1;
nodes = (
(594,-12,o),
(717,117,o),
(717,346,cs),
(717,371,l),
(424,371,l),
(424,309,l),
(649,309,l),
(644,145,o),
(554,51,o),
(406,51,cs),
(245,51,o),
(135,164,o),
(135,342,cs),
(135,534,o),
(240,648,o),
(400,648,cs),
(516,648,o),
(593,590,o),
(612,500,c),
(694,500,l),
(664,633,o),
(554,712,o),
(400,712,cs),
(194,712,o),
(63,563,o),
(63,343,cs),
(63,136,o),
(195,-12,o),
(408,-12,cs)
);
}
);
width = 781;
}
);
unicode = 71;
},
{
glyphname = H;
kernLeft = H;
kernRight = H;
lastChange = "2023-01-24 19:35:08 +0000";
layers = (
{
associatedMasterId = "897F30B6-1700-43C7-9C60-A606C7C7F267";
layerId = "02575D39-7864-4EEF-9012-950E1A85E8A1";
name = public.background;
shapes = (
{
closed = 1;
nodes = (
(595,0,l),
(595,699,l),
(525,699,l),
(525,0,l)
);
},
{
closed = 1;
nodes = (
(146,0,l),
(146,699,l),
(76,699,l),
(76,0,l)
);
},
{
closed = 1;
nodes = (
(545,327,l),
(545,385,l),
(130,385,l),
(130,327,l)
);
}
);
width = 713;
},
{
layerId = "BD1314B0-2F62-4F06-89D3-8B766BA843F0";
shapes = (
{
closed = 1;
nodes = (
(628,0,l),
(628,700,l),
(488,700,l),
(488,0,l)
);
},
{
closed = 1;
nodes = (
(187,0,l),
(187,700,l),
(47,700,l),
(47,0,l)
);
},
{
closed = 1;
nodes = (
(511,301,l),
(511,414,l),
(169,414,l),
(169,301,l)
);
}
);
width = 675;
},
{
layerId = "897F30B6-1700-43C7-9C60-A606C7C7F267";
shapes = (
{
closed = 1;
nodes = (
(597,0,l),
(597,700,l),
(527,700,l),
(527,0,l)
);
},
{
closed = 1;
nodes = (
(148,0,l),
(148,700,l),
(78,700,l),
(78,0,l)
);
},
{
closed = 1;
nodes = (
(547,327,l),
(547,385,l),
(132,385,l),
(132,327,l)
);
}
);
width = 675;
}
);
unicode = 72;
},
{
glyphname = I;
kernLeft = H;
kernRight = H;
lastChange = "2023-01-24 20:31:55 +0000";
layers = (
{
associatedMasterId = "897F30B6-1700-43C7-9C60-A606C7C7F267";
layerId = "02575D39-7864-4EEF-9012-950E1A85E8A1";
name = public.background;
shapes = (
{
closed = 1;
nodes = (
(146,0,l),
(146,699,l),
(76,699,l),
(76,0,l)
);
}
);
width = 264;
},
{
anchors = (
{
name = ogonek;
pos = (187,0);
},
{
name = top;
pos = (117,700);
}
);
layerId = "BD1314B0-2F62-4F06-89D3-8B766BA843F0";
shapes = (
{
closed = 1;
nodes = (
(187,0,l),
(187,700,l),
(47,700,l),
(47,0,l)
);
}
);
width = 234;
},
{
anchors = (
{
name = ogonek;
pos = (152,0);
},
{
name = top;
pos = (117,700);
}
);
layerId = "897F30B6-1700-43C7-9C60-A606C7C7F267";
shapes = (
{
closed = 1;
nodes = (
(152,0,l),
(152,700,l),
(82,700,l),
(82,0,l)
);
}
);
width = 234;
}
);
unicode = 73;
},
{
glyphname = J;
lastChange = "2023-01-24 19:35:08 +0000";
layers = (
{
associatedMasterId = "897F30B6-1700-43C7-9C60-A606C7C7F267";
layerId = "02575D39-7864-4EEF-9012-950E1A85E8A1";
name = public.background;
shapes = (
{
closed = 1;
nodes = (
(333,-7,o),
(403,64,o),
(403,170,cs),
(403,699,l),
(333,699,l),
(333,170,ls),
(333,112,o),
(304,55,o),
(223,55,cs),
(140,55,o),
(109,114,o),
(108,184,c),
(37,184,l),
(37,66,o),
(110,-7,o),
(223,-7,cs)
);
}
);
width = 512;
},
{
layerId = "BD1314B0-2F62-4F06-89D3-8B766BA843F0";
shapes = (
{
closed = 1;
nodes = (
(298,0,o),
(383,77,o),
(383,219,cs),
(383,700,l),
(243,700,l),
(243,219,ls),
(243,161,o),
(221,125,o),
(164,125,c),
(164,0,l)
);
},
{
closed = 1;
nodes = (
(164,0,l),
(164,125,l),
(32,125,l),
(32,0,l)
);
}
);
width = 421;
},
{
layerId = "897F30B6-1700-43C7-9C60-A606C7C7F267";
shapes = (
{
closed = 1;
nodes = (
(290,0,o),
(360,71,o),
(360,192,cs),
(360,700,l),
(290,700,l),
(290,192,ls),
(290,119,o),
(261,62,o),
(170,62,c),
(170,0,l)
);
},
{
closed = 1;
nodes = (
(170,0,l),
(170,62,l),
(51,62,l),
(51,0,l)
);
}
);
width = 421;
}
);
unicode = 74;
},
{
glyphname = K;
kernLeft = H;
kernRight = K;
lastChange = "2023-01-24 19:35:08 +0000";
layers = (
{
associatedMasterId = "897F30B6-1700-43C7-9C60-A606C7C7F267";
layerId = "02575D39-7864-4EEF-9012-950E1A85E8A1";
name = public.background;
shapes = (
{
closed = 1;
nodes = (
(541,0,l),
(201,360,l),
(196,334,l),
(538,699,l),
(449,699,l),
(123,347,l),
(449,0,l)
);
},
{
closed = 1;
nodes = (
(146,0,l),
(146,699,l),
(76,699,l),
(76,0,l)
);
}
);
width = 564;
},
{
anchors = (
{
name = bottom;
pos = (309,0);
},
{
name = top;
pos = (309,700);
}
);
layerId = "BD1314B0-2F62-4F06-89D3-8B766BA843F0";
shapes = (
{
closed = 1;
nodes = (
(187,0,l),
(187,245,l),
(252,315,l),
(446,0,l),
(617,0,l),
(352,423,l),
(609,700,l),
(437,700,l),
(187,427,l),
(187,700,l),
(47,700,l),
(47,0,l)
);
}
);
width = 630;
},
{
anchors = (
{
name = bottom;
pos = (286,0);
},
{
name = top;
pos = (286,700);
}
);
layerId = "897F30B6-1700-43C7-9C60-A606C7C7F267";
shapes = (
{
closed = 1;
nodes = (
(148,0,l),
(148,260,l),
(232,346,l),
(491,0,l),
(576,0,l),
(282,395,l),
(570,700,l),
(481,700,l),
(148,352,l),
(148,700,l),
(78,700,l),
(78,0,l)
);
}
);
width = 630;
}
);
metricLeft = H;
unicode = 75;
},
{
glyphname = L;
kernLeft = H;
kernRight = L;
lastChange = "2023-01-24 19:35:08 +0000";
layers = (
{
associatedMasterId = "897F30B6-1700-43C7-9C60-A606C7C7F267";
layerId = "02575D39-7864-4EEF-9012-950E1A85E8A1";
name = public.background;
shapes = (
{
closed = 1;
nodes = (
(397,0,l),
(397,57,l),
(146,57,l),
(146,699,l),
(76,699,l),
(76,0,l)
);
}
);
width = 517;
},
{
anchors = (
{
name = bottom;
pos = (297,0);
},
{
name = center;
pos = (268,350);
},
{
name = commaaccent;
pos = (297,7);
},
{
name = top;
pos = (126,700);
},
{
name = topright;
pos = (493,700);
}
);
layerId = "BD1314B0-2F62-4F06-89D3-8B766BA843F0";
shapes = (
{
closed = 1;
nodes = (
(493,0,l),
(493,109,l),
(187,109,l),
(187,700,l),
(47,700,l),
(47,0,l)
);
}
);
width = 521;
},
{
anchors = (
{
name = bottom;
pos = (293,0);
},
{
name = center;
pos = (284,350);
},
{
name = commaaccent;
pos = (293,0);
},
{
name = top;
pos = (119,700);
},
{
name = topright;
pos = (479,700);
}
);
layerId = "897F30B6-1700-43C7-9C60-A606C7C7F267";
shapes = (
{
closed = 1;
nodes = (
(479,0,l),
(479,57,l),
(148,57,l),
(148,700,l),
(78,700,l),
(78,0,l)
);
}
);
width = 521;
}
);
metricLeft = H;
unicode = 76;
},
{
glyphname = M;
kernLeft = H;
kernRight = H;
lastChange = "2023-01-24 19:35:08 +0000";
layers = (
{
associatedMasterId = "897F30B6-1700-43C7-9C60-A606C7C7F267";
layerId = "02575D39-7864-4EEF-9012-950E1A85E8A1";
name = public.background;
shapes = (
{
closed = 1;
nodes = (
(146,0,l),
(146,620,l),
(119,619,l),
(392,0,l),
(443,0,l),
(715,619,l),
(689,620,l),
(689,0,l),
(759,0,l),
(759,700,l),
(678,700,l),
(400,62,l),
(435,62,l),
(156,700,l),
(76,700,l),
(76,0,l)
);
}
);
width = 877;
},
{
layerId = "BD1314B0-2F62-4F06-89D3-8B766BA843F0";
shapes = (
{
closed = 1;
nodes = (
(187,0,l),
(187,592,l),
(140,557,l),
(372,0,l),
(484,0,l),
(715,557,l),
(668,592,l),
(668,0,l),
(808,0,l),
(808,700,l),
(641,700,l),
(399,106,l),
(458,114,l),
(215,700,l),
(47,700,l),
(47,0,l)
);
}
);
width = 855;
},
{
layerId = "897F30B6-1700-43C7-9C60-A606C7C7F267";
shapes = (
{
closed = 1;
nodes = (
(148,0,l),
(148,620,l),
(121,621,l),
(403,0,l),
(454,0,l),
(733,621,l),
(707,620,l),
(707,0,l),
(777,0,l),
(777,700,l),
(696,700,l),
(411,67,l),
(447,67,l),
(158,700,l),
(78,700,l),
(78,0,l)
);
}
);
width = 855;
}
);
metricLeft = H;
metricRight = H;
unicode = 77;
},
{
glyphname = N;
kernLeft = H;
kernRight = H;
lastChange = "2023-01-24 19:35:08 +0000";
layers = (
{
associatedMasterId = "897F30B6-1700-43C7-9C60-A606C7C7F267";
layerId = "02575D39-7864-4EEF-9012-950E1A85E8A1";
name = public.background;
shapes = (
{
closed = 1;
nodes = (
(146,0,l),
(146,588,l),
(533,0,l),
(603,0,l),
(603,699,l),
(533,699,l),
(533,112,l),
(146,699,l),
(76,699,l),
(76,0,l)
);
}
);
width = 721;
},
{
anchors = (
{
name = bottom;
pos = (346,0);
},
{
name = top;
pos = (346,700);
}
);
layerId = "BD1314B0-2F62-4F06-89D3-8B766BA843F0";
shapes = (
{
closed = 1;
nodes = (
(187,0,l),
(187,473,l),
(504,0,l),
(644,0,l),
(644,700,l),
(504,700,l),
(504,225,l),
(187,700,l),
(47,700,l),
(47,0,l)
);
}
);
width = 691;
},
{
anchors = (
{
name = bottom;
pos = (342,0);
},
{
name = top;
pos = (342,700);
}
);
layerId = "897F30B6-1700-43C7-9C60-A606C7C7F267";
shapes = (
{
closed = 1;
nodes = (
(152,0,l),
(152,583,l),
(539,0,l),
(609,0,l),
(609,700,l),
(539,700,l),
(539,118,l),
(152,700,l),
(82,700,l),
(82,0,l)
);
}
);
width = 691;
}
);
unicode = 78;
},
{
glyphname = O;
kernLeft = O;
kernRight = O;
lastChange = "2023-08-08 15:48:17 +0000";
layers = (
{
associatedMasterId = "897F30B6-1700-43C7-9C60-A606C7C7F267";
layerId = "02575D39-7864-4EEF-9012-950E1A85E8A1";
name = public.background;
shapes = (
{
closed = 1;
nodes = (
(588,-12,o),
(737,135,o),
(737,350,cs),
(737,564,o),
(588,712,o),
(391,712,cs),
(195,712,o),
(45,564,o),
(45,350,cs),
(45,135,o),
(195,-12,o),
(391,-12,cs)
);
},
{
closed = 1;
nodes = (
(240,49,o),
(117,162,o),
(117,350,cs),
(117,538,o),
(240,650,o),
(391,650,cs),
(542,650,o),
(665,538,o),
(665,350,cs),
(665,162,o),
(542,49,o),
(391,49,cs)
);
}
);
width = 793;
},
{
anchors = (
{
name = top;
pos = (400,700);
}
);
layerId = "BD1314B0-2F62-4F06-89D3-8B766BA843F0";
shapes = (
{
closed = 1;
nodes = (
(609,-12,o),
(752,136,o),
(752,350,cs),
(752,564,o),
(609,712,o),
(400,712,cs),
(191,712,o),
(48,564,o),
(48,350,cs),
(48,136,o),
(191,-12,o),
(400,-12,cs)
);
},
{
closed = 1;
nodes = (
(273,114,o),
(191,204,o),
(191,350,cs),
(191,496,o),
(273,586,o),
(401,586,cs),
(528,586,o),
(610,496,o),
(610,350,cs),
(610,204,o),
(528,114,o),
(401,114,cs)
);
}
);
width = 800;
},
{
anchors = (
{
name = top;
pos = (400,700);
}
);
layerId = "897F30B6-1700-43C7-9C60-A606C7C7F267";
shapes = (
{
closed = 1;
nodes = (
(607,-12,o),
(743,135,o),
(743,350,cs),
(743,564,o),
(607,712,o),
(400,712,cs),
(194,712,o),
(57,564,o),
(57,350,cs),
(57,135,o),
(194,-12,o),
(400,-12,cs)
);
},
{
closed = 1;
nodes = (
(239,49,o),
(129,162,o),
(129,350,cs),
(129,538,o),
(239,650,o),
(400,650,cs),
(561,650,o),
(671,538,o),
(671,350,cs),
(671,162,o),
(561,49,o),
(400,49,cs)
);
}
);
width = 800;
}
);
unicode = 79;
},
{
glyphname = P;
kernLeft = H;
lastChange = "2023-01-24 19:35:08 +0000";
layers = (
{
associatedMasterId = "897F30B6-1700-43C7-9C60-A606C7C7F267";
layerId = "02575D39-7864-4EEF-9012-950E1A85E8A1";
name = public.background;
shapes = (
{
closed = 1;
nodes = (
(146,0,l),
(146,298,l),
(287,298,ls),
(451,298,o),
(523,385,o),
(523,498,cs),
(523,613,o),
(449,699,o),
(287,699,cs),
(76,699,l),
(76,0,l)
);
},
{
closed = 1;
nodes = (
(146,640,l),
(287,640,ls),
(405,640,o),
(451,588,o),
(451,498,cs),
(451,412,o),
(405,358,o),
(287,358,cs),
(146,358,l)
);
}
);
width = 570;
},
{
layerId = "BD1314B0-2F62-4F06-89D3-8B766BA843F0";
shapes = (
{
closed = 1;
nodes = (
(187,0,l),
(187,265,l),
(314,265,ls),
(488,265,o),
(565,367,o),
(565,482,cs),
(565,606,o),
(483,700,o),
(314,700,cs),
(47,700,l),
(47,0,l)
);
},
{
closed = 1;
nodes = (
(187,586,l),
(305,586,ls),
(388,586,o),
(423,547,o),
(423,482,cs),
(423,418,o),
(388,378,o),
(305,378,cs),
(187,378,l)
);
}
);
width = 589;
},
{
layerId = "897F30B6-1700-43C7-9C60-A606C7C7F267";
shapes = (
{
closed = 1;
nodes = (
(148,0,l),
(148,299,l),
(299,299,ls),
(463,299,o),
(535,386,o),
(535,499,cs),
(535,614,o),
(461,700,o),
(299,700,cs),
(78,700,l),
(78,0,l)
);
},
{
closed = 1;
nodes = (
(148,641,l),
(299,641,ls),
(417,641,o),
(463,589,o),
(463,499,cs),
(463,413,o),
(417,359,o),
(299,359,cs),
(148,359,l)
);
}
);
width = 589;
}
);
metricLeft = H;
unicode = 80;
},
{
glyphname = Q;
kernLeft = O;
lastChange = "2023-01-26 17:51:09 +0000";
layers = (
{
associatedMasterId = "897F30B6-1700-43C7-9C60-A606C7C7F267";
layerId = "02575D39-7864-4EEF-9012-950E1A85E8A1";
name = public.background;
shapes = (
{
closed = 1;
nodes = (
(322,-137,l),
(109,59,l),
(45,33,l),
(228,-137,l)
);
},
{
alignment = -1;
pos = (45,0);
ref = O;
}
);
width = 834;
},
{
anchors = (
{
name = top;
pos = (400,700);
}
);
associatedMasterId = "897F30B6-1700-43C7-9C60-A606C7C7F267";
layerId = "E3160E8F-7C5D-4886-9BD2-DEE45D055A52";
name = "3 Jan 23 17:04";
shapes = (
{
closed = 1;
nodes = (
(546,0,o),
(743,101,o),
(743,355,cs),
(743,569,o),
(607,712,o),
(400,712,cs),
(194,712,o),
(57,569,o),
(57,355,cs),
(57,140,o),
(194,0,o),
(400,0,cs)
);
},
{
closed = 1;
nodes = (
(239,62,o),
(129,167,o),
(129,355,cs),
(129,543,o),
(239,650,o),
(400,650,cs),
(561,650,o),
(671,543,o),
(671,355,cs),
(671,167,o),
(561,62,o),
(400,62,cs)
);
},
{
closed = 1;
nodes = (
(504,293,l),
(416,293,l),
(695,0,l),
(779,0,l)
);
}
);
width = 804;
},
{
anchors = (
{
name = top;
pos = (400,700);
}
);
associatedMasterId = "BD1314B0-2F62-4F06-89D3-8B766BA843F0";
layerId = "BF73D2D9-CA50-47B5-AC17-B80F771C1F84";
name = "3 Jan 23 17:21";
shapes = (
{
closed = 1;
nodes = (
(788,0,l),
(789,129,l),
(467,128,l),
(400,0,l)
);
},
{
closed = 1;
nodes = (
(527,0,o),
(752,117,o),
(752,355,cs),
(752,569,o),
(609,712,o),
(400,712,cs),
(191,712,o),
(48,569,o),
(48,355,cs),
(48,141,o),
(191,0,o),
(400,0,cs)
);
},
{
closed = 1;
nodes = (
(272,126,o),
(190,209,o),
(190,355,cs),
(190,501,o),
(272,586,o),
(400,586,cs),
(527,586,o),
(609,501,o),
(609,355,cs),
(609,209,o),
(527,126,o),
(400,126,cs)
);
}
);
width = 812;
},
{
anchors = (
{
name = top;
pos = (401,700);
}
);
layerId = "BD1314B0-2F62-4F06-89D3-8B766BA843F0";
name = Heavy;
shapes = (
{
closed = 1;
nodes = (
(790,0,l),
(790,121,l),
(738,121,ls),
(714,121,o),
(711,123,o),
(698,137,cs),
(480,382,l),
(387,308,l),
(640,25,ls),
(657,5,o),
(668,0,o),
(702,0,cs)
);
},
{
ref = O;
}
);
width = 819;
},
{
anchors = (
{
name = top;
pos = (400,700);
}
);
associatedMasterId = "897F30B6-1700-43C7-9C60-A606C7C7F267";
layerId = "0FE4D649-DBC0-4594-973C-3EBAEF739317";
name = "3 Jan 23 17:21";
shapes = (
{
closed = 1;
nodes = (
(776,0,l),
(776,62,l),
(483,58,l),
(400,0,l)
);
},
{
closed = 1;
nodes = (
(546,0,o),
(743,101,o),
(743,355,cs),
(743,569,o),
(607,712,o),
(400,712,cs),
(194,712,o),
(57,569,o),
(57,355,cs),
(57,140,o),
(194,0,o),
(400,0,cs)
);
},
{
closed = 1;
nodes = (
(239,62,o),
(129,167,o),
(129,355,cs),
(129,543,o),
(239,650,o),
(400,650,cs),
(561,650,o),
(671,543,o),
(671,355,cs),
(671,167,o),
(561,62,o),
(400,62,cs)
);
}
);
width = 804;
},
{
anchors = (
{
name = top;
pos = (397,700);
}
);
layerId = "897F30B6-1700-43C7-9C60-A606C7C7F267";
name = Light;
shapes = (
{
closed = 1;
nodes = (
(772,0,l),
(772,62,l),
(719,62,ls),
(699,62,o),
(695,64,o),
(683,76,cs),
(482,293,l),
(440,254,l),
(649,22,ls),
(664,5,o),
(681,0,o),
(701,0,cs)
);
},
{
ref = O;
}
);
width = 819;
}
);
metricLeft = O;
unicode = 81;
},
{
color = 0;
glyphname = R;
kernLeft = H;
kernRight = R;
lastChange = "2023-01-28 17:48:22 +0000";
layers = (
{
anchors = (
{
name = bottom;
pos = (305,0);
},
{
name = top;
pos = (287,700);
}
);
layerId = "BD1314B0-2F62-4F06-89D3-8B766BA843F0";
shapes = (
{
closed = 1;
nodes = (
(187,0,l),
(187,265,l),
(314,265,ls),
(451,265,o),
(565,357,o),
(565,482,cs),
(565,606,o),
(483,700,o),
(314,700,cs),
(47,700,l),
(47,0,l)
);
},
{
closed = 1;
nodes = (
(577,0,l),
(569,163,ls),
(563,291,o),
(479,368,o),
(315,368,c),
(315,265,l),
(397,265,o),
(424,232,o),
(429,163,cs),
(440,0,l)
);
},
{
closed = 1;
nodes = (
(187,586,l),
(305,586,ls),
(388,586,o),
(423,547,o),
(423,482,cs),
(423,418,o),
(388,378,o),
(305,378,cs),
(187,378,l)
);
}
);
width = 603;
},
{
anchors = (
{
name = bottom;
pos = (305,0);
},
{
name = top;
pos = (280,700);
}
);
layerId = "897F30B6-1700-43C7-9C60-A606C7C7F267";
shapes = (
{
closed = 1;
nodes = (
(148,0,l),
(148,293,l),
(289,293,ls),
(453,293,o),
(526,385,o),
(526,497,cs),
(526,612,o),
(456,700,o),
(294,700,cs),
(78,700,l),
(78,0,l)
);
},
{
closed = 1;
nodes = (
(535,0,l),
(527,147,ls),
(520,273,o),
(463,348,o),
(289,347,c),
(289,293,l),
(417,293,o),
(453,248,o),
(459,136,cs),
(466,0,l)
);
},
{
closed = 1;
nodes = (
(148,641,l),
(288,641,ls),
(406,641,o),
(454,585,o),
(454,497,cs),
(454,412,o),
(403,350,o),
(289,350,cs),
(148,350,l)
);
}
);
width = 603;
},
{
associatedMasterId = "897F30B6-1700-43C7-9C60-A606C7C7F267";
layerId = "02575D39-7864-4EEF-9012-950E1A85E8A1";
name = public.background;
shapes = (
{
closed = 1;
nodes = (
(146,0,l),
(146,293,l),
(287,293,ls),
(451,293,o),
(524,385,o),
(524,497,cs),
(524,612,o),
(448,700,o),
(286,700,cs),
(76,700,l),
(76,0,l)
);
},
{
closed = 1;
nodes = (
(532,0,l),
(341,315,l),
(261,315,l),
(448,0,l)
);
},
{
closed = 1;
nodes = (
(146,641,l),
(286,641,ls),
(404,641,o),
(452,585,o),
(452,497,cs),
(452,412,o),
(401,350,o),
(287,350,cs),
(146,350,l)
);
}
);
width = 583;
}
);
metricLeft = H;
unicode = 82;
},
{
color = 0;
glyphname = S;
kernLeft = S;
kernRight = S;
lastChange = "2023-01-26 17:54:38 +0000";
layers = (
{
associatedMasterId = "897F30B6-1700-43C7-9C60-A606C7C7F267";
layerId = "02575D39-7864-4EEF-9012-950E1A85E8A1";
name = public.background;
shapes = (
{
closed = 1;
nodes = (
(440,-7,o),
(517,89,o),
(517,184,cs),
(517,444,o),
(133,320,o),
(133,522,cs),
(133,603,o),
(201,648,o),
(283,647,c),
(380,646,o),
(427,586,o),
(435,537,c),
(511,537,l),
(499,633,o),
(419,707,o),
(286,707,c),
(151,707,o),
(62,628,o),
(62,520,cs),
(62,257,o),
(446,387,o),
(446,181,cs),
(446,109,o),
(389,52,o),
(292,52,cs),
(179,52,o),
(136,122,o),
(130,180,c),
(56,180,l),
(60,73,o),
(152,-7,o),
(292,-7,cs)
);
}
);
width = 602;
},
{
anchors = (
{
name = bottom;
pos = (306,0);
},
{
name = top;
pos = (298,700);
}
);
layerId = "BD1314B0-2F62-4F06-89D3-8B766BA843F0";
shapes = (
{
closed = 1;
nodes = (
(436,-12,o),
(569,66,o),
(569,204,cs),
(569,327,o),
(495,383,o),
(376,405,cs),
(272,424,ls),
(205,436,o),
(181,468,o),
(181,505,cs),
(181,573,o),
(251,593,o),
(302,593,cs),
(356,593,o),
(416,572,o),
(430,483,c),
(560,483,l),
(545,642,o),
(440,712,o),
(298,712,cs),
(161,712,o),
(52,634,o),
(52,503,cs),
(52,406,o),
(120,328,o),
(239,306,cs),
(352,285,ls),
(425,271,o),
(439,239,o),
(439,200,cs),
(439,147,o),
(386,108,o),
(312,108,cs),
(248,108,o),
(169,134,o),
(152,236,c),
(24,236,l),
(40,57,o),
(180,-12,o),
(309,-12,cs)
);
}
);
width = 595;
},
{
anchors = (
{
name = bottom;
pos = (321,0);
},
{
name = top;
pos = (313,700);
}
);
layerId = "897F30B6-1700-43C7-9C60-A606C7C7F267";
shapes = (
{
closed = 1;
nodes = (
(438,-12,o),
(561,52,o),
(561,195,cs),
(561,288,o),
(506,357,o),
(394,378,cs),
(251,405,ls),
(184,418,o),
(134,458,o),
(134,520,cs),
(134,605,o),
(208,651,o),
(303,651,cs),
(402,651,o),
(464,603,o),
(475,511,c),
(548,511,l),
(536,640,o),
(437,712,o),
(304,712,cs),
(177,712,o),
(63,638,o),
(63,513,cs),
(63,423,o),
(132,356,o),
(226,339,cs),
(377,311,ls),
(460,296,o),
(489,249,o),
(489,192,cs),
(489,86,o),
(404,49,o),
(308,49,cs),
(197,49,o),
(116,101,o),
(108,211,c),
(36,211,l),
(44,61,o),
(162,-12,o),
(308,-12,cs)
);
}
);
width = 595;
}
);
unicode = 83;
},
{
glyphname = T;
kernLeft = T;
kernRight = T;
lastChange = "2023-01-24 20:07:49 +0000";
layers = (
{
associatedMasterId = "897F30B6-1700-43C7-9C60-A606C7C7F267";
layerId = "02575D39-7864-4EEF-9012-950E1A85E8A1";
name = public.background;
shapes = (
{
closed = 1;
nodes = (
(310,0,l),
(310,641,l),
(504,641,l),
(504,699,l),
(45,699,l),
(45,641,l),
(240,641,l),
(240,0,l)
);
}
);
width = 599;
},
{
anchors = (
{
name = bottom;
pos = (291,0);
},
{
name = top;
pos = (292,700);
}
);
layerId = "BD1314B0-2F62-4F06-89D3-8B766BA843F0";
shapes = (
{
closed = 1;
nodes = (
(364,0,l),
(364,587,l),
(567,587,l),
(567,700,l),
(20,700,l),
(20,587,l),
(224,587,l),
(224,0,l)
);
}
);
width = 587;
},
{
anchors = (
{
name = bottom;
pos = (289,0);
},
{
name = top;
pos = (294,700);
}
);
layerId = "897F30B6-1700-43C7-9C60-A606C7C7F267";
shapes = (
{
closed = 1;
nodes = (
(329,0,l),
(329,642,l),
(539,642,l),
(539,700,l),
(49,700,l),
(49,642,l),
(259,642,l),
(259,0,l)
);
}
);
width = 587;
}
);
unicode = 84;
},
{
glyphname = U;
kernLeft = U;
kernRight = U;
lastChange = "2023-01-24 20:33:24 +0000";
layers = (
{
associatedMasterId = "897F30B6-1700-43C7-9C60-A606C7C7F267";
layerId = "02575D39-7864-4EEF-9012-950E1A85E8A1";
name = public.background;
shapes = (
{
closed = 1;
nodes = (
(466,-7,o),
(578,75,o),
(578,260,cs),
(578,699,l),
(508,699,l),
(508,259,ls),
(508,114,o),
(434,55,o),
(325,55,cs),
(216,55,o),
(140,114,o),
(140,259,cs),
(140,699,l),
(70,699,l),
(70,260,ls),
(70,75,o),
(182,-7,o),
(324,-7,cs)
);
}
);
width = 688;
},
{
anchors = (
{
name = ogonek;
pos = (394,1);
},
{
name = top;
pos = (317,700);
}
);
layerId = "BD1314B0-2F62-4F06-89D3-8B766BA843F0";
shapes = (
{
closed = 1;
nodes = (
(470,-12,o),
(599,80,o),
(599,271,cs),
(599,700,l),
(459,700,l),
(459,270,ls),
(459,168,o),
(406,117,o),
(317,117,cs),
(227,117,o),
(175,168,o),
(175,270,cs),
(175,700,l),
(35,700,l),
(35,271,ls),
(35,80,o),
(158,-12,o),
(314,-12,cs)
);
}
);
width = 634;
},
{
anchors = (
{
name = ogonek;
pos = (385,0);
},
{
name = top;
pos = (316,700);
}
);
layerId = "897F30B6-1700-43C7-9C60-A606C7C7F267";
shapes = (
{
closed = 1;
nodes = (
(459,-12,o),
(571,70,o),
(571,255,cs),
(571,700,l),
(501,700,l),
(501,254,ls),
(501,109,o),
(427,50,o),
(318,50,cs),
(209,50,o),
(133,109,o),
(133,254,cs),
(133,700,l),
(63,700,l),
(63,255,ls),
(63,70,o),
(175,-12,o),
(317,-12,cs)
);
}
);
width = 634;
}
);
unicode = 85;
},
{
glyphname = V;
kernLeft = V;
kernRight = V;
lastChange = "2023-01-24 19:35:08 +0000";
layers = (
{
associatedMasterId = "897F30B6-1700-43C7-9C60-A606C7C7F267";
layerId = "02575D39-7864-4EEF-9012-950E1A85E8A1";
name = public.background;
shapes = (
{
closed = 1;
nodes = (
(369,0,l),
(634,699,l),
(560,699,l),
(329,76,l),
(100,699,l),
(24,699,l),
(289,0,l)
);
}
);
width = 708;
},
{
layerId = "BD1314B0-2F62-4F06-89D3-8B766BA843F0";
shapes = (
{
closed = 1;
nodes = (
(441,0,l),
(695,700,l),
(547,700,l),
(355,143,l),
(164,700,l),
(15,700,l),
(269,0,l)
);
}
);
width = 710;
},
{
layerId = "897F30B6-1700-43C7-9C60-A606C7C7F267";
shapes = (
{
closed = 1;
nodes = (
(395,0,l),
(660,700,l),
(586,700,l),
(355,76,l),
(126,700,l),
(50,700,l),
(315,0,l)
);
}
);
width = 710;
}
);
unicode = 86;
},
{
glyphname = W;
kernLeft = W;
kernRight = W;
lastChange = "2023-01-24 19:35:08 +0000";
layers = (
{
associatedMasterId = "897F30B6-1700-43C7-9C60-A606C7C7F267";
layerId = "02575D39-7864-4EEF-9012-950E1A85E8A1";
name = public.background;
shapes = (
{
closed = 1;
nodes = (
(296,0,l),
(488,634,l),
(465,634,l),
(652,0,l),
(730,0,l),
(928,699,l),
(853,699,l),
(681,42,l),
(705,42,l),
(518,699,l),
(440,699,l),
(248,43,l),
(272,43,l),
(101,699,l),
(26,699,l),
(220,-1,l)
);
}
);
width = 1021;
},
{
anchors = (
{
name = bottom;
pos = (506,0);
},
{
name = top;
pos = (506,700);
}
);
layerId = "BD1314B0-2F62-4F06-89D3-8B766BA843F0";
shapes = (
{
closed = 1;
nodes = (
(369,0,l),
(517,548,l),
(493,548,l),
(637,0,l),
(804,0,l),
(992,700,l),
(841,700,l),
(704,75,l),
(742,75,l),
(584,700,l),
(430,700,l),
(268,76,l),
(306,76,l),
(169,700,l),
(20,700,l),
(203,0,l)
);
}
);
width = 1012;
},
{
anchors = (
{
name = bottom;
pos = (507,0);
},
{
name = top;
pos = (507,700);
}
);
layerId = "897F30B6-1700-43C7-9C60-A606C7C7F267";
shapes = (
{
closed = 1;
nodes = (
(325,0,l),
(517,635,l),
(494,635,l),
(681,0,l),
(759,0,l),
(957,700,l),
(882,700,l),
(710,42,l),
(734,42,l),
(547,700,l),
(469,700,l),
(277,43,l),
(301,43,l),
(130,700,l),
(55,700,l),
(249,0,l)
);
}
);
width = 1012;
}
);
unicode = 87;
},
{
glyphname = X;
lastChange = "2023-01-24 19:35:08 +0000";
layers = (
{
associatedMasterId = "897F30B6-1700-43C7-9C60-A606C7C7F267";
layerId = "02575D39-7864-4EEF-9012-950E1A85E8A1";
name = public.background;
shapes = (
{
closed = 1;
nodes = (
(543,0,l),
(118,699,l),
(40,699,l),
(465,0,l)
);
},
{
closed = 1;
nodes = (
(118,0,l),
(305,323,l),
(265,375,l),
(40,0,l)
);
},
{
closed = 1;
nodes = (
(544,699,l),
(466,699,l),
(280,383,l),
(320,331,l)
);
}
);
width = 675;
},
{
layerId = "BD1314B0-2F62-4F06-89D3-8B766BA843F0";
shapes = (
{
closed = 1;
nodes = (
(627,0,l),
(172,700,l),
(10,700,l),
(465,0,l)
);
},
{
closed = 1;
nodes = (
(172,0,l),
(337,283,l),
(256,391,l),
(13,0,l)
);
},
{
closed = 1;
nodes = (
(621,700,l),
(462,700,l),
(298,420,l),
(378,312,l)
);
}
);
width = 637;
},
{
layerId = "897F30B6-1700-43C7-9C60-A606C7C7F267";
shapes = (
{
closed = 1;
nodes = (
(570,0,l),
(145,700,l),
(67,700,l),
(492,0,l)
);
},
{
closed = 1;
nodes = (
(145,0,l),
(332,323,l),
(292,375,l),
(67,0,l)
);
},
{
closed = 1;
nodes = (
(571,700,l),
(493,700,l),
(307,383,l),
(347,331,l)
);
}
);
width = 637;
}
);
unicode = 88;
},
{
glyphname = Y;
kernLeft = Y;
kernRight = Y;
lastChange = "2023-01-24 20:08:39 +0000";
layers = (
{
associatedMasterId = "897F30B6-1700-43C7-9C60-A606C7C7F267";
layerId = "02575D39-7864-4EEF-9012-950E1A85E8A1";
name = public.background;
shapes = (
{
closed = 1;
nodes = (
(318,0,l),
(318,272,l),
(542,699,l),
(464,699,l),
(267,304,l),
(299,304,l),
(101,699,l),
(22,699,l),
(248,272,l),
(248,0,l)
);
}
);
width = 638;
},
{
anchors = (
{
name = top;
pos = (322,700);
}
);
layerId = "BD1314B0-2F62-4F06-89D3-8B766BA843F0";
shapes = (
{
closed = 1;
nodes = (
(391,0,l),
(391,244,l),
(628,700,l),
(471,700,l),
(304,348,l),
(341,348,l),
(173,700,l),
(14,700,l),
(251,244,l),
(251,0,l)
);
}
);
width = 642;
},
{
anchors = (
{
name = top;
pos = (321,700);
}
);
layerId = "897F30B6-1700-43C7-9C60-A606C7C7F267";
shapes = (
{
closed = 1;
nodes = (
(357,0,l),
(357,272,l),
(591,700,l),
(514,700,l),
(306,304,l),
(338,304,l),
(129,700,l),
(51,700,l),
(287,272,l),
(287,0,l)
);
}
);
width = 642;
}
);
unicode = 89;
},
{
glyphname = Z;
kernLeft = Z;
kernRight = Z;
lastChange = "2023-01-24 19:35:08 +0000";
layers = (
{
associatedMasterId = "897F30B6-1700-43C7-9C60-A606C7C7F267";
layerId = "02575D39-7864-4EEF-9012-950E1A85E8A1";
name = public.background;
shapes = (
{
closed = 1;
nodes = (
(482,0,l),
(482,62,l),
(125,62,l),
(477,643,l),
(477,699,l),
(49,699,l),
(49,637,l),
(395,637,l),
(43,56,l),
(43,0,l)
);
}
);
width = 574;
},
{
anchors = (
{
name = top;
pos = (271,700);
}
);
layerId = "BD1314B0-2F62-4F06-89D3-8B766BA843F0";
shapes = (
{
closed = 1;
nodes = (
(510,0,l),
(510,116,l),
(191,116,l),
(509,593,l),
(509,700,l),
(34,700,l),
(34,584,l),
(348,584,l),
(32,107,l),
(32,0,l)
);
}
);
width = 542;
},
{
anchors = (
{
name = top;
pos = (272,700);
}
);
layerId = "897F30B6-1700-43C7-9C60-A606C7C7F267";
shapes = (
{
closed = 1;
nodes = (
(491,0,l),
(491,62,l),
(134,62,l),
(486,644,l),
(486,700,l),
(58,700,l),
(58,638,l),
(404,638,l),
(52,56,l),
(52,0,l)
);
}
);
width = 542;
}
);
unicode = 90;
},
{
glyphname = a;
kernLeft = a;
kernRight = a;
lastChange = "2023-08-04 13:19:24 +0000";
layers = (
{
associatedMasterId = "897F30B6-1700-43C7-9C60-A606C7C7F267";
layerId = "02575D39-7864-4EEF-9012-950E1A85E8A1";
name = public.background;
shapes = (
{
closed = 1;
nodes = (
(472,0,l),
(472,305,ls),
(472,425,o),
(407,508,o),
(270,508,cs),
(170,508,o),
(71,451,o),
(59,344,c),
(133,344,l),
(145,412,o),
(201,448,o),
(270,448,cs),
(351,448,o),
(402,398,o),
(402,305,cs),
(402,0,l)
);
},
{
closed = 1;
nodes = (
(352,-12,o),
(409,74,o),
(427,158,c),
(402,226,l),
(402,138,o),
(333,50,o),
(233,50,cs),
(157,50,o),
(115,88,o),
(115,144,cs),
(115,199,o),
(154,241,o),
(263,241,cs),
(432,241,l),
(432,301,l),
(258,301,ls),
(129,301,o),
(42,246,o),
(42,142,cs),
(42,60,o),
(101,-12,o),
(226,-12,cs)
);
}
);
width = 557;
},
{
associatedMasterId = "897F30B6-1700-43C7-9C60-A606C7C7F267";
layerId = "6C1A5388-76EA-4812-8815-21936706EF3B";
name = "27 Dec 22 23:44";
shapes = (
{
closed = 1;
nodes = (
(472,100,l),
(472,305,ls),
(472,425,o),
(407,508,o),
(270,508,cs),
(170,508,o),
(71,451,o),
(59,344,c),
(133,344,l),
(145,412,o),
(201,448,o),
(270,448,cs),
(351,448,o),
(402,398,o),
(402,305,cs),
(402,169,l),
(402,100,l)
);
},
{
closed = 1;
nodes = (
(360,-12,o),
(409,74,o),
(427,158,c),
(402,226,l),
(402,138,o),
(341,50,o),
(241,50,cs),
(165,50,o),
(123,88,o),
(123,144,cs),
(123,199,o),
(150,239,o),
(254,239,c),
(360,238,o),
(414,238,o),
(432,237,c),
(422,296,l),
(405,296,o),
(346,296,o),
(229,296,c),
(125,296,o),
(50,246,o),
(50,142,cs),
(50,60,o),
(109,-12,o),
(234,-12,cs)
);
},
{
closed = 1;
nodes = (
(402,23,o),
(457,0,o),
(516,0,cs),
(533,0,l),
(533,60,l),
(526,60,ls),
(496,60,o),
(472,62,o),
(472,135,c),
(472,135,o),
(402,122,o),
(402,122,c)
);
}
);
width = 571;
},
{
anchors = (
{
name = ogonek;
pos = (516,0);
},
{
name = top;
pos = (280,496);
}
);
guides = (
{
pos = (212,344);
}
);
layerId = "BD1314B0-2F62-4F06-89D3-8B766BA843F0";
shapes = (
{
closed = 1;
nodes = (
(503,86,l),
(503,305,ls),
(503,436,o),
(411,508,o),
(262,508,cs),
(141,508,o),
(51,448,o),
(40,342,c),
(171,342,l),
(180,385,o),
(216,398,o),
(262,398,cs),
(321,398,o),
(363,370,o),
(363,305,cs),
(363,88,l)
);
},
{
closed = 1;
nodes = (
(329,-12,o),
(400,69,o),
(418,153,c),
(363,261,l),
(363,172,o),
(329,94,o),
(243,94,cs),
(199,94,o),
(164,117,o),
(164,152,cs),
(164,188,o),
(198,209,o),
(255,209,cs),
(313,209,o),
(373,186,o),
(392,179,c),
(393,269,l),
(378,275,o),
(330,299,o),
(240,299,cs),
(104,299,o),
(23,239,o),
(23,137,cs),
(23,55,o),
(101,-12,o),
(211,-12,cs)
);
},
{
closed = 1;
nodes = (
(552,0,l),
(552,117,l),
(548,117,ls),
(515,117,o),
(503,125,o),
(503,202,c),
(363,155,l),
(363,29,o),
(418,0,o),
(521,0,cs)
);
}
);
width = 573;
},
{
anchors = (
{
name = ogonek;
pos = (537,0);
},
{
name = top;
pos = (272,496);
}
);
guides = (
{
pos = (12,344);
}
);
layerId = "897F30B6-1700-43C7-9C60-A606C7C7F267";
shapes = (
{
closed = 1;
nodes = (
(477,103,l),
(477,305,ls),
(477,425,o),
(412,508,o),
(275,508,cs),
(175,508,o),
(78,461,o),
(66,354,c),
(139,354,l),
(151,422,o),
(205,448,o),
(275,448,cs),
(356,448,o),
(407,398,o),
(407,305,cs),
(407,100,l)
);
},
{
closed = 1;
nodes = (
(365,-12,o),
(417,74,o),
(435,158,c),
(407,226,l),
(407,137,o),
(346,48,o),
(246,48,cs),
(169,48,o),
(126,87,o),
(126,144,cs),
(126,199,o),
(166,246,o),
(276,246,cs),
(345,246,o),
(419,225,o),
(437,216,c),
(437,272,l),
(420,281,o),
(351,305,o),
(271,305,cs),
(142,305,o),
(55,246,o),
(55,142,cs),
(55,60,o),
(114,-12,o),
(239,-12,cs)
);
},
{
closed = 1;
nodes = (
(537,0,l),
(537,63,l),
(529,63,ls),
(489,63,o),
(477,65,o),
(477,138,c),
(407,122,l),
(407,23,o),
(450,0,o),
(522,0,cs)
);
}
);
width = 573;
}
);
unicode = 97;
},
{
glyphname = b;
kernLeft = l;
kernRight = o;
lastChange = "2023-01-24 19:35:08 +0000";
layers = (
{
associatedMasterId = "897F30B6-1700-43C7-9C60-A606C7C7F267";
layerId = "02575D39-7864-4EEF-9012-950E1A85E8A1";
name = public.background;
shapes = (
{
closed = 1;
nodes = (
(477,-12,o),
(573,97,o),
(573,247,cs),
(573,397,o),
(477,508,o),
(327,508,cs),
(233,508,o),
(172,460,o),
(140,410,c),
(140,720,l),
(70,720,l),
(70,0,l),
(140,0,l),
(140,88,l),
(174,25,o),
(242,-12,o),
(326,-12,cs)
);
},
{
closed = 1;
nodes = (
(218,49,o),
(144,128,o),
(144,248,cs),
(144,368,o),
(218,447,o),
(323,447,cs),
(428,447,o),
(502,368,o),
(502,248,cs),
(502,128,o),
(428,49,o),
(323,49,cs)
);
}
);
width = 616;
},
{
layerId = "BD1314B0-2F62-4F06-89D3-8B766BA843F0";
shapes = (
{
closed = 1;
nodes = (
(478,-12,o),
(583,98,o),
(583,247,cs),
(583,396,o),
(478,508,o),
(340,508,cs),
(258,508,o),
(210,471,o),
(178,428,c),
(178,720,l),
(38,720,l),
(38,0,l),
(178,0,l),
(178,64,l),
(212,16,o),
(267,-12,o),
(340,-12,cs)
);
},
{
closed = 1;
nodes = (
(229,110,o),
(174,168,o),
(174,248,cs),
(174,327,o),
(229,386,o),
(307,386,cs),
(385,386,o),
(441,327,o),
(441,247,cs),
(441,168,o),
(385,110,o),
(307,110,cs)
);
}
);
width = 609;
},
{
layerId = "897F30B6-1700-43C7-9C60-A606C7C7F267";
shapes = (
{
closed = 1;
nodes = (
(470,-12,o),
(566,97,o),
(566,247,cs),
(566,397,o),
(470,508,o),
(320,508,cs),
(226,508,o),
(165,460,o),
(133,410,c),
(133,720,l),
(63,720,l),
(63,0,l),
(133,0,l),
(133,88,l),
(167,25,o),
(235,-12,o),
(319,-12,cs)
);
},
{
closed = 1;
nodes = (
(211,49,o),
(137,128,o),
(137,248,cs),
(137,368,o),
(211,447,o),
(316,447,cs),
(421,447,o),
(495,368,o),
(495,248,cs),
(495,128,o),
(421,49,o),
(316,49,cs)
);
}
);
width = 609;
}
);
unicode = 98;
},
{
glyphname = c;
kernLeft = o;
kernRight = c;
lastChange = "2023-01-24 19:35:08 +0000";
layers = (
{
associatedMasterId = "897F30B6-1700-43C7-9C60-A606C7C7F267";
layerId = "02575D39-7864-4EEF-9012-950E1A85E8A1";
name = public.background;
shapes = (
{
closed = 1;
nodes = (
(423,-8,o),
(512,69,o),
(537,178,c),
(462,178,l),
(443,98,o),
(378,51,o),
(286,51,cs),
(179,51,o),
(92,125,o),
(92,273,c),
(92,421,o),
(179,494,o),
(286,494,cs),
(378,494,o),
(444,446,o),
(462,368,c),
(537,368,l),
(512,481,o),
(423,554,o),
(286,554,cs),
(132,554,o),
(21,446,o),
(21,273,c),
(21,100,o),
(132,-8,o),
(286,-8,cs)
);
}
);
width = 580;
},
{
anchors = (
{
name = bottom;
pos = (284,0);
},
{
name = top;
pos = (291,496);
}
);
guides = (
{
pos = (203,344);
}
);
layerId = "BD1314B0-2F62-4F06-89D3-8B766BA843F0";
shapes = (
{
closed = 1;
nodes = (
(416,-12,o),
(511,63,o),
(535,178,c),
(387,178,l),
(375,133,o),
(336,107,o),
(287,107,cs),
(220,107,o),
(169,161,o),
(169,248,cs),
(169,335,o),
(220,388,o),
(287,388,cs),
(336,388,o),
(375,361,o),
(387,318,c),
(535,318,l),
(510,437,o),
(416,508,o),
(288,508,cs),
(134,508,o),
(26,399,o),
(26,248,cs),
(26,96,o),
(134,-12,o),
(288,-12,cs)
);
}
);
width = 561;
},
{
anchors = (
{
name = bottom;
pos = (283,-1);
},
{
name = top;
pos = (288,497);
}
);
guides = (
{
pos = (1,344);
}
);
layerId = "897F30B6-1700-43C7-9C60-A606C7C7F267";
shapes = (
{
closed = 1;
nodes = (
(404,-12,o),
(488,56,o),
(508,152,c),
(438,152,l),
(423,85,o),
(362,48,o),
(288,48,cs),
(199,48,o),
(115,115,o),
(115,248,cs),
(115,381,o),
(199,448,o),
(288,448,cs),
(362,448,o),
(423,410,o),
(438,344,c),
(508,344,l),
(487,443,o),
(404,508,o),
(288,508,cs),
(149,508,o),
(43,405,o),
(43,248,cs),
(43,91,o),
(149,-12,o),
(288,-12,cs)
);
}
);
width = 561;
}
);
unicode = 99;
},
{
glyphname = d;
kernLeft = o;
kernRight = l;
lastChange = "2023-01-24 19:35:08 +0000";
layers = (
{
associatedMasterId = "897F30B6-1700-43C7-9C60-A606C7C7F267";
layerId = "02575D39-7864-4EEF-9012-950E1A85E8A1";
name = public.background;
shapes = (
{
closed = 1;
nodes = (
(361,-12,o),
(422,36,o),
(454,86,c),
(454,0,l),
(524,0,l),
(524,720,l),
(454,720,l),
(454,408,l),
(420,471,o),
(352,508,o),
(268,508,cs),
(117,508,o),
(21,399,o),
(21,249,cs),
(21,99,o),
(117,-12,o),
(267,-12,cs)
);
},
{
closed = 1;
nodes = (
(166,49,o),
(92,128,o),
(92,248,cs),
(92,368,o),
(166,447,o),
(271,447,cs),
(376,447,o),
(450,368,o),
(450,248,cs),
(450,128,o),
(376,49,o),
(271,49,cs)
);
}
);
width = 653;
},
{
anchors = (
{
name = bottom;
pos = (313,0);
},
{
name = center;
pos = (313,248);
},
{
name = top;
pos = (313,720);
},
{
name = topright;
pos = (627,496);
}
);
layerId = "BD1314B0-2F62-4F06-89D3-8B766BA843F0";
shapes = (
{
closed = 1;
nodes = (
(351,-12,o),
(400,25,o),
(431,68,c),
(431,0,l),
(571,0,l),
(571,720,l),
(431,720,l),
(431,432,l),
(397,480,o),
(343,508,o),
(270,508,cs),
(131,508,o),
(26,398,o),
(26,249,cs),
(26,100,o),
(131,-12,o),
(270,-12,cs)
);
},
{
closed = 1;
nodes = (
(225,110,o),
(169,169,o),
(169,249,cs),
(169,328,o),
(225,386,o),
(302,386,cs),
(380,386,o),
(435,328,o),
(435,248,cs),
(435,169,o),
(380,110,o),
(302,110,cs)
);
}
);
width = 609;
},
{
anchors = (
{
name = bottom;
pos = (320,0);
},
{
name = center;
pos = (320,248);
},
{
name = top;
pos = (320,720);
},
{
name = topright;
pos = (610,496);
}
);
layerId = "897F30B6-1700-43C7-9C60-A606C7C7F267";
shapes = (
{
closed = 1;
nodes = (
(383,-12,o),
(444,36,o),
(476,86,c),
(476,0,l),
(546,0,l),
(546,720,l),
(476,720,l),
(476,408,l),
(442,471,o),
(374,508,o),
(290,508,cs),
(139,508,o),
(43,399,o),
(43,249,cs),
(43,99,o),
(139,-12,o),
(289,-12,cs)
);
},
{
closed = 1;
nodes = (
(188,49,o),
(114,128,o),
(114,248,cs),
(114,368,o),
(188,447,o),
(293,447,cs),
(398,447,o),
(472,368,o),
(472,248,cs),
(472,128,o),
(398,49,o),
(293,49,cs)
);
}
);
width = 609;
}
);
unicode = 100;
},
{
glyphname = e;
kernLeft = o;
kernRight = e;
lastChange = "2023-08-08 15:46:58 +0000";
layers = (
{
associatedMasterId = "897F30B6-1700-43C7-9C60-A606C7C7F267";
layerId = "02575D39-7864-4EEF-9012-950E1A85E8A1";
name = public.background;
shapes = (
{
closed = 1;
nodes = (
(377,-12,o),
(452,55,o),
(477,146,c),
(409,146,l),
(387,85,o),
(335,48,o),
(261,48,cs),
(175,48,o),
(89,112,o),
(89,247,cs),
(89,274,ls),
(89,387,o),
(169,448,o),
(260,448,cs),
(351,448,o),
(419,390,o),
(423,293,c),
(75,293,l),
(75,233,l),
(490,233,l),
(491,252,o),
(491,265,o),
(491,279,cs),
(491,398,o),
(407,508,o),
(263,508,cs),
(120,508,o),
(21,407,o),
(21,249,cs),
(21,91,o),
(121,-12,o),
(261,-12,cs)
);
}
);
width = 581;
},
{
anchors = (
{
name = bottom;
pos = (283,-3);
},
{
name = ogonek;
pos = (387,11);
},
{
name = top;
pos = (285,496);
}
);
layerId = "BD1314B0-2F62-4F06-89D3-8B766BA843F0";
shapes = (
{
closed = 1;
nodes = (
(406,-12,o),
(496,62,o),
(525,158,c),
(382,158,l),
(365,125,o),
(332,102,o),
(286,102,cs),
(214,102,o),
(164,152,o),
(164,228,cs),
(164,257,ls),
(164,350,o),
(219,395,o),
(288,395,cs),
(348,395,o),
(393,356,o),
(397,298,c),
(126,298,l),
(126,214,l),
(537,214,l),
(539,231,o),
(539,248,o),
(539,262,cs),
(539,403,o),
(435,508,o),
(287,508,cs),
(130,508,o),
(26,397,o),
(26,243,cs),
(26,92,o),
(133,-12,o),
(287,-12,cs)
);
}
);
width = 564;
},
{
anchors = (
{
name = bottom;
pos = (291,-1);
},
{
name = ogonek;
pos = (399,16);
},
{
name = top;
pos = (289,496);
}
);
layerId = "897F30B6-1700-43C7-9C60-A606C7C7F267";
shapes = (
{
closed = 1;
nodes = (
(399,-12,o),
(474,55,o),
(499,146,c),
(431,146,l),
(409,85,o),
(357,48,o),
(283,48,cs),
(197,48,o),
(111,112,o),
(111,247,cs),
(111,274,ls),
(111,387,o),
(191,448,o),
(282,448,cs),
(373,448,o),
(441,390,o),
(445,293,c),
(97,293,l),
(97,233,l),
(512,233,l),
(513,252,o),
(513,265,o),
(513,279,cs),
(513,398,o),
(429,508,o),
(285,508,cs),
(142,508,o),
(43,407,o),
(43,249,cs),
(43,91,o),
(143,-12,o),
(283,-12,cs)
);
}
);
width = 564;
}
);
unicode = 101;
},
{
glyphname = f;
lastChange = "2023-01-24 19:35:08 +0000";
layers = (
{
associatedMasterId = "897F30B6-1700-43C7-9C60-A606C7C7F267";
layerId = "02575D39-7864-4EEF-9012-950E1A85E8A1";
name = public.background;
shapes = (
{
closed = 1;
nodes = (
(168,0,l),
(168,584,ls),
(168,663,o),
(198,697,o),
(291,697,c),
(291,757,l),
(153,757,o),
(98,701,o),
(98,584,cs),
(98,0,l)
);
},
{
closed = 1;
nodes = (
(295,487,l),
(295,546,l),
(22,546,l),
(22,487,l)
);
}
);
width = 367;
},
{
layerId = "BD1314B0-2F62-4F06-89D3-8B766BA843F0";
shapes = (
{
closed = 1;
nodes = (
(223,0,l),
(223,546,ls),
(223,590,o),
(234,601,o),
(281,601,cs),
(316,601,l),
(316,720,l),
(253,720,ls),
(129,720,o),
(83,700,o),
(83,554,cs),
(83,0,l)
);
},
{
closed = 1;
nodes = (
(316,379,l),
(316,496,l),
(16,496,l),
(16,379,l)
);
}
);
width = 344;
},
{
layerId = "897F30B6-1700-43C7-9C60-A606C7C7F267";
shapes = (
{
closed = 1;
nodes = (
(183,0,l),
(183,588,ls),
(183,649,o),
(196,660,o),
(256,660,cs),
(295,660,l),
(295,720,l),
(245,720,ls),
(149,720,o),
(113,690,o),
(113,594,cs),
(113,0,l)
);
},
{
closed = 1;
nodes = (
(295,436,l),
(295,496,l),
(37,496,l),
(37,436,l)
);
}
);
width = 344;
}
);
unicode = 102;
},
{
glyphname = g;
kernLeft = g;
kernRight = g;
lastChange = "2023-01-24 20:42:32 +0000";
layers = (
{
associatedMasterId = "897F30B6-1700-43C7-9C60-A606C7C7F267";
layerId = "02575D39-7864-4EEF-9012-950E1A85E8A1";
name = public.background;
shapes = (
{
closed = 1;
nodes = (
(414,-232,o),
(482,-145,o),
(482,-63,cs),
(482,7,o),
(441,64,o),
(325,87,cs),
(107,131,l),
(109,93,l),
(200,187,l),
(136,211,l),
(52,115,l),
(52,76,l),
(279,32,ls),
(387,11,o),
(410,-17,o),
(410,-64,cs),
(410,-129,o),
(352,-172,o),
(264,-172,cs),
(173,-172,o),
(108,-141,o),
(108,-69,cs),
(108,-32,o),
(125,24,o),
(205,57,c),
(147,80,l),
(58,38,o),
(36,-30,o),
(36,-76,cs),
(36,-186,o),
(131,-232,o),
(264,-232,cs)
);
},
{
closed = 1;
nodes = (
(381,158,o),
(457,236,o),
(457,333,cs),
(457,430,o),
(381,508,o),
(262,508,cs),
(142,508,o),
(66,430,o),
(66,333,cs),
(66,236,o),
(142,158,o),
(262,158,cs)
);
},
{
closed = 1;
nodes = (
(191,218,o),
(137,259,o),
(137,333,cs),
(137,407,o),
(191,448,o),
(262,448,cs),
(332,448,o),
(386,407,o),
(386,333,cs),
(386,259,o),
(332,218,o),
(262,218,cs)
);
},
{
closed = 1;
nodes = (
(521,436,l),
(521,496,l),
(316,496,l),
(342,436,l)
);
}
);
width = 668;
},
{
anchors = (
{
name = top;
pos = (301,496);
}
);
layerId = "BD1314B0-2F62-4F06-89D3-8B766BA843F0";
shapes = (
{
closed = 1;
nodes = (
(475,-232,o),
(599,-143,o),
(599,31,cs),
(599,496,l),
(459,496,l),
(459,431,l),
(425,475,o),
(367,508,o),
(294,508,cs),
(152,508,o),
(45,398,o),
(45,254,cs),
(45,109,o),
(152,-1,o),
(294,-1,cs),
(375,-1,o),
(429,37,o),
(459,83,c),
(459,23,ls),
(459,-69,o),
(398,-111,o),
(328,-111,cs),
(262,-111,o),
(210,-80,o),
(200,-29,c),
(61,-29,l),
(77,-174,o),
(206,-232,o),
(331,-232,cs)
);
},
{
closed = 1;
nodes = (
(243,120,o),
(188,179,o),
(188,254,cs),
(188,329,o),
(243,386,o),
(323,386,cs),
(404,386,o),
(458,329,o),
(458,253,cs),
(458,179,o),
(404,120,o),
(323,120,cs)
);
}
);
width = 636;
},
{
anchors = (
{
name = top;
pos = (310,496);
}
);
guides = (
{
pos = (0,312);
}
);
layerId = "897F30B6-1700-43C7-9C60-A606C7C7F267";
shapes = (
{
closed = 1;
nodes = (
(466,-232,o),
(569,-131,o),
(569,29,cs),
(569,496,l),
(499,496,l),
(499,401,l),
(464,460,o),
(392,508,o),
(300,508,cs),
(160,508,o),
(49,399,o),
(49,249,cs),
(49,99,o),
(160,-12,o),
(299,-12,cs),
(401,-12,o),
(467,46,o),
(499,104,c),
(499,29,ls),
(499,-102,o),
(420,-171,o),
(316,-171,cs),
(226,-171,o),
(157,-120,o),
(134,-46,c),
(65,-46,l),
(87,-160,o),
(185,-232,o),
(316,-232,cs)
);
},
{
closed = 1;
nodes = (
(202,49,o),
(121,130,o),
(121,249,cs),
(121,369,o),
(202,447,o),
(308,447,cs),
(414,447,o),
(495,369,o),
(495,249,cs),
(495,130,o),
(414,49,o),
(308,49,cs)
);
}
);
width = 636;
}
);
unicode = 103;
},
{
glyphname = h;
kernLeft = l;
kernRight = n;
lastChange = "2023-08-04 13:30:07 +0000";
layers = (
{
associatedMasterId = "897F30B6-1700-43C7-9C60-A606C7C7F267";
layerId = "02575D39-7864-4EEF-9012-950E1A85E8A1";
name = public.background;
shapes = (
{
closed = 1;
nodes = (
(548,0,l),
(548,320,ls),
(548,480,o),
(451,556,o),
(330,556,c),
(224,556,o),
(136,498,o),
(120,389,c),
(140,298,l),
(140,431,o),
(211,495,o),
(313,495,c),
(413,495,o),
(479,433,o),
(479,312,cs),
(479,0,l)
);
},
{
closed = 1;
nodes = (
(140,0,l),
(140,740,l),
(70,740,l),
(70,0,l)
);
}
);
width = 664;
},
{
anchors = (
{
name = bottom;
pos = (285,0);
},
{
name = center;
pos = (284,360);
},
{
name = top;
pos = (106,720);
}
);
layerId = "BD1314B0-2F62-4F06-89D3-8B766BA843F0";
shapes = (
{
closed = 1;
nodes = (
(533,0,l),
(533,277,ls),
(533,426,o),
(464,508,o),
(340,508,cs),
(245,508,o),
(177,453,o),
(155,375,c),
(176,256,l),
(176,340,o),
(225,390,o),
(293,390,cs),
(364,390,o),
(394,345,o),
(394,264,cs),
(394,0,l)
);
},
{
closed = 1;
nodes = (
(176,0,l),
(176,720,l),
(36,720,l),
(36,0,l)
);
}
);
width = 569;
},
{
anchors = (
{
name = bottom;
pos = (288,0);
},
{
name = center;
pos = (285,360);
},
{
name = top;
pos = (114,720);
}
);
layerId = "897F30B6-1700-43C7-9C60-A606C7C7F267";
shapes = (
{
closed = 1;
nodes = (
(497,0,l),
(497,293,ls),
(497,441,o),
(420,508,o),
(308,508,cs),
(216,508,o),
(131,447,o),
(115,349,c),
(135,257,l),
(135,380,o),
(206,447,o),
(297,447,cs),
(383,447,o),
(428,394,o),
(428,285,cs),
(428,0,l)
);
},
{
closed = 1;
nodes = (
(135,0,l),
(135,720,l),
(65,720,l),
(65,0,l)
);
}
);
width = 569;
}
);
unicode = 104;
},
{
glyphname = i;
kernLeft = i;
kernRight = i;
lastChange = "2023-01-24 20:35:13 +0000";
layers = (
{
associatedMasterId = "897F30B6-1700-43C7-9C60-A606C7C7F267";
layerId = "02575D39-7864-4EEF-9012-950E1A85E8A1";
name = public.background;
shapes = (
{
closed = 1;
nodes = (
(150,0,l),
(150,518,l),
(80,518,l),
(80,0,l)
);
},
{
closed = 1;
nodes = (
(143,605,o),
(166,627,o),
(166,657,cs),
(166,687,o),
(143,708,o),
(115,708,cs),
(87,708,o),
(64,687,o),
(64,657,cs),
(64,627,o),
(87,605,o),
(115,605,cs)
);
}
);
width = 275;
},
{
anchors = (
{
name = ogonek;
pos = (186,0);
}
);
layerId = "BD1314B0-2F62-4F06-89D3-8B766BA843F0";
shapes = (
{
ref = idotless;
},
{
pos = (42,0);
ref = dotaccentcomb;
}
);
width = 212;
},
{
anchors = (
{
name = ogonek;
pos = (136,1);
}
);
layerId = "897F30B6-1700-43C7-9C60-A606C7C7F267";
shapes = (
{
ref = idotless;
},
{
pos = (54,0);
ref = dotaccentcomb;
}
);
width = 212;
}
);
unicode = 105;
},
{
glyphname = j;
lastChange = "2023-01-24 20:43:23 +0000";
layers = (
{
associatedMasterId = "897F30B6-1700-43C7-9C60-A606C7C7F267";
layerId = "02575D39-7864-4EEF-9012-950E1A85E8A1";
name = public.background;
shapes = (
{
closed = 1;
nodes = (
(102,-232,o),
(154,-191,o),
(154,-88,cs),
(154,496,l),
(84,496,l),
(84,-87,ls),
(84,-147,o),
(57,-172,o),
(16,-172,cs),
(-6,-172,o),
(-27,-168,o),
(-44,-161,c),
(-44,-221,l),
(-23,-228,o),
(0,-232,o),
(25,-232,cs)
);
},
{
closed = 1;
nodes = (
(148,617,o),
(170,639,o),
(170,669,cs),
(170,699,o),
(148,720,o),
(120,720,cs),
(92,720,o),
(69,699,o),
(69,669,cs),
(69,639,o),
(92,617,o),
(120,617,cs)
);
}
);
width = 276;
},
{
layerId = "BD1314B0-2F62-4F06-89D3-8B766BA843F0";
shapes = (
{
ref = jdotless;
},
{
pos = (69,0);
ref = dotaccentcomb;
}
);
width = 267;
},
{
layerId = "897F30B6-1700-43C7-9C60-A606C7C7F267";
shapes = (
{
ref = jdotless;
},
{
pos = (83,0);
ref = dotaccentcomb;
}
);
width = 267;
}
);
unicode = 106;
},
{
glyphname = k;
kernLeft = l;
kernRight = k;
lastChange = "2023-08-04 13:28:52 +0000";
layers = (
{
associatedMasterId = "897F30B6-1700-43C7-9C60-A606C7C7F267";
layerId = "02575D39-7864-4EEF-9012-950E1A85E8A1";
name = public.background;
shapes = (
{
closed = 1;
nodes = (
(452,0,l),
(177,297,l),
(176,250,l),
(425,496,l),
(338,496,l),
(114,273,l),
(361,0,l)
);
},
{
closed = 1;
nodes = (
(140,0,l),
(140,720,l),
(70,720,l),
(70,0,l)
);
}
);
width = 484;
},
{
anchors = (
{
name = bottom;
pos = (250,0);
}
);
layerId = "BD1314B0-2F62-4F06-89D3-8B766BA843F0";
shapes = (
{
closed = 1;
nodes = (
(498,496,l),
(335,496,l),
(91,215,l),
(159,135,l)
);
},
{
closed = 1;
nodes = (
(166,0,l),
(166,720,l),
(26,720,l),
(26,0,l)
);
},
{
closed = 1;
nodes = (
(534,0,l),
(260,326,l),
(176,243,l),
(363,0,l)
);
}
);
width = 540;
},
{
anchors = (
{
name = bottom;
pos = (229,0);
}
);
layerId = "897F30B6-1700-43C7-9C60-A606C7C7F267";
shapes = (
{
closed = 1;
nodes = (
(467,496,l),
(378,496,l),
(114,253,l),
(124,179,l)
);
},
{
closed = 1;
nodes = (
(136,0,l),
(136,720,l),
(66,720,l),
(66,0,l)
);
},
{
closed = 1;
nodes = (
(492,0,l),
(235,322,l),
(189,273,l),
(401,0,l)
);
}
);
width = 540;
}
);
unicode = 107;
},
{
glyphname = l;
kernLeft = l;
kernRight = l;
lastChange = "2023-01-24 20:59:23 +0000";
layers = (
{
associatedMasterId = "897F30B6-1700-43C7-9C60-A606C7C7F267";
layerId = "02575D39-7864-4EEF-9012-950E1A85E8A1";
name = public.background;
shapes = (
{
closed = 1;
nodes = (
(140,0,l),
(140,700,l),
(70,700,l),
(70,0,l)
);
}
);
width = 269;
},
{
anchors = (
{
name = bottom;
pos = (119,0);
},
{
name = commaaccent;
pos = (119,10);
},
{
name = top;
pos = (119,720);
},
{
name = topright;
pos = (243,554);
}
);
layerId = "BD1314B0-2F62-4F06-89D3-8B766BA843F0";
shapes = (
{
closed = 1;
nodes = (
(188,0,l),
(188,720,l),
(48,720,l),
(48,0,l)
);
}
);
width = 236;
},
{
anchors = (
{
name = bottom;
pos = (111,0);
},
{
name = commaaccent;
pos = (111,10);
},
{
name = top;
pos = (121,720);
},
{
name = topright;
pos = (201,546);
}
);
layerId = "897F30B6-1700-43C7-9C60-A606C7C7F267";
shapes = (
{
closed = 1;
nodes = (
(153,0,l),
(153,720,l),
(83,720,l),
(83,0,l)
);
}
);
width = 236;
}
);
unicode = 108;
},
{
glyphname = m;
kernLeft = n;
kernRight = n;
lastChange = "2023-01-24 19:35:08 +0000";
layers = (
{
associatedMasterId = "897F30B6-1700-43C7-9C60-A606C7C7F267";
layerId = "02575D39-7864-4EEF-9012-950E1A85E8A1";
name = public.background;
shapes = (
{
closed = 1;
nodes = (
(824,0,l),
(824,293,ls),
(824,441,o),
(745,508,o),
(630,508,cs),
(541,508,o),
(457,447,o),
(441,349,c),
(482,257,l),
(482,380,o),
(545,447,o),
(628,447,cs),
(708,447,o),
(754,394,o),
(754,285,cs),
(754,0,l)
);
},
{
closed = 1;
nodes = (
(140,0,l),
(140,496,l),
(70,496,l),
(70,0,l)
);
},
{
closed = 1;
nodes = (
(482,0,l),
(482,293,ls),
(482,439,o),
(407,508,o),
(293,508,cs),
(201,508,o),
(129,448,o),
(114,350,c),
(140,257,l),
(140,380,o),
(203,447,o),
(286,447,cs),
(366,447,o),
(412,394,o),
(412,285,cs),
(412,0,l)
);
}
);
width = 940;
},
{
layerId = "BD1314B0-2F62-4F06-89D3-8B766BA843F0";
shapes = (
{
closed = 1;
nodes = (
(863,0,l),
(863,277,ls),
(863,426,o),
(793,508,o),
(661,508,cs),
(569,508,o),
(493,455,o),
(464,377,c),
(520,256,l),
(520,340,o),
(563,390,o),
(628,390,cs),
(694,390,o),
(724,345,o),
(724,264,cs),
(724,0,l)
);
},
{
closed = 1;
nodes = (
(176,0,l),
(176,496,l),
(36,496,l),
(36,0,l)
);
},
{
closed = 1;
nodes = (
(520,0,l),
(520,277,ls),
(520,426,o),
(451,508,o),
(327,508,cs),
(232,508,o),
(168,453,o),
(146,375,c),
(176,256,l),
(176,340,o),
(219,390,o),
(283,390,cs),
(350,390,o),
(381,345,o),
(381,264,cs),
(381,0,l)
);
}
);
width = 899;
},
{
layerId = "897F30B6-1700-43C7-9C60-A606C7C7F267";
shapes = (
{
closed = 1;
nodes = (
(826,0,l),
(826,293,ls),
(826,441,o),
(747,508,o),
(632,508,cs),
(543,508,o),
(459,447,o),
(443,349,c),
(484,257,l),
(484,380,o),
(547,447,o),
(630,447,cs),
(710,447,o),
(756,394,o),
(756,285,cs),
(756,0,l)
);
},
{
closed = 1;
nodes = (
(142,0,l),
(142,496,l),
(72,496,l),
(72,0,l)
);
},
{
closed = 1;
nodes = (
(484,0,l),
(484,293,ls),
(484,439,o),
(409,508,o),
(295,508,cs),
(203,508,o),
(131,448,o),
(116,350,c),
(142,257,l),
(142,380,o),
(205,447,o),
(288,447,cs),
(368,447,o),
(414,394,o),
(414,285,cs),
(414,0,l)
);
}
);
width = 899;
}
);
unicode = 109;
},
{
glyphname = n;
kernLeft = n;
kernRight = n;
lastChange = "2023-08-04 13:18:47 +0000";
layers = (
{
associatedMasterId = "897F30B6-1700-43C7-9C60-A606C7C7F267";
layerId = "02575D39-7864-4EEF-9012-950E1A85E8A1";
name = public.background;
shapes = (
{
closed = 1;
nodes = (
(502,0,l),
(502,293,ls),
(502,441,o),
(425,508,o),
(310,508,cs),
(215,508,o),
(136,447,o),
(120,349,c),
(140,257,l),
(140,380,o),
(207,447,o),
(298,447,cs),
(384,447,o),
(432,394,o),
(432,285,cs),
(432,0,l)
);
},
{
closed = 1;
nodes = (
(140,0,l),
(140,496,l),
(70,496,l),
(70,0,l)
);
}
);
width = 618;
},
{
anchors = (
{
name = bottom;
pos = (285,0);
},
{
name = top;
pos = (313,496);
}
);
layerId = "BD1314B0-2F62-4F06-89D3-8B766BA843F0";
shapes = (
{
closed = 1;
nodes = (
(533,0,l),
(533,277,ls),
(533,426,o),
(464,508,o),
(339,508,cs),
(243,508,o),
(177,453,o),
(155,375,c),
(176,256,l),
(176,340,o),
(224,390,o),
(291,390,cs),
(362,390,o),
(393,345,o),
(393,264,cs),
(393,0,l)
);
},
{
closed = 1;
nodes = (
(176,0,l),
(176,496,l),
(36,496,l),
(36,0,l)
);
}
);
width = 569;
},
{
anchors = (
{
name = bottom;
pos = (286,0);
},
{
name = top;
pos = (300,496);
}
);
layerId = "897F30B6-1700-43C7-9C60-A606C7C7F267";
shapes = (
{
closed = 1;
nodes = (
(501,0,l),
(501,293,ls),
(501,441,o),
(424,508,o),
(309,508,cs),
(214,508,o),
(135,447,o),
(119,349,c),
(139,257,l),
(139,380,o),
(206,447,o),
(297,447,cs),
(383,447,o),
(431,394,o),
(431,285,cs),
(431,0,l)
);
},
{
closed = 1;
nodes = (
(139,0,l),
(139,496,l),
(69,496,l),
(69,0,l)
);
}
);
width = 569;
}
);
unicode = 110;
},
{
glyphname = o;
kernLeft = o;
kernRight = o;
lastChange = "2023-01-24 20:16:12 +0000";
layers = (
{
associatedMasterId = "897F30B6-1700-43C7-9C60-A606C7C7F267";
layerId = "02575D39-7864-4EEF-9012-950E1A85E8A1";
name = public.background;
shapes = (
{
closed = 1;
nodes = (
(446,-8,o),
(567,100,o),
(567,273,c),
(567,447,o),
(448,554,o),
(294,554,c),
(141,554,o),
(21,447,o),
(21,273,c),
(21,100,o),
(138,-8,o),
(292,-8,c)
);
},
{
closed = 1;
nodes = (
(188,53,o),
(92,123,o),
(92,273,c),
(92,423,o),
(189,493,o),
(293,493,c),
(397,493,o),
(495,423,o),
(495,273,c),
(495,123,o),
(395,53,o),
(292,53,c)
);
}
);
width = 610;
},
{
anchors = (
{
name = bottom;
pos = (282,0);
},
{
name = center;
pos = (282,248);
},
{
name = ogonek;
pos = (350,0);
},
{
name = top;
pos = (282,496);
},
{
name = topright;
pos = (567,496);
}
);
layerId = "BD1314B0-2F62-4F06-89D3-8B766BA843F0";
shapes = (
{
closed = 1;
nodes = (
(426,-12,o),
(538,95,o),
(538,248,cs),
(538,401,o),
(426,508,o),
(282,508,cs),
(139,508,o),
(26,401,o),
(26,248,cs),
(26,95,o),
(138,-12,o),
(282,-12,cs)
);
},
{
closed = 1;
nodes = (
(220,109,o),
(169,156,o),
(169,248,cs),
(169,340,o),
(221,387,o),
(282,387,cs),
(344,387,o),
(395,340,o),
(395,248,cs),
(395,156,o),
(344,109,o),
(282,109,cs)
);
}
);
width = 564;
},
{
anchors = (
{
name = bottom;
pos = (282,0);
},
{
name = center;
pos = (282,248);
},
{
name = ogonek;
pos = (344,0);
},
{
name = top;
pos = (283,496);
},
{
name = topright;
pos = (556,496);
}
);
layerId = "897F30B6-1700-43C7-9C60-A606C7C7F267";
shapes = (
{
closed = 1;
nodes = (
(420,-12,o),
(528,89,o),
(528,248,cs),
(528,407,o),
(422,508,o),
(283,508,cs),
(144,508,o),
(36,407,o),
(36,248,cs),
(36,89,o),
(142,-12,o),
(281,-12,cs)
);
},
{
closed = 1;
nodes = (
(191,48,o),
(108,115,o),
(108,248,cs),
(108,381,o),
(192,448,o),
(283,448,cs),
(373,448,o),
(456,381,o),
(456,248,cs),
(456,115,o),
(372,48,o),
(281,48,cs)
);
}
);
width = 564;
}
);
unicode = 111;
},
{
glyphname = p;
kernRight = o;
lastChange = "2023-01-24 19:35:08 +0000";
layers = (
{
associatedMasterId = "897F30B6-1700-43C7-9C60-A606C7C7F267";
layerId = "02575D39-7864-4EEF-9012-950E1A85E8A1";
name = public.background;
shapes = (
{
closed = 1;
nodes = (
(140,-220,l),
(140,88,l),
(174,25,o),
(242,-12,o),
(326,-12,cs),
(477,-12,o),
(573,97,o),
(573,247,cs),
(573,397,o),
(477,508,o),
(327,508,cs),
(233,508,o),
(172,460,o),
(140,410,c),
(140,496,l),
(70,496,l),
(70,-220,l)
);
},
{
closed = 1;
nodes = (
(218,49,o),
(144,128,o),
(144,248,cs),
(144,368,o),
(218,447,o),
(323,447,cs),
(428,447,o),
(502,368,o),
(502,248,cs),
(502,128,o),
(428,49,o),
(323,49,cs)
);
}
);
width = 616;
},
{
layerId = "BD1314B0-2F62-4F06-89D3-8B766BA843F0";
shapes = (
{
closed = 1;
nodes = (
(178,-220,l),
(178,64,l),
(212,16,o),
(267,-12,o),
(340,-12,cs),
(478,-12,o),
(583,98,o),
(583,247,cs),
(583,396,o),
(478,508,o),
(340,508,cs),
(258,508,o),
(210,471,o),
(178,428,c),
(178,496,l),
(38,496,l),
(38,-220,l)
);
},
{
closed = 1;
nodes = (
(229,110,o),
(174,168,o),
(174,248,cs),
(174,327,o),
(229,386,o),
(307,386,cs),
(385,386,o),
(441,327,o),
(441,247,cs),
(441,168,o),
(385,110,o),
(307,110,cs)
);
}
);
width = 609;
},
{
layerId = "897F30B6-1700-43C7-9C60-A606C7C7F267";
shapes = (
{
closed = 1;
nodes = (
(133,-220,l),
(133,88,l),
(167,25,o),
(235,-12,o),
(319,-12,cs),
(470,-12,o),
(566,97,o),
(566,247,cs),
(566,397,o),
(470,508,o),
(320,508,cs),
(226,508,o),
(165,460,o),
(133,410,c),
(133,496,l),
(63,496,l),
(63,-220,l)
);
},
{
closed = 1;
nodes = (
(211,49,o),
(137,128,o),
(137,248,cs),
(137,368,o),
(211,447,o),
(316,447,cs),
(421,447,o),
(495,368,o),
(495,248,cs),
(495,128,o),
(421,49,o),
(316,49,cs)
);
}
);
width = 609;
}
);
unicode = 112;
},
{
glyphname = q;
kernLeft = o;
lastChange = "2023-01-24 19:35:08 +0000";
layers = (
{
associatedMasterId = "897F30B6-1700-43C7-9C60-A606C7C7F267";
layerId = "02575D39-7864-4EEF-9012-950E1A85E8A1";
name = public.background;
shapes = (
{
closed = 1;
nodes = (
(524,-220,l),
(524,496,l),
(454,496,l),
(454,408,l),
(420,471,o),
(352,508,o),
(268,508,cs),
(117,508,o),
(21,399,o),
(21,249,cs),
(21,99,o),
(117,-12,o),
(267,-12,cs),
(361,-12,o),
(422,36,o),
(454,86,c),
(454,-220,l)
);
},
{
closed = 1;
nodes = (
(166,49,o),
(92,128,o),
(92,248,cs),
(92,368,o),
(166,447,o),
(271,447,cs),
(376,447,o),
(450,368,o),
(450,248,cs),
(450,128,o),
(376,49,o),
(271,49,cs)
);
}
);
width = 653;
},
{
layerId = "BD1314B0-2F62-4F06-89D3-8B766BA843F0";
shapes = (
{
closed = 1;
nodes = (
(571,-220,l),
(571,496,l),
(431,496,l),
(431,432,l),
(397,480,o),
(343,508,o),
(270,508,cs),
(131,508,o),
(26,398,o),
(26,249,cs),
(26,100,o),
(131,-12,o),
(270,-12,cs),
(351,-12,o),
(400,25,o),
(431,68,c),
(431,-220,l)
);
},
{
closed = 1;
nodes = (
(225,110,o),
(169,169,o),
(169,249,cs),
(169,328,o),
(225,386,o),
(302,386,cs),
(380,386,o),
(435,328,o),
(435,248,cs),
(435,169,o),
(380,110,o),
(302,110,cs)
);
}
);
width = 609;
},
{
layerId = "897F30B6-1700-43C7-9C60-A606C7C7F267";
shapes = (
{
closed = 1;
nodes = (
(546,-220,l),
(546,496,l),
(476,496,l),
(476,408,l),
(442,471,o),
(374,508,o),
(290,508,cs),
(139,508,o),
(43,399,o),
(43,249,cs),
(43,99,o),
(139,-12,o),
(289,-12,cs),
(383,-12,o),
(444,36,o),
(476,86,c),
(476,-220,l)
);
},
{
closed = 1;
nodes = (
(188,49,o),
(114,128,o),
(114,248,cs),
(114,368,o),
(188,447,o),
(293,447,cs),
(398,447,o),
(472,368,o),
(472,248,cs),
(472,128,o),
(398,49,o),
(293,49,cs)
);
}
);
width = 609;
}
);
unicode = 113;
},
{
glyphname = r;
kernLeft = n;
kernRight = r;
lastChange = "2023-01-24 19:36:07 +0000";
layers = (
{
associatedMasterId = "897F30B6-1700-43C7-9C60-A606C7C7F267";
layerId = "02575D39-7864-4EEF-9012-950E1A85E8A1";
name = public.background;
shapes = (
{
closed = 1;
nodes = (
(140,0,l),
(140,496,l),
(70,496,l),
(70,0,l)
);
},
{
closed = 1;
nodes = (
(140,257,l),
(140,394,o),
(217,435,o),
(308,435,cs),
(327,435,l),
(327,508,l),
(187,508,o),
(118,420,o),
(118,287,c)
);
}
);
width = 353;
},
{
anchors = (
{
name = bottom;
pos = (105,0);
},
{
name = top;
pos = (217,496);
}
);
layerId = "BD1314B0-2F62-4F06-89D3-8B766BA843F0";
shapes = (
{
closed = 1;
nodes = (
(176,0,l),
(176,496,l),
(36,496,l),
(36,0,l)
);
},
{
closed = 1;
nodes = (
(176,318,o),
(205,377,o),
(280,377,cs),
(355,377,l),
(355,501,l),
(294,501,ls),
(196,501,o),
(139,387,o),
(139,253,c),
(176,210,l)
);
}
);
width = 381;
},
{
anchors = (
{
name = bottom;
pos = (106,0);
},
{
name = top;
pos = (211,496);
}
);
layerId = "897F30B6-1700-43C7-9C60-A606C7C7F267";
shapes = (
{
closed = 1;
nodes = (
(139,0,l),
(139,496,l),
(69,496,l),
(69,0,l)
);
},
{
closed = 1;
nodes = (
(139,384,o),
(188,432,o),
(249,432,cs),
(336,432,l),
(336,499,l),
(256,499,ls),
(156,499,o),
(117,410,o),
(117,277,c),
(139,247,l)
);
}
);
width = 381;
}
);
metricLeft = n;
unicode = 114;
},
{
color = 0;
glyphname = s;
kernLeft = s;
kernRight = s;
lastChange = "2023-01-26 17:55:05 +0000";
layers = (
{
associatedMasterId = "897F30B6-1700-43C7-9C60-A606C7C7F267";
layerId = "02575D39-7864-4EEF-9012-950E1A85E8A1";
name = public.background;
shapes = (
{
closed = 1;
nodes = (
(368,-8,o),
(445,57,o),
(445,145,c),
(442,338,o),
(119,259,o),
(119,407,c),
(119,455,o),
(165,494,o),
(238,494,cs),
(321,494,o),
(366,448,o),
(370,387,c),
(440,387,l),
(434,492,o),
(357,554,o),
(240,554,cs),
(125,554,o),
(48,487,o),
(48,406,c),
(48,201,o),
(376,280,o),
(376,145,c),
(376,93,o),
(332,51,o),
(254,51,cs),
(165,51,o),
(113,94,o),
(107,154,c),
(35,154,l),
(44,54,o),
(131,-8,o),
(255,-8,cs)
);
}
);
width = 532;
},
{
anchors = (
{
name = bottom;
pos = (250,0);
},
{
name = top;
pos = (250,496);
}
);
guides = (
{
pos = (210,357);
}
);
layerId = "BD1314B0-2F62-4F06-89D3-8B766BA843F0";
shapes = (
{
closed = 1;
nodes = (
(398,-12,o),
(475,56,o),
(475,156,cs),
(475,258,o),
(398,289,o),
(317,301,cs),
(296,304,o),
(247,311,o),
(230,314,cs),
(189,321,o),
(168,333,o),
(168,356,cs),
(168,381,o),
(193,401,o),
(244,401,cs),
(285,401,o),
(322,382,o),
(326,346,c),
(461,346,l),
(451,447,o),
(373,508,o),
(243,508,cs),
(113,508,o),
(46,438,o),
(46,349,cs),
(46,261,o),
(112,215,o),
(197,199,cs),
(217,195,o),
(256,189,o),
(275,186,cs),
(308,181,o),
(346,175,o),
(346,144,cs),
(346,116,o),
(316,94,o),
(262,94,cs),
(213,94,o),
(173,119,o),
(164,158,c),
(21,158,l),
(31,56,o),
(123,-12,o),
(257,-12,cs)
);
}
);
width = 495;
},
{
anchors = (
{
name = bottom;
pos = (254,0);
},
{
name = top;
pos = (253,496);
}
);
guides = (
{
pos = (17,357);
}
);
layerId = "897F30B6-1700-43C7-9C60-A606C7C7F267";
shapes = (
{
closed = 1;
nodes = (
(370,-12,o),
(446,54,o),
(446,144,cs),
(446,244,o),
(353,264,o),
(298,274,cs),
(273,279,o),
(248,283,o),
(223,288,cs),
(165,299,o),
(135,325,o),
(135,369,cs),
(135,416,o),
(181,447,o),
(241,447,cs),
(308,447,o),
(355,422,o),
(361,357,c),
(432,357,l),
(421,465,o),
(344,508,o),
(243,508,cs),
(136,508,o),
(66,445,o),
(66,361,cs),
(66,269,o),
(145,234,o),
(208,222,cs),
(236,217,o),
(263,211,o),
(291,206,cs),
(332,198,o),
(377,190,o),
(377,138,cs),
(377,86,o),
(334,49,o),
(259,49,cs),
(176,49,o),
(123,88,o),
(112,154,c),
(39,154,l),
(53,40,o),
(141,-12,o),
(257,-12,cs)
);
}
);
width = 495;
}
);
unicode = 115;
},
{
glyphname = t;
kernLeft = t;
kernRight = t;
lastChange = "2023-01-24 19:35:08 +0000";
layers = (
{
associatedMasterId = "897F30B6-1700-43C7-9C60-A606C7C7F267";
layerId = "02575D39-7864-4EEF-9012-950E1A85E8A1";
name = public.background;
shapes = (
{
closed = 1;
nodes = (
(331,0,l),
(331,60,l),
(282,60,ls),
(214,60,o),
(190,78,o),
(190,145,cs),
(190,436,l),
(340,436,l),
(340,496,l),
(190,496,l),
(190,621,l),
(120,596,l),
(120,496,l),
(34,496,l),
(34,436,l),
(120,436,l),
(120,145,ls),
(120,36,o),
(171,0,o),
(258,0,cs)
);
}
);
width = 416;
},
{
anchors = (
{
name = bottom;
pos = (247,0);
},
{
name = topright;
pos = (355,700);
}
);
layerId = "BD1314B0-2F62-4F06-89D3-8B766BA843F0";
shapes = (
{
closed = 1;
nodes = (
(369,0,l),
(369,119,l),
(310,119,ls),
(263,119,o),
(250,129,o),
(250,175,cs),
(250,379,l),
(372,379,l),
(372,496,l),
(250,496,l),
(250,632,l),
(110,632,l),
(110,496,l),
(25,496,l),
(25,379,l),
(110,379,l),
(110,158,ls),
(110,27,o),
(165,0,o),
(269,0,cs)
);
}
);
width = 400;
},
{
anchors = (
{
name = bottom;
pos = (239,0);
},
{
name = topright;
pos = (297,700);
}
);
guides = (
{
angle = 20.03;
pos = (132,596);
},
{
pos = (12,596);
},
{
pos = (12,621);
}
);
layerId = "897F30B6-1700-43C7-9C60-A606C7C7F267";
shapes = (
{
closed = 1;
nodes = (
(329,0,l),
(329,60,l),
(285,60,ls),
(217,60,o),
(207,62,o),
(207,135,cs),
(207,436,l),
(338,436,l),
(338,496,l),
(207,496,l),
(207,611,l),
(137,611,l),
(137,496,l),
(51,496,l),
(51,436,l),
(137,436,l),
(137,122,ls),
(137,23,o),
(178,0,o),
(255,0,cs)
);
}
);
width = 400;
}
);
unicode = 116;
},
{
glyphname = u;
kernLeft = u;
kernRight = u;
lastChange = "2023-04-05 19:03:30 +0000";
layers = (
{
anchors = (
{
name = bottom;
pos = (285,0);
},
{
name = ogonek;
pos = (533,0);
},
{
name = top;
pos = (282,496);
},
{
name = topright;
pos = (533,496);
}
);
layerId = "BD1314B0-2F62-4F06-89D3-8B766BA843F0";
shapes = (
{
closed = 1;
nodes = (
(315,-12,o),
(371,43,o),
(393,121,c),
(372,240,l),
(372,156,o),
(334,106,o),
(267,106,cs),
(206,106,o),
(175,151,o),
(175,232,cs),
(175,496,l),
(36,496,l),
(36,219,ls),
(36,70,o),
(105,-12,o),
(220,-12,cs)
);
},
{
closed = 1;
nodes = (
(512,0,l),
(512,496,l),
(372,496,l),
(372,0,l)
);
}
);
width = 548;
},
{
anchors = (
{
name = bottom;
pos = (276,0);
},
{
name = ogonek;
pos = (496,0);
},
{
name = top;
pos = (276,496);
},
{
name = topright;
pos = (496,496);
}
);
layerId = "897F30B6-1700-43C7-9C60-A606C7C7F267";
shapes = (
{
closed = 1;
nodes = (
(341,-12,o),
(410,49,o),
(426,147,c),
(406,239,l),
(406,116,o),
(349,49,o),
(258,49,cs),
(182,49,o),
(134,102,o),
(134,211,cs),
(134,496,l),
(64,496,l),
(64,203,ls),
(64,55,o),
(141,-12,o),
(246,-12,cs)
);
},
{
closed = 1;
nodes = (
(476,0,l),
(476,496,l),
(406,496,l),
(406,0,l)
);
}
);
width = 548;
}
);
unicode = 117;
},
{
glyphname = v;
lastChange = "2023-01-24 19:35:08 +0000";
layers = (
{
associatedMasterId = "897F30B6-1700-43C7-9C60-A606C7C7F267";
layerId = "02575D39-7864-4EEF-9012-950E1A85E8A1";
name = public.background;
shapes = (
{
closed = 1;
nodes = (
(295,0,l),
(514,546,l),
(440,546,l),
(256,68,l),
(72,546,l),
(-3,546,l),
(216,0,l)
);
}
);
width = 562;
},
{
layerId = "BD1314B0-2F62-4F06-89D3-8B766BA843F0";
shapes = (
{
closed = 1;
nodes = (
(361,0,l),
(542,496,l),
(396,496,l),
(277,132,l),
(157,496,l),
(10,496,l),
(191,0,l)
);
}
);
width = 552;
},
{
layerId = "897F30B6-1700-43C7-9C60-A606C7C7F267";
shapes = (
{
closed = 1;
nodes = (
(316,0,l),
(506,496,l),
(434,496,l),
(277,68,l),
(120,496,l),
(47,496,l),
(237,0,l)
);
}
);
width = 552;
}
);
unicode = 118;
},
{
glyphname = w;
kernLeft = w;
kernRight = w;
lastChange = "2023-01-24 20:29:08 +0000";
layers = (
{
associatedMasterId = "897F30B6-1700-43C7-9C60-A606C7C7F267";
layerId = "02575D39-7864-4EEF-9012-950E1A85E8A1";
name = public.background;
shapes = (
{
closed = 1;
nodes = (
(218,0,l),
(385,507,l),
(352,508,l),
(520,0,l),
(590,0,l),
(761,546,l),
(692,546,l),
(544,25,l),
(571,25,l),
(406,546,l),
(336,546,l),
(168,25,l),
(196,25,l),
(47,546,l),
(-24,546,l),
(147,0,l)
);
}
);
width = 816;
},
{
anchors = (
{
name = bottom;
pos = (403,0);
},
{
name = top;
pos = (403,496);
}
);
layerId = "BD1314B0-2F62-4F06-89D3-8B766BA843F0";
shapes = (
{
closed = 1;
nodes = (
(301,0,l),
(422,428,l),
(383,428,l),
(505,0,l),
(650,0,l),
(796,496,l),
(657,496,l),
(559,79,l),
(594,80,l),
(480,496,l),
(325,496,l),
(212,80,l),
(246,79,l),
(148,496,l),
(10,496,l),
(156,0,l)
);
}
);
width = 806;
},
{
anchors = (
{
name = bottom;
pos = (403,0);
},
{
name = top;
pos = (403,496);
}
);
layerId = "897F30B6-1700-43C7-9C60-A606C7C7F267";
shapes = (
{
closed = 1;
nodes = (
(276,0,l),
(412,451,l),
(394,451,l),
(530,0,l),
(601,0,l),
(746,496,l),
(675,496,l),
(556,67,l),
(574,67,l),
(443,496,l),
(363,496,l),
(232,67,l),
(250,67,l),
(131,496,l),
(60,496,l),
(205,0,l)
);
}
);
width = 806;
}
);
unicode = 119;
},
{
glyphname = x;
lastChange = "2023-01-24 19:35:08 +0000";
layers = (
{
associatedMasterId = "897F30B6-1700-43C7-9C60-A606C7C7F267";
layerId = "02575D39-7864-4EEF-9012-950E1A85E8A1";
name = public.background;
shapes = (
{
closed = 1;
nodes = (
(420,0,l),
(103,496,l),
(30,496,l),
(347,0,l)
);
},
{
closed = 1;
nodes = (
(70,0,l),
(220,242,l),
(189,299,l),
(-4,0,l)
);
},
{
closed = 1;
nodes = (
(392,496,l),
(320,496,l),
(201,305,l),
(231,247,l)
);
}
);
width = 578;
},
{
layerId = "BD1314B0-2F62-4F06-89D3-8B766BA843F0";
shapes = (
{
closed = 1;
nodes = (
(162,0,l),
(284,168,l),
(405,0,l),
(555,0,l),
(372,248,l),
(555,496,l),
(405,496,l),
(284,328,l),
(162,496,l),
(11,496,l),
(194,248,l),
(11,0,l)
);
}
);
width = 566;
},
{
layerId = "897F30B6-1700-43C7-9C60-A606C7C7F267";
shapes = (
{
closed = 1;
nodes = (
(139,0,l),
(283,214,l),
(427,0,l),
(502,0,l),
(333,248,l),
(502,496,l),
(427,496,l),
(283,282,l),
(139,496,l),
(64,496,l),
(233,248,l),
(64,0,l)
);
}
);
width = 566;
}
);
unicode = 120;
},
{
glyphname = y;
kernLeft = y;
kernRight = y;
lastChange = "2023-04-05 18:40:08 +0000";
layers = (
{
associatedMasterId = "897F30B6-1700-43C7-9C60-A606C7C7F267";
layerId = "02575D39-7864-4EEF-9012-950E1A85E8A1";
name = public.background;
shapes = (
{
closed = 1;
nodes = (
(195,-220,l),
(523,496,l),
(451,496,l),
(281,120,l),
(126,496,l),
(50,496,l),
(243,42,l),
(122,-220,l)
);
}
);
width = 608;
},
{
anchors = (
{
name = top;
pos = (307,496);
}
);
layerId = "BD1314B0-2F62-4F06-89D3-8B766BA843F0";
shapes = (
{
closed = 1;
nodes = (
(587,496,l),
(437,496,l),
(300,158,l),
(168,496,l),
(16,496,l),
(232,-31,l),
(238,29,l),
(199,-57,l),
(324,-107,l)
);
},
{
closed = 1;
nodes = (
(199,-220,ls),
(268,-220,o),
(282,-203,o),
(324,-107,c),
(199,-57,l),
(178,-105,o),
(166,-110,o),
(136,-110,cs),
(28,-110,l),
(28,-220,l)
);
}
);
width = 603;
},
{
anchors = (
{
name = top;
pos = (304,496);
}
);
layerId = "897F30B6-1700-43C7-9C60-A606C7C7F267";
shapes = (
{
closed = 1;
nodes = (
(555,496,l),
(483,496,l),
(300,98,l),
(128,496,l),
(52,496,l),
(270,11,l),
(279,53,l),
(216,-85,l),
(283,-98,l)
);
},
{
closed = 1;
nodes = (
(165,-220,ls),
(222,-220,o),
(230,-209,o),
(281,-98,c),
(214,-85,l),
(185,-151,o),
(177,-160,o),
(149,-160,cs),
(51,-160,l),
(51,-220,l)
);
}
);
width = 603;
}
);
unicode = 121;
},
{
glyphname = z;
kernLeft = z;
kernRight = z;
lastChange = "2023-01-24 19:35:08 +0000";
layers = (
{
associatedMasterId = "897F30B6-1700-43C7-9C60-A606C7C7F267";
layerId = "02575D39-7864-4EEF-9012-950E1A85E8A1";
name = public.background;
shapes = (
{
closed = 1;
nodes = (
(402,0,l),
(402,58,l),
(116,58,l),
(397,488,l),
(397,546,l),
(41,546,l),
(41,488,l),
(317,488,l),
(36,58,l),
(36,0,l)
);
}
);
width = 486;
},
{
anchors = (
{
name = top;
pos = (233,496);
}
);
layerId = "BD1314B0-2F62-4F06-89D3-8B766BA843F0";
shapes = (
{
closed = 1;
nodes = (
(436,0,l),
(436,116,l),
(180,116,l),
(431,384,l),
(431,496,l),
(27,496,l),
(27,380,l),
(271,380,l),
(24,112,l),
(24,0,l)
);
}
);
width = 465;
},
{
anchors = (
{
name = top;
pos = (206,496);
}
);
layerId = "897F30B6-1700-43C7-9C60-A606C7C7F267";
shapes = (
{
closed = 1;
nodes = (
(411,0,l),
(411,58,l),
(123,58,l),
(406,438,l),
(406,496,l),
(50,496,l),
(50,438,l),
(328,438,l),
(45,58,l),
(45,0,l)
);
}
);
width = 465;
}
);
unicode = 122;
},
{
glyphname = Aogonek;
kernLeft = A;
kernRight = A;
lastChange = "2023-01-24 20:02:55 +0000";
layers = (
{
associatedMasterId = "897F30B6-1700-43C7-9C60-A606C7C7F267";
layerId = "02575D39-7864-4EEF-9012-950E1A85E8A1";
name = public.background;
shapes = (
{
closed = 1;
nodes = (
(576,-201,o),
(602,-196,o),
(624,-188,c),
(624,-139,l),
(602,-148,o),
(579,-153,o),
(559,-153,cs),
(523,-153,o),
(498,-135,o),
(498,-102,cs),
(498,-76,o),
(513,-52,o),
(561,-29,cs),
(620,0,l),
(601,38,l),
(547,13,ls),
(468,-23,o),
(439,-64,o),
(439,-109,cs),
(439,-176,o),
(494,-201,o),
(552,-201,cs)
);
},
{
alignment = -1;
ref = A;
}
);
width = 716;
},
{
layerId = "BD1314B0-2F62-4F06-89D3-8B766BA843F0";
shapes = (
{
ref = A;
},
{
pos = (460,0);
ref = ogonekcomb.case;
}
);
width = 694;
},
{
layerId = "897F30B6-1700-43C7-9C60-A606C7C7F267";
shapes = (
{
ref = A;
},
{
pos = (459,0);
ref = ogonekcomb.case;
}
);
width = 694;
}
);
metricLeft = A;
metricRight = A;
unicode = 260;
},
{
glyphname = AE;
kernLeft = AE;
kernRight = E;
lastChange = "2023-01-24 20:02:55 +0000";
layers = (
{
associatedMasterId = "897F30B6-1700-43C7-9C60-A606C7C7F267";
layerId = "02575D39-7864-4EEF-9012-950E1A85E8A1";
name = public.background;
shapes = (
{
closed = 1;
nodes = (
(109,0,l),
(479,640,l),
(479,0,l),
(844,0,l),
(844,56,l),
(549,56,l),
(549,324,l),
(814,324,l),
(814,380,l),
(549,380,l),
(549,644,l),
(844,644,l),
(844,700,l),
(438,700,l),
(32,0,l)
);
},
{
closed = 1;
nodes = (
(511,166,l),
(511,222,l),
(195,222,l),
(166,166,l)
);
}
);
width = 932;
},
{
layerId = "BD1314B0-2F62-4F06-89D3-8B766BA843F0";
shapes = (
{
closed = 1;
nodes = (
(164,0,l),
(479,594,l),
(479,0,l),
(885,0,l),
(885,111,l),
(619,111,l),
(619,303,l),
(855,303,l),
(855,410,l),
(619,410,l),
(619,589,l),
(885,589,l),
(885,700,l),
(385,700,l),
(12,0,l)
);
},
{
closed = 1;
nodes = (
(546,133,l),
(546,240,l),
(214,240,l),
(156,133,l)
);
}
);
width = 914;
},
{
layerId = "897F30B6-1700-43C7-9C60-A606C7C7F267";
shapes = (
{
closed = 1;
nodes = (
(130,0,l),
(500,640,l),
(500,0,l),
(867,0,l),
(867,56,l),
(570,56,l),
(570,324,l),
(837,324,l),
(837,380,l),
(570,380,l),
(570,644,l),
(867,644,l),
(867,700,l),
(459,700,l),
(53,0,l)
);
},
{
closed = 1;
nodes = (
(532,166,l),
(532,222,l),
(216,222,l),
(187,166,l)
);
}
);
width = 914;
}
);
metricLeft = A;
metricRight = E;
unicode = 198;
},
{
glyphname = Eth;
kernLeft = Eth;
kernRight = O;
lastChange = "2023-01-24 20:02:55 +0000";
layers = (
{
associatedMasterId = "897F30B6-1700-43C7-9C60-A606C7C7F267";
layerId = "02575D39-7864-4EEF-9012-950E1A85E8A1";
name = public.background;
shapes = (
{
closed = 1;
nodes = (
(312,0,l),
(545,0,o),
(682,131,o),
(682,348,c),
(682,567,o),
(545,699,o),
(312,699,c),
(104,699,l),
(104,0,l)
);
},
{
closed = 1;
nodes = (
(379,316,l),
(379,381,l),
(9,381,l),
(9,316,l)
);
},
{
closed = 1;
nodes = (
(175,642,l),
(312,642,l),
(509,642,o),
(610,529,o),
(610,348,c),
(610,168,o),
(509,55,o),
(312,55,c),
(175,55,l)
);
},
{
alignment = -1;
pos = (24,0);
ref = D;
}
);
width = 738;
},
{
layerId = "BD1314B0-2F62-4F06-89D3-8B766BA843F0";
shapes = (
{
closed = 1;
nodes = (
(385,291,l),
(385,409,l),
(4,409,l),
(4,291,l)
);
},
{
alignment = -1;
pos = (9,0);
ref = D;
}
);
width = 709;
},
{
layerId = "897F30B6-1700-43C7-9C60-A606C7C7F267";
shapes = (
{
closed = 1;
nodes = (
(379,316,l),
(379,381,l),
(9,381,l),
(9,316,l)
);
},
{
alignment = -1;
pos = (24,0);
ref = D;
}
);
width = 709;
}
);
unicode = 208;
},
{
color = 0;
glyphname = Schwa;
kernRight = O;
lastChange = "2023-01-26 17:55:21 +0000";
layers = (
{
anchors = (
{
name = top;
pos = (382,700);
}
);
associatedMasterId = "897F30B6-1700-43C7-9C60-A606C7C7F267";
layerId = "C2F9BAFC-5580-4CF8-8BE5-F0A0A7E63D04";
name = "#instance";
shapes = (
{
closed = 1;
nodes = (
(587,-12,o),
(724,132,o),
(724,348,cs),
(724,568,o),
(586,712,o),
(382,712,cs),
(215,712,o),
(91,612,o),
(62,490,c),
(216,490,l),
(230,541,o),
(300,586,o),
(383,586,cs),
(494,586,o),
(578,507,o),
(578,374,cs),
(578,310,ls),
(578,186,o),
(489,116,o),
(380,116,cs),
(269,116,o),
(191,185,o),
(189,289,c),
(599,289,l),
(599,389,l),
(48,389,l),
(46,368,o),
(45,347,o),
(45,328,cs),
(45,115,o),
(181,-12,o),
(382,-12,cs)
);
}
);
width = 768;
},
{
associatedMasterId = "897F30B6-1700-43C7-9C60-A606C7C7F267";
layerId = "02575D39-7864-4EEF-9012-950E1A85E8A1";
name = public.background;
shapes = (
{
closed = 1;
nodes = (
(567,-7,o),
(701,137,o),
(701,350,cs),
(701,560,o),
(566,707,o),
(370,707,cs),
(211,707,o),
(90,616,o),
(49,476,c),
(129,476,l),
(161,581,o),
(255,643,o),
(370,643,cs),
(517,643,o),
(625,534,o),
(625,362,cs),
(625,325,ls),
(625,154,o),
(513,56,o),
(367,56,cs),
(215,56,o),
(115,157,o),
(118,311,c),
(640,311,l),
(640,376,l),
(48,376,l),
(46,356,o),
(45,337,o),
(45,318,cs),
(45,112,o),
(178,-7,o),
(367,-7,cs)
);
}
);
width = 757;
},
{
layerId = "BD1314B0-2F62-4F06-89D3-8B766BA843F0";
shapes = (
{
closed = 1;
nodes = (
(591,-12,o),
(728,132,o),
(728,348,cs),
(728,568,o),
(590,712,o),
(386,712,cs),
(219,712,o),
(95,612,o),
(66,490,c),
(220,490,l),
(234,541,o),
(304,586,o),
(387,586,cs),
(498,586,o),
(582,507,o),
(582,374,cs),
(582,310,ls),
(582,186,o),
(493,116,o),
(384,116,cs),
(273,116,o),
(193,185,o),
(193,289,c),
(603,289,l),
(603,389,l),
(52,389,l),
(50,368,o),
(49,347,o),
(49,328,cs),
(49,115,o),
(185,-12,o),
(386,-12,cs)
);
}
);
width = 776;
},
{
layerId = "897F30B6-1700-43C7-9C60-A606C7C7F267";
shapes = (
{
closed = 1;
nodes = (
(582,-12,o),
(716,132,o),
(716,345,cs),
(716,565,o),
(581,712,o),
(385,712,cs),
(226,712,o),
(105,621,o),
(64,481,c),
(144,481,l),
(176,586,o),
(270,648,o),
(385,648,cs),
(532,648,o),
(640,539,o),
(640,357,cs),
(640,320,ls),
(640,149,o),
(528,51,o),
(382,51,cs),
(230,51,o),
(133,152,o),
(133,306,c),
(655,306,l),
(655,371,l),
(63,371,l),
(61,351,o),
(60,332,o),
(60,313,cs),
(60,107,o),
(193,-12,o),
(382,-12,cs)
);
}
);
width = 776;
}
);
unicode = 399;
},
{
glyphname = Gcommaaccent;
kernLeft = O;
kernRight = G;
lastChange = "2023-01-28 23:14:21 +0000";
layers = (
{
associatedMasterId = "897F30B6-1700-43C7-9C60-A606C7C7F267";
layerId = "02575D39-7864-4EEF-9012-950E1A85E8A1";
name = public.background;
shapes = (
{
closed = 1;
nodes = (
(305,-226,l),
(361,-226,o),
(395,-197,o),
(395,-119,cs),
(395,-100,o),
(392,-76,o),
(387,-52,c),
(308,-52,l),
(308,-121,l),
(351,-121,l),
(351,-135,ls),
(351,-171,o),
(338,-191,o),
(305,-191,c)
);
},
{
alignment = -1;
ref = G;
}
);
width = 797;
},
{
layerId = "BD1314B0-2F62-4F06-89D3-8B766BA843F0";
shapes = (
{
ref = G;
},
{
pos = (276,103);
ref = commaaccentcomb.case;
}
);
width = 781;
},
{
layerId = "897F30B6-1700-43C7-9C60-A606C7C7F267";
shapes = (
{
ref = G;
},
{
pos = (280,97);
ref = commaaccentcomb.case;
}
);
width = 781;
}
);
metricLeft = G;
metricRight = G;
unicode = 290;
},
{
glyphname = Kcommaaccent;
kernLeft = H;
kernRight = K;
lastChange = "2023-01-28 23:14:21 +0000";
layers = (
{
associatedMasterId = "897F30B6-1700-43C7-9C60-A606C7C7F267";
layerId = "02575D39-7864-4EEF-9012-950E1A85E8A1";
name = public.background;
shapes = (
{
closed = 1;
nodes = (
(238,-226,l),
(294,-226,o),
(328,-197,o),
(328,-119,cs),
(328,-100,o),
(325,-76,o),
(320,-52,c),
(241,-52,l),
(241,-121,l),
(284,-121,l),
(284,-135,ls),
(284,-171,o),
(271,-191,o),
(238,-191,c)
);
},
{
alignment = -1;
ref = K;
}
);
width = 564;
},
{
layerId = "BD1314B0-2F62-4F06-89D3-8B766BA843F0";
shapes = (
{
ref = K;
},
{
pos = (193,103);
ref = commaaccentcomb.case;
}
);
width = 630;
},
{
layerId = "897F30B6-1700-43C7-9C60-A606C7C7F267";
shapes = (
{
ref = K;
},
{
pos = (172,97);
ref = commaaccentcomb.case;
}
);
width = 630;
}
);
metricLeft = K;
metricRight = K;
unicode = 310;
},
{
glyphname = Lcaron;
kernLeft = H;
kernRight = L;
lastChange = "2023-01-24 20:05:31 +0000";
layers = (
{
associatedMasterId = "897F30B6-1700-43C7-9C60-A606C7C7F267";
layerId = "02575D39-7864-4EEF-9012-950E1A85E8A1";
name = public.background;
shapes = (
{
closed = 1;
nodes = (
(266,511,l),
(324,511,o),
(357,541,o),
(357,614,cs),
(357,638,o),
(354,666,o),
(348,699,c),
(267,699,l),
(267,623,l),
(313,623,l),
(313,599,ls),
(313,565,o),
(300,547,o),
(266,547,c)
);
},
{
alignment = -1;
ref = L;
}
);
width = 517;
},
{
layerId = "BD1314B0-2F62-4F06-89D3-8B766BA843F0";
shapes = (
{
closed = 1;
nodes = (
(405,455,o),
(446,507,o),
(446,592,cs),
(446,700,l),
(314,700,l),
(314,591,l),
(372,591,l),
(372,573,ls),
(372,531,o),
(355,511,o),
(321,511,c),
(321,455,l)
);
},
{
alignment = -1;
ref = L;
}
);
width = 521;
},
{
layerId = "897F30B6-1700-43C7-9C60-A606C7C7F267";
shapes = (
{
closed = 1;
nodes = (
(324,512,o),
(357,542,o),
(357,615,cs),
(357,700,l),
(267,700,l),
(267,624,l),
(313,624,l),
(313,600,ls),
(313,566,o),
(300,548,o),
(266,548,c),
(266,512,l)
);
},
{
alignment = -1;
ref = L;
}
);
width = 521;
}
);
metricLeft = L;
metricRight = L;
unicode = 317;
},
{
glyphname = Lcommaaccent;
kernLeft = H;
kernRight = L;
lastChange = "2023-01-28 23:14:21 +0000";
layers = (
{
associatedMasterId = "897F30B6-1700-43C7-9C60-A606C7C7F267";
layerId = "02575D39-7864-4EEF-9012-950E1A85E8A1";
name = public.background;
shapes = (
{
closed = 1;
nodes = (
(196,-226,l),
(253,-226,o),
(287,-197,o),
(287,-119,cs),
(287,-100,o),
(284,-76,o),
(278,-52,c),
(200,-52,l),
(200,-121,l),
(242,-121,l),
(242,-135,ls),
(242,-171,o),
(229,-191,o),
(196,-191,c)
);
},
{
alignment = -1;
ref = L;
}
);
width = 517;
},
{
layerId = "BD1314B0-2F62-4F06-89D3-8B766BA843F0";
shapes = (
{
ref = L;
},
{
pos = (181,103);
ref = commaaccentcomb.case;
}
);
width = 521;
},
{
layerId = "897F30B6-1700-43C7-9C60-A606C7C7F267";
shapes = (
{
ref = L;
},
{
pos = (179,97);
ref = commaaccentcomb.case;
}
);
width = 521;
}
);
metricLeft = L;
metricRight = L;
unicode = 315;
},
{
glyphname = Ldot;
kernLeft = H;
kernRight = L;
lastChange = "2023-01-26 17:51:09 +0000";
layers = (
{
associatedMasterId = "897F30B6-1700-43C7-9C60-A606C7C7F267";
guides = (
{
pos = (0,351);
}
);
layerId = "02575D39-7864-4EEF-9012-950E1A85E8A1";
name = public.background;
shapes = (
{
closed = 1;
nodes = (
(401,0,l),
(401,57,l),
(150,57,l),
(150,699,l),
(80,699,l),
(80,0,l)
);
},
{
closed = 1;
nodes = (
(363,330,o),
(384,351,o),
(384,376,cs),
(384,401,o),
(363,422,o),
(338,422,cs),
(312,422,o),
(292,401,o),
(292,376,cs),
(292,351,o),
(312,330,o),
(338,330,cs)
);
},
{
alignment = -1;
ref = L;
},
{
alignment = -1;
pos = (260,4);
ref = periodcentered;
}
);
width = 542;
},
{
layerId = "BD1314B0-2F62-4F06-89D3-8B766BA843F0";
shapes = (
{
alignment = -1;
ref = L;
},
{
alignment = -1;
pos = (255,25);
ref = periodcentered;
}
);
width = 521;
},
{
layerId = "897F30B6-1700-43C7-9C60-A606C7C7F267";
shapes = (
{
alignment = -1;
ref = L;
},
{
alignment = -1;
pos = (260,4);
ref = periodcentered;
}
);
width = 521;
}
);
metricLeft = L;
metricRight = L;
unicode = 319;
},
{
glyphname = Lslash;
kernRight = L;
lastChange = "2023-01-24 20:02:55 +0000";
layers = (
{
associatedMasterId = "897F30B6-1700-43C7-9C60-A606C7C7F267";
layerId = "02575D39-7864-4EEF-9012-950E1A85E8A1";
name = public.background;
shapes = (
{
closed = 1;
nodes = (
(427,0,l),
(427,55,l),
(176,55,l),
(176,699,l),
(106,699,l),
(106,0,l)
);
},
{
closed = 1;
nodes = (
(301,399,l),
(301,454,l),
(20,344,l),
(20,289,l)
);
},
{
alignment = -1;
pos = (26,0);
ref = L;
}
);
width = 547;
},
{
anchors = (
{
name = bottom;
pos = (367,0);
},
{
name = center;
pos = (338,350);
},
{
name = commaaccent;
pos = (367,7);
},
{
name = top;
pos = (196,700);
},
{
name = topright;
pos = (563,700);
}
);
layerId = "BD1314B0-2F62-4F06-89D3-8B766BA843F0";
shapes = (
{
closed = 1;
nodes = (
(354,364,l),
(354,480,l),
(47,381,l),
(47,264,l)
);
},
{
alignment = -1;
pos = (51,0);
ref = L;
}
);
width = 572;
},
{
anchors = (
{
name = bottom;
pos = (375,0);
},
{
name = center;
pos = (366,350);
},
{
name = commaaccent;
pos = (375,0);
},
{
name = top;
pos = (201,700);
},
{
name = topright;
pos = (561,700);
}
);
layerId = "897F30B6-1700-43C7-9C60-A606C7C7F267";
shapes = (
{
closed = 1;
nodes = (
(323,399,l),
(323,454,l),
(42,344,l),
(42,289,l)
);
},
{
alignment = -1;
pos = (48,0);
ref = L;
}
);
width = 572;
}
);
unicode = 321;
},
{
glyphname = Ncommaaccent;
kernLeft = H;
kernRight = H;
lastChange = "2023-01-28 23:14:21 +0000";
layers = (
{
associatedMasterId = "897F30B6-1700-43C7-9C60-A606C7C7F267";
layerId = "02575D39-7864-4EEF-9012-950E1A85E8A1";
name = public.background;
shapes = (
{
closed = 1;
nodes = (
(299,-226,l),
(355,-226,o),
(389,-197,o),
(389,-119,cs),
(389,-100,o),
(386,-76,o),
(380,-52,c),
(302,-52,l),
(302,-121,l),
(344,-121,l),
(344,-135,ls),
(344,-171,o),
(331,-191,o),
(299,-191,c)
);
},
{
alignment = -1;
ref = N;
}
);
width = 721;
},
{
layerId = "BD1314B0-2F62-4F06-89D3-8B766BA843F0";
shapes = (
{
ref = N;
},
{
pos = (230,103);
ref = commaaccentcomb.case;
}
);
width = 691;
},
{
layerId = "897F30B6-1700-43C7-9C60-A606C7C7F267";
shapes = (
{
ref = N;
},
{
pos = (228,97);
ref = commaaccentcomb.case;
}
);
width = 691;
}
);
metricLeft = N;
metricRight = N;
unicode = 325;
},
{
glyphname = Oslash;
lastChange = "2023-01-24 20:02:55 +0000";
layers = (
{
associatedMasterId = "897F30B6-1700-43C7-9C60-A606C7C7F267";
layerId = "02575D39-7864-4EEF-9012-950E1A85E8A1";
name = public.background;
shapes = (
{
closed = 1;
nodes = (
(102,0,l),
(745,700,l),
(686,700,l),
(42,0,l)
);
},
{
alignment = -1;
ref = O;
}
);
width = 784;
},
{
layerId = "BD1314B0-2F62-4F06-89D3-8B766BA843F0";
shapes = (
{
closed = 1;
nodes = (
(163,0,l),
(759,700,l),
(628,700,l),
(32,0,l)
);
},
{
alignment = -1;
pos = (3,0);
ref = O;
}
);
width = 787;
},
{
layerId = "897F30B6-1700-43C7-9C60-A606C7C7F267";
shapes = (
{
closed = 1;
nodes = (
(122,0,l),
(745,700,l),
(666,700,l),
(42,0,l)
);
},
{
alignment = -1;
ref = O;
}
);
width = 787;
}
);
unicode = 216;
},
{
glyphname = OE;
kernLeft = O;
kernRight = E;
lastChange = "2023-01-24 19:35:08 +0000";
layers = (
{
associatedMasterId = "897F30B6-1700-43C7-9C60-A606C7C7F267";
layerId = "02575D39-7864-4EEF-9012-950E1A85E8A1";
name = public.background;
shapes = (
{
closed = 1;
nodes = (
(514,-7,o),
(620,59,o),
(665,171,c),
(665,0,l),
(1031,0,l),
(1031,56,l),
(735,56,l),
(735,324,l),
(1001,324,l),
(1001,379,l),
(735,379,l),
(735,643,l),
(1031,643,l),
(1031,699,l),
(665,699,l),
(665,530,l),
(620,640,o),
(514,707,o),
(386,707,c),
(195,707,o),
(45,560,o),
(45,350,c),
(45,140,o),
(195,-7,o),
(386,-7,c)
);
},
{
closed = 1;
nodes = (
(236,56,o),
(117,169,o),
(117,350,c),
(117,531,o),
(236,643,o),
(391,643,c),
(546,643,o),
(665,531,o),
(665,350,c),
(665,169,o),
(546,56,o),
(391,56,c)
);
}
);
width = 1119;
},
{
layerId = "BD1314B0-2F62-4F06-89D3-8B766BA843F0";
shapes = (
{
closed = 1;
nodes = (
(477,-12,o),
(567,25,o),
(617,89,c),
(617,0,l),
(1050,0,l),
(1050,113,l),
(757,113,l),
(757,301,l),
(1020,301,l),
(1020,410,l),
(757,410,l),
(757,587,l),
(1050,587,l),
(1050,700,l),
(617,700,l),
(617,609,l),
(567,675,o),
(477,712,o),
(391,712,cs),
(195,712,o),
(48,564,o),
(48,350,cs),
(48,136,o),
(195,-12,o),
(391,-12,cs)
);
},
{
closed = 1;
nodes = (
(286,114,o),
(190,204,o),
(190,350,cs),
(190,496,o),
(286,586,o),
(403,586,cs),
(521,586,o),
(616,496,o),
(616,350,cs),
(616,204,o),
(521,114,o),
(403,114,cs)
);
}
);
width = 1079;
},
{
layerId = "897F30B6-1700-43C7-9C60-A606C7C7F267";
shapes = (
{
closed = 1;
nodes = (
(506,-12,o),
(585,38,o),
(647,133,c),
(647,0,l),
(1032,0,l),
(1032,58,l),
(717,58,l),
(717,323,l),
(1002,323,l),
(1002,381,l),
(717,381,l),
(717,642,l),
(1032,642,l),
(1032,700,l),
(647,700,l),
(647,567,l),
(585,661,o),
(506,712,o),
(391,712,cs),
(195,712,o),
(57,564,o),
(57,350,cs),
(57,135,o),
(195,-12,o),
(391,-12,cs)
);
},
{
closed = 1;
nodes = (
(240,49,o),
(129,162,o),
(129,350,cs),
(129,538,o),
(240,650,o),
(391,650,cs),
(542,650,o),
(645,538,o),
(645,350,cs),
(645,162,o),
(542,49,o),
(391,49,cs)
);
}
);
width = 1079;
}
);
metricLeft = O;
metricRight = E;
unicode = 338;
},
{
glyphname = Thorn;
kernLeft = H;
lastChange = "2023-01-24 19:35:08 +0000";
layers = (
{
associatedMasterId = "897F30B6-1700-43C7-9C60-A606C7C7F267";
layerId = "02575D39-7864-4EEF-9012-950E1A85E8A1";
name = public.background;
shapes = (
{
closed = 1;
nodes = (
(146,0,l),
(146,150,l),
(287,150,ls),
(451,150,o),
(523,236,o),
(523,350,cs),
(523,465,o),
(449,551,o),
(287,551,cs),
(145,551,l),
(145,700,l),
(76,700,l),
(76,0,l)
);
},
{
closed = 1;
nodes = (
(146,494,l),
(287,494,ls),
(405,494,o),
(451,439,o),
(451,350,cs),
(451,264,o),
(405,207,o),
(287,207,cs),
(146,207,l)
);
}
);
width = 570;
},
{
layerId = "BD1314B0-2F62-4F06-89D3-8B766BA843F0";
shapes = (
{
closed = 1;
nodes = (
(187,0,l),
(187,133,l),
(314,133,ls),
(488,133,o),
(565,234,o),
(565,349,cs),
(565,474,o),
(483,568,o),
(314,568,cs),
(187,568,l),
(187,700,l),
(47,700,l),
(47,0,l)
);
},
{
closed = 1;
nodes = (
(187,454,l),
(305,454,ls),
(388,454,o),
(423,414,o),
(423,349,cs),
(423,285,o),
(388,245,o),
(305,245,cs),
(187,245,l)
);
}
);
width = 589;
},
{
layerId = "897F30B6-1700-43C7-9C60-A606C7C7F267";
shapes = (
{
closed = 1;
nodes = (
(148,0,l),
(148,150,l),
(299,150,ls),
(463,150,o),
(535,237,o),
(535,350,cs),
(535,465,o),
(461,551,o),
(299,551,cs),
(148,551,l),
(148,700,l),
(78,700,l),
(78,0,l)
);
},
{
closed = 1;
nodes = (
(148,492,l),
(299,492,ls),
(417,492,o),
(463,440,o),
(463,350,cs),
(463,264,o),
(417,210,o),
(299,210,cs),
(148,210,l)
);
}
);
width = 589;
}
);
metricLeft = H;
metricRight = P;
unicode = 222;
},
{
glyphname = Rcommaaccent;
kernLeft = H;
kernRight = R;
lastChange = "2023-01-28 23:14:21 +0000";
layers = (
{
associatedMasterId = "897F30B6-1700-43C7-9C60-A606C7C7F267";
layerId = "02575D39-7864-4EEF-9012-950E1A85E8A1";
name = public.background;
shapes = (
{
closed = 1;
nodes = (
(247,-226,l),
(303,-226,o),
(337,-197,o),
(337,-119,cs),
(337,-100,o),
(334,-76,o),
(329,-52,c),
(250,-52,l),
(250,-121,l),
(292,-121,l),
(292,-135,ls),
(292,-171,o),
(279,-191,o),
(247,-191,c)
);
},
{
alignment = -1;
ref = R;
}
);
width = 583;
},
{
layerId = "BD1314B0-2F62-4F06-89D3-8B766BA843F0";
shapes = (
{
ref = R;
},
{
pos = (189,103);
ref = commaaccentcomb.case;
}
);
width = 603;
},
{
layerId = "897F30B6-1700-43C7-9C60-A606C7C7F267";
shapes = (
{
ref = R;
},
{
pos = (191,97);
ref = commaaccentcomb.case;
}
);
width = 603;
}
);
metricLeft = R;
metricRight = R;
unicode = 342;
},
{
glyphname = Scommaaccent;
kernLeft = S;
kernRight = S;
lastChange = "2023-01-28 23:14:21 +0000";
layers = (
{
associatedMasterId = "897F30B6-1700-43C7-9C60-A606C7C7F267";
layerId = "02575D39-7864-4EEF-9012-950E1A85E8A1";
name = public.background;
shapes = (
{
closed = 1;
nodes = (
(253,-226,l),
(310,-226,o),
(344,-197,o),
(344,-119,cs),
(344,-100,o),
(341,-76,o),
(336,-52,c),
(257,-52,l),
(257,-121,l),
(300,-121,l),
(300,-135,ls),
(300,-171,o),
(286,-191,o),
(253,-191,c)
);
},
{
alignment = -1;
ref = S;
}
);
width = 602;
},
{
layerId = "BD1314B0-2F62-4F06-89D3-8B766BA843F0";
shapes = (
{
ref = S;
},
{
pos = (190,103);
ref = commaaccentcomb.case;
}
);
width = 595;
},
{
layerId = "897F30B6-1700-43C7-9C60-A606C7C7F267";
shapes = (
{
ref = S;
},
{
pos = (207,97);
ref = commaaccentcomb.case;
}
);
width = 595;
}
);
metricLeft = S;
metricRight = S;
unicode = 536;
},
{
color = 0;
glyphname = Germandbls;
lastChange = "2023-08-04 20:10:11 +0000";
layers = (
{
layerId = "897F30B6-1700-43C7-9C60-A606C7C7F267";
shapes = (
{
closed = 1;
nodes = (
(230,3,l),
(254,-3,o),
(288,-7,o),
(326,-7,cs),
(473,-7,o),
(571,80,o),
(571,206,cs),
(571,326,o),
(488,396,o),
(367,410,c),
(509,647,l),
(509,700,l),
(96,700,l),
(96,0,l),
(166,0,l),
(166,641,l),
(424,641,l),
(284,409,l),
(284,355,l),
(311,355,ls),
(426,355,o),
(501,304,o),
(501,204,cs),
(501,106,o),
(425,54,o),
(318,54,cs),
(283,54,o),
(254,58,o),
(230,64,c)
);
}
);
width = 643;
},
{
layerId = "BD1314B0-2F62-4F06-89D3-8B766BA843F0";
shapes = (
{
closed = 1;
nodes = (
(245,7,l),
(283,-6,o),
(327,-12,o),
(372,-12,cs),
(503,-12,o),
(617,70,o),
(617,209,cs),
(617,318,o),
(546,382,o),
(424,402,c),
(549,594,l),
(549,700,l),
(47,700,l),
(47,0,l),
(187,0,l),
(187,581,l),
(386,581,l),
(278,403,l),
(278,318,l),
(313,318,ls),
(445,318,o),
(487,263,o),
(487,213,cs),
(487,165,o),
(458,106,o),
(352,106,cs),
(310,106,o),
(271,112,o),
(245,118,c)
);
}
);
width = 643;
}
);
unicode = 7838;
},
{
glyphname = Tcommaaccent;
kernLeft = T;
kernRight = T;
lastChange = "2023-01-28 23:14:21 +0000";
layers = (
{
associatedMasterId = "897F30B6-1700-43C7-9C60-A606C7C7F267";
layerId = "02575D39-7864-4EEF-9012-950E1A85E8A1";
name = public.background;
shapes = (
{
closed = 1;
nodes = (
(215,-226,l),
(271,-226,o),
(305,-197,o),
(305,-119,cs),
(305,-100,o),
(302,-76,o),
(297,-52,c),
(218,-52,l),
(218,-121,l),
(261,-121,l),
(261,-135,ls),
(261,-171,o),
(247,-191,o),
(215,-191,c)
);
},
{
alignment = -1;
ref = T;
}
);
width = 599;
},
{
layerId = "BD1314B0-2F62-4F06-89D3-8B766BA843F0";
shapes = (
{
ref = T;
},
{
pos = (175,103);
ref = commaaccentcomb.case;
}
);
width = 587;
},
{
layerId = "897F30B6-1700-43C7-9C60-A606C7C7F267";
shapes = (
{
ref = T;
},
{
pos = (175,97);
ref = commaaccentcomb.case;
}
);
width = 587;
}
);
metricLeft = T;
metricRight = T;
unicode = 538;
},
{
color = 0;
glyphname = ae;
kernLeft = a;
kernRight = e;
lastChange = "2023-04-05 18:45:26 +0000";
layers = (
{
associatedMasterId = "897F30B6-1700-43C7-9C60-A606C7C7F267";
layerId = "02575D39-7864-4EEF-9012-950E1A85E8A1";
name = public.background;
shapes = (
{
closed = 1;
nodes = (
(408,-8,o),
(486,49,o),
(521,126,c),
(521,0,l),
(582,0,l),
(582,126,l),
(618,41,o),
(704,-8,o),
(801,-8,cs),
(934,-8,o),
(1022,70,o),
(1047,173,c),
(971,173,l),
(954,99,o),
(887,51,o),
(790,51,cs),
(691,51,o),
(590,120,o),
(590,265,cs),
(590,283,ls),
(590,421,o),
(685,494,o),
(791,494,cs),
(895,494,o),
(987,429,o),
(983,300,c),
(580,300,l),
(580,248,l),
(1051,248,l),
(1054,267,o),
(1055,281,o),
(1055,302,cs),
(1055,438,o),
(959,554,o),
(801,554,cs),
(706,554,o),
(626,512,o),
(582,422,c),
(582,546,l),
(523,546,l),
(523,423,l),
(484,503,o),
(408,554,o),
(306,554,c),
(153,554,o),
(42,445,o),
(42,274,c),
(42,103,o),
(153,-8,o),
(303,-8,c)
);
},
{
closed = 1;
nodes = (
(201,53,o),
(113,136,o),
(113,274,c),
(113,413,o),
(201,493,o),
(316,493,c),
(428,493,o),
(519,409,o),
(519,273,c),
(519,137,o),
(428,53,o),
(316,53,c)
);
}
);
width = 1145;
},
{
anchors = (
{
name = bottom;
pos = (452,0);
},
{
name = top;
pos = (452,496);
}
);
layerId = "BD1314B0-2F62-4F06-89D3-8B766BA843F0";
shapes = (
{
closed = 1;
nodes = (
(322,-12,o),
(382,29,o),
(422,86,c),
(467,25,o),
(541,-12,o),
(628,-12,cs),
(751,-12,o),
(843,68,o),
(869,171,c),
(729,171,l),
(713,132,o),
(679,102,o),
(627,102,cs),
(566,102,o),
(517,144,o),
(511,212,c),
(876,212,l),
(878,230,o),
(879,246,o),
(879,260,cs),
(879,404,o),
(774,508,o),
(628,508,cs),
(560,508,o),
(498,483,o),
(455,441,c),
(415,484,o),
(353,508,o),
(275,508,cs),
(151,508,o),
(56,437,o),
(46,331,c),
(182,331,l),
(190,372,o),
(229,395,o),
(275,395,cs),
(326,395,o),
(367,368,o),
(367,305,cs),
(367,296,l),
(235,296,ls),
(89,296,o),
(23,230,o),
(23,139,cs),
(23,57,o),
(93,-12,o),
(221,-12,cs)
);
},
{
closed = 1;
nodes = (
(200,96,o),
(166,118,o),
(166,154,cs),
(166,187,o),
(196,212,o),
(254,212,cs),
(361,212,l),
(361,205,l),
(348,144,o),
(305,96,o),
(242,96,cs)
);
},
{
closed = 1;
nodes = (
(526,362,o),
(574,395,o),
(629,395,cs),
(687,395,o),
(732,358,o),
(737,296,c),
(513,296,l)
);
}
);
width = 904;
},
{
anchors = (
{
name = bottom;
pos = (452,0);
},
{
name = top;
pos = (452,496);
}
);
layerId = "897F30B6-1700-43C7-9C60-A606C7C7F267";
shapes = (
{
closed = 1;
nodes = (
(322,-12,o),
(388,42,o),
(427,111,c),
(467,34,o),
(543,-12,o),
(631,-12,cs),
(748,-12,o),
(825,62,o),
(849,161,c),
(782,161,l),
(760,91,o),
(711,48,o),
(631,48,cs),
(552,48,o),
(468,109,o),
(464,237,c),
(855,237,l),
(856,256,o),
(856,269,o),
(856,283,cs),
(856,398,o),
(772,508,o),
(633,508,cs),
(553,508,o),
(484,473,o),
(442,411,c),
(412,471,o),
(351,508,o),
(265,508,cs),
(170,508,o),
(73,451,o),
(61,344,c),
(135,344,l),
(147,412,o),
(201,448,o),
(265,448,cs),
(341,448,o),
(394,398,o),
(394,305,cs),
(394,297,l),
(255,297,ls),
(131,297,o),
(44,246,o),
(44,142,cs),
(44,60,o),
(103,-12,o),
(228,-12,cs)
);
},
{
closed = 1;
nodes = (
(159,50,o),
(116,88,o),
(116,144,cs),
(116,199,o),
(156,237,o),
(260,237,cs),
(394,237,l),
(394,224,ls),
(394,130,o),
(320,50,o),
(230,50,cs)
);
},
{
closed = 1;
nodes = (
(475,395,o),
(550,448,o),
(632,448,cs),
(715,448,o),
(783,392,o),
(788,297,c),
(465,297,l)
);
}
);
width = 904;
}
);
unicode = 230;
},
{
glyphname = eth;
kernLeft = o;
lastChange = "2023-01-24 19:35:08 +0000";
layers = (
{
associatedMasterId = "897F30B6-1700-43C7-9C60-A606C7C7F267";
layerId = "02575D39-7864-4EEF-9012-950E1A85E8A1";
name = public.background;
shapes = (
{
closed = 1;
nodes = (
(112,47,o),
(21,125,o),
(21,249,cs),
(21,373,o),
(112,451,o),
(212,451,cs),
(312,451,o),
(403,373,o),
(403,249,cs),
(403,125,o),
(312,47,o),
(212,47,cs)
);
}
);
width = 446;
},
{
layerId = "BD1314B0-2F62-4F06-89D3-8B766BA843F0";
shapes = (
{
closed = 1;
nodes = (
(454,-12,o),
(578,105,o),
(578,294,cs),
(578,425,o),
(517,587,o),
(386,700,c),
(255,700,l),
(346,621,o),
(418,509,o),
(442,403,c),
(464,429,l),
(411,479,o),
(356,502,o),
(288,502,cs),
(138,502,o),
(26,393,o),
(26,246,cs),
(26,101,o),
(140,-12,o),
(298,-12,cs)
);
},
{
closed = 1;
nodes = (
(231,107,o),
(169,160,o),
(169,246,cs),
(169,330,o),
(231,383,o),
(302,383,cs),
(373,383,o),
(435,330,o),
(435,246,cs),
(435,160,o),
(373,107,o),
(302,107,cs)
);
},
{
closed = 1;
nodes = (
(537,627,l),
(537,709,l),
(244,616,l),
(244,533,l)
);
}
);
width = 604;
},
{
layerId = "897F30B6-1700-43C7-9C60-A606C7C7F267";
shapes = (
{
closed = 1;
nodes = (
(450,-12,o),
(565,104,o),
(565,266,cs),
(565,443,o),
(491,583,o),
(349,700,c),
(277,700,l),
(397,602,o),
(460,506,o),
(493,395,c),
(499,393,l),
(458,478,o),
(373,508,o),
(297,508,cs),
(153,508,o),
(41,399,o),
(41,247,cs),
(41,104,o),
(150,-12,o),
(301,-12,cs)
);
},
{
closed = 1;
nodes = (
(203,47,o),
(112,125,o),
(112,249,cs),
(112,371,o),
(203,449,o),
(303,449,cs),
(403,449,o),
(494,371,o),
(494,249,cs),
(494,125,o),
(403,47,o),
(303,47,cs)
);
},
{
closed = 1;
nodes = (
(527,657,l),
(527,708,l),
(241,606,l),
(241,555,l)
);
}
);
width = 604;
}
);
unicode = 240;
},
{
glyphname = dcaron;
kernLeft = o;
kernRight = lcaron;
lastChange = "2023-01-24 20:02:55 +0000";
layers = (
{
associatedMasterId = "897F30B6-1700-43C7-9C60-A606C7C7F267";
layerId = "02575D39-7864-4EEF-9012-950E1A85E8A1";
name = public.background;
shapes = (
{
closed = 1;
nodes = (
(674,552,l),
(733,552,o),
(766,581,o),
(766,655,cs),
(766,679,o),
(763,707,o),
(756,740,c),
(675,740,l),
(675,664,l),
(721,664,l),
(721,639,ls),
(721,606,o),
(709,588,o),
(674,588,c)
);
},
{
alignment = -1;
ref = d;
}
);
width = 884;
},
{
layerId = "BD1314B0-2F62-4F06-89D3-8B766BA843F0";
shapes = (
{
closed = 1;
nodes = (
(724,495,o),
(765,547,o),
(765,632,cs),
(765,740,l),
(632,740,l),
(632,631,l),
(690,631,l),
(690,613,ls),
(690,571,o),
(674,551,o),
(640,551,c),
(640,495,l)
);
},
{
alignment = -1;
ref = d;
}
);
width = 789;
},
{
layerId = "897F30B6-1700-43C7-9C60-A606C7C7F267";
shapes = (
{
closed = 1;
nodes = (
(698,552,o),
(731,581,o),
(731,655,cs),
(731,740,l),
(640,740,l),
(640,664,l),
(686,664,l),
(686,639,ls),
(686,606,o),
(674,588,o),
(639,588,c),
(639,552,l)
);
},
{
alignment = -1;
pos = (23,0);
ref = d;
}
);
width = 789;
}
);
unicode = 271;
},
{
glyphname = dcroat;
kernLeft = o;
lastChange = "2023-01-24 20:02:55 +0000";
layers = (
{
associatedMasterId = "897F30B6-1700-43C7-9C60-A606C7C7F267";
layerId = "02575D39-7864-4EEF-9012-950E1A85E8A1";
name = public.background;
shapes = (
{
closed = 1;
nodes = (
(685,618,l),
(685,662,l),
(412,662,l),
(412,618,l)
);
},
{
alignment = -1;
ref = d;
}
);
width = 650;
},
{
layerId = "BD1314B0-2F62-4F06-89D3-8B766BA843F0";
shapes = (
{
closed = 1;
nodes = (
(653,564,l),
(653,647,l),
(315,647,l),
(315,564,l)
);
},
{
alignment = -1;
ref = d;
}
);
width = 666;
},
{
layerId = "897F30B6-1700-43C7-9C60-A606C7C7F267";
shapes = (
{
closed = 1;
nodes = (
(625,572,l),
(625,632,l),
(328,632,l),
(328,572,l)
);
},
{
alignment = -1;
pos = (-7,0);
ref = d;
}
);
width = 666;
}
);
metricLeft = o;
unicode = 273;
},
{
glyphname = schwa;
kernLeft = o;
kernRight = o;
lastChange = "2023-01-24 20:02:55 +0000";
layers = (
{
layerId = "BD1314B0-2F62-4F06-89D3-8B766BA843F0";
shapes = (
{
closed = 1;
nodes = (
(436,-12,o),
(539,99,o),
(539,253,cs),
(539,404,o),
(432,508,o),
(279,508,cs),
(160,508,o),
(70,435,o),
(43,342,c),
(186,342,l),
(201,372,o),
(234,394,o),
(280,394,cs),
(351,394,o),
(401,344,o),
(401,268,cs),
(401,239,ls),
(401,146,o),
(347,101,o),
(278,101,cs),
(218,101,o),
(177,136,o),
(169,211,c),
(440,211,l),
(440,295,l),
(30,295,l),
(26,278,o),
(26,248,o),
(26,234,cs),
(26,93,o),
(131,-12,o),
(279,-12,cs)
);
}
);
width = 564;
},
{
layerId = "897F30B6-1700-43C7-9C60-A606C7C7F267";
shapes = (
{
closed = 1;
nodes = (
(422,-12,o),
(521,89,o),
(521,247,cs),
(521,405,o),
(421,508,o),
(281,508,cs),
(165,508,o),
(90,441,o),
(65,350,c),
(133,350,l),
(155,411,o),
(207,448,o),
(281,448,cs),
(367,448,o),
(453,384,o),
(453,249,cs),
(453,222,ls),
(453,109,o),
(373,48,o),
(282,48,cs),
(191,48,o),
(123,107,o),
(119,221,c),
(467,221,l),
(467,281,l),
(57,281,l),
(52,262,o),
(51,236,o),
(51,217,cs),
(51,98,o),
(135,-12,o),
(279,-12,cs)
);
}
);
width = 564;
}
);
unicode = 601;
},
{
glyphname = gcommaaccent;
kernLeft = g;
kernRight = g;
lastChange = "2023-01-24 20:42:32 +0000";
layers = (
{
associatedMasterId = "897F30B6-1700-43C7-9C60-A606C7C7F267";
layerId = "02575D39-7864-4EEF-9012-950E1A85E8A1";
name = public.background;
shapes = (
{
closed = 1;
nodes = (
(406,595,l),
(406,672,l),
(360,672,l),
(360,696,ls),
(360,730,o),
(373,747,o),
(407,747,c),
(407,783,l),
(349,783,o),
(316,754,o),
(316,680,cs),
(316,656,o),
(319,628,o),
(325,595,c)
);
},
{
alignment = -1;
ref = g;
}
);
width = 668;
},
{
layerId = "BD1314B0-2F62-4F06-89D3-8B766BA843F0";
shapes = (
{
ref = g;
},
{
pos = (187,0);
ref = commaturnedabovecomb;
}
);
width = 636;
},
{
layerId = "897F30B6-1700-43C7-9C60-A606C7C7F267";
shapes = (
{
ref = g;
},
{
pos = (193,0);
ref = commaturnedabovecomb;
}
);
width = 636;
}
);
metricLeft = g;
metricRight = g;
unicode = 291;
},
{
glyphname = idotless;
kernLeft = n;
kernRight = u;
lastChange = "2023-01-26 17:51:09 +0000";
layers = (
{
associatedMasterId = "897F30B6-1700-43C7-9C60-A606C7C7F267";
layerId = "02575D39-7864-4EEF-9012-950E1A85E8A1";
name = public.background;
shapes = (
{
closed = 1;
nodes = (
(140,0,l),
(140,546,l),
(70,546,l),
(70,0,l)
);
}
);
width = 212;
},
{
anchors = (
{
name = ogonek;
pos = (176,0);
},
{
name = top;
pos = (107,496);
}
);
layerId = "BD1314B0-2F62-4F06-89D3-8B766BA843F0";
shapes = (
{
closed = 1;
nodes = (
(176,0,l),
(176,496,l),
(36,496,l),
(36,0,l)
);
}
);
width = 212;
},
{
anchors = (
{
name = ogonek;
pos = (140,0);
},
{
name = top;
pos = (105,496);
}
);
layerId = "897F30B6-1700-43C7-9C60-A606C7C7F267";
shapes = (
{
closed = 1;
nodes = (
(140,0,l),
(140,496,l),
(70,496,l),
(70,0,l)
);
}
);
width = 212;
}
);
metricRight = u;
unicode = 305;
},
{
glyphname = ij;
lastChange = "2023-01-24 20:42:52 +0000";
layers = (
{
layerId = "897F30B6-1700-43C7-9C60-A606C7C7F267";
shapes = (
{
closed = 1;
nodes = (
(198,-220,l),
(198,-160,l),
(91,-160,l),
(91,-220,l)
);
},
{
alignment = -1;
pos = (10,0);
ref = i;
},
{
pos = (206,0);
ref = j;
}
);
width = 465;
},
{
layerId = "BD1314B0-2F62-4F06-89D3-8B766BA843F0";
shapes = (
{
closed = 1;
nodes = (
(183,-220,l),
(183,-101,l),
(46,-101,l),
(46,-220,l)
);
},
{
ref = i;
},
{
alignment = -1;
pos = (211,0);
ref = j;
}
);
width = 465;
}
);
unicode = 307;
},
{
glyphname = jdotless;
lastChange = "2023-01-24 20:43:23 +0000";
layers = (
{
anchors = (
{
name = bottom;
pos = (134,-270);
},
{
name = top;
pos = (134,496);
}
);
layerId = "897F30B6-1700-43C7-9C60-A606C7C7F267";
shapes = (
{
closed = 1;
nodes = (
(45,-220,ls),
(133,-220,o),
(167,-189,o),
(167,-101,cs),
(167,496,l),
(97,496,l),
(97,-98,ls),
(97,-151,o),
(86,-160,o),
(34,-160,cs),
(-14,-160,l),
(-14,-220,l)
);
}
);
width = 267;
},
{
anchors = (
{
name = bottom;
pos = (134,-270);
},
{
name = top;
pos = (134,496);
}
);
layerId = "BD1314B0-2F62-4F06-89D3-8B766BA843F0";
shapes = (
{
closed = 1;
nodes = (
(46,-220,ls),
(154,-220,o),
(208,-189,o),
(208,-61,cs),
(208,496,l),
(68,496,l),
(68,-55,ls),
(68,-94,o),
(60,-101,o),
(18,-101,cs),
(-31,-101,l),
(-31,-220,l)
);
}
);
width = 267;
}
);
unicode = 567;
},
{
glyphname = kcommaaccent;
kernLeft = l;
kernRight = k;
lastChange = "2023-01-24 20:31:27 +0000";
layers = (
{
associatedMasterId = "897F30B6-1700-43C7-9C60-A606C7C7F267";
layerId = "02575D39-7864-4EEF-9012-950E1A85E8A1";
name = public.background;
shapes = (
{
closed = 1;
nodes = (
(198,-226,l),
(254,-226,o),
(288,-197,o),
(288,-119,cs),
(288,-100,o),
(285,-76,o),
(280,-52,c),
(201,-52,l),
(201,-121,l),
(244,-121,l),
(244,-135,ls),
(244,-171,o),
(231,-191,o),
(198,-191,c)
);
},
{
alignment = -1;
ref = k;
}
);
width = 484;
},
{
layerId = "BD1314B0-2F62-4F06-89D3-8B766BA843F0";
shapes = (
{
ref = k;
},
{
pos = (134,-166);
ref = commaaccentcomb;
}
);
width = 540;
},
{
layerId = "897F30B6-1700-43C7-9C60-A606C7C7F267";
shapes = (
{
ref = k;
},
{
pos = (115,-135);
ref = commaaccentcomb;
}
);
width = 540;
}
);
metricLeft = k;
metricRight = k;
unicode = 311;
},
{
glyphname = lcaron;
kernLeft = l;
kernRight = lcaron;
lastChange = "2023-01-24 20:26:44 +0000";
layers = (
{
associatedMasterId = "897F30B6-1700-43C7-9C60-A606C7C7F267";
layerId = "02575D39-7864-4EEF-9012-950E1A85E8A1";
name = public.background;
shapes = (
{
closed = 1;
nodes = (
(217,552,l),
(275,552,o),
(308,581,o),
(308,655,cs),
(308,679,o),
(306,707,o),
(299,740,c),
(218,740,l),
(218,664,l),
(264,664,l),
(264,639,ls),
(264,606,o),
(251,588,o),
(217,588,c)
);
},
{
alignment = -1;
ref = l;
}
);
width = 426;
},
{
layerId = "BD1314B0-2F62-4F06-89D3-8B766BA843F0";
shapes = (
{
closed = 1;
nodes = (
(334,495,o),
(375,547,o),
(375,632,cs),
(375,740,l),
(243,740,l),
(243,631,l),
(301,631,l),
(301,613,ls),
(301,571,o),
(285,551,o),
(251,551,c),
(251,495,l)
);
},
{
alignment = -1;
ref = l;
}
);
width = 401;
},
{
layerId = "897F30B6-1700-43C7-9C60-A606C7C7F267";
shapes = (
{
closed = 1;
nodes = (
(295,552,o),
(328,581,o),
(328,655,cs),
(328,740,l),
(238,740,l),
(238,664,l),
(284,664,l),
(284,639,ls),
(284,606,o),
(271,588,o),
(237,588,c),
(237,552,l)
);
},
{
alignment = -1;
pos = (20,0);
ref = l;
}
);
width = 401;
}
);
unicode = 318;
},
{
glyphname = lcommaaccent;
kernLeft = l;
kernRight = l;
lastChange = "2023-01-24 20:31:27 +0000";
layers = (
{
associatedMasterId = "897F30B6-1700-43C7-9C60-A606C7C7F267";
layerId = "02575D39-7864-4EEF-9012-950E1A85E8A1";
name = public.background;
shapes = (
{
closed = 1;
nodes = (
(69,-226,l),
(126,-226,o),
(160,-197,o),
(160,-119,cs),
(160,-100,o),
(157,-76,o),
(152,-52,c),
(73,-52,l),
(73,-121,l),
(116,-121,l),
(116,-135,ls),
(116,-171,o),
(102,-191,o),
(69,-191,c)
);
},
{
alignment = -1;
ref = l;
}
);
width = 275;
},
{
layerId = "BD1314B0-2F62-4F06-89D3-8B766BA843F0";
shapes = (
{
ref = l;
},
{
pos = (3,-166);
ref = commaaccentcomb;
}
);
width = 236;
},
{
layerId = "897F30B6-1700-43C7-9C60-A606C7C7F267";
shapes = (
{
ref = l;
},
{
pos = (-3,-135);
ref = commaaccentcomb;
}
);
width = 236;
}
);
unicode = 316;
},
{
glyphname = ldot;
kernLeft = l;
lastChange = "2023-08-14 16:45:48 +0000";
layers = (
{
associatedMasterId = "897F30B6-1700-43C7-9C60-A606C7C7F267";
layerId = "02575D39-7864-4EEF-9012-950E1A85E8A1";
name = public.background;
shapes = (
{
closed = 1;
nodes = (
(150,0,l),
(150,740,l),
(80,740,l),
(80,0,l)
);
},
{
closed = 1;
nodes = (
(280,322,o),
(301,343,o),
(301,368,cs),
(301,393,o),
(280,414,o),
(255,414,cs),
(229,414,o),
(209,393,o),
(209,368,cs),
(209,343,o),
(229,322,o),
(255,322,cs)
);
}
);
width = 407;
},
{
layerId = "BD1314B0-2F62-4F06-89D3-8B766BA843F0";
shapes = (
{
closed = 1;
nodes = (
(202,0,l),
(202,720,l),
(62,720,l),
(62,0,l)
);
},
{
alignment = -1;
pos = (197,45);
ref = periodcentered;
}
);
width = 401;
},
{
layerId = "897F30B6-1700-43C7-9C60-A606C7C7F267";
shapes = (
{
closed = 1;
nodes = (
(150,0,l),
(150,720,l),
(80,720,l),
(80,0,l)
);
},
{
alignment = -1;
pos = (145,23);
ref = periodcentered;
}
);
width = 331;
}
);
unicode = 320;
},
{
glyphname = lslash;
lastChange = "2023-01-24 19:35:08 +0000";
layers = (
{
associatedMasterId = "897F30B6-1700-43C7-9C60-A606C7C7F267";
layerId = "02575D39-7864-4EEF-9012-950E1A85E8A1";
name = public.background;
shapes = (
{
closed = 1;
nodes = (
(154,0,l),
(154,740,l),
(84,740,l),
(84,0,l)
);
},
{
closed = 1;
nodes = (
(230,439,l),
(230,494,l),
(9,398,l),
(9,343,l)
);
}
);
width = 299;
},
{
layerId = "BD1314B0-2F62-4F06-89D3-8B766BA843F0";
shapes = (
{
closed = 1;
nodes = (
(214,0,l),
(214,720,l),
(74,720,l),
(74,0,l)
);
},
{
closed = 1;
nodes = (
(283,375,l),
(283,493,l),
(6,400,l),
(6,283,l)
);
}
);
width = 289;
},
{
layerId = "897F30B6-1700-43C7-9C60-A606C7C7F267";
shapes = (
{
closed = 1;
nodes = (
(179,0,l),
(179,720,l),
(109,720,l),
(109,0,l)
);
},
{
closed = 1;
nodes = (
(255,439,l),
(255,494,l),
(34,398,l),
(34,343,l)
);
}
);
width = 289;
}
);
unicode = 322;
},
{
glyphname = ncommaaccent;
kernLeft = n;
kernRight = n;
lastChange = "2023-01-24 20:44:00 +0000";
layers = (
{
associatedMasterId = "897F30B6-1700-43C7-9C60-A606C7C7F267";
layerId = "02575D39-7864-4EEF-9012-950E1A85E8A1";
name = public.background;
shapes = (
{
closed = 1;
nodes = (
(275,-226,l),
(331,-226,o),
(365,-197,o),
(365,-119,cs),
(365,-100,o),
(362,-76,o),
(357,-52,c),
(278,-52,l),
(278,-121,l),
(321,-121,l),
(321,-135,ls),
(321,-171,o),
(308,-191,o),
(275,-191,c)
);
},
{
alignment = -1;
ref = n;
}
);
width = 618;
},
{
layerId = "BD1314B0-2F62-4F06-89D3-8B766BA843F0";
shapes = (
{
ref = n;
},
{
pos = (169,-166);
ref = commaaccentcomb;
}
);
width = 569;
},
{
layerId = "897F30B6-1700-43C7-9C60-A606C7C7F267";
shapes = (
{
ref = n;
},
{
pos = (172,-135);
ref = commaaccentcomb;
}
);
width = 569;
}
);
metricLeft = n;
metricRight = n;
unicode = 326;
},
{
glyphname = eng;
lastChange = "2023-01-24 19:35:08 +0000";
layers = (
{
layerId = "897F30B6-1700-43C7-9C60-A606C7C7F267";
shapes = (
{
closed = 1;
nodes = (
(379,-220,ls),
(467,-220,o),
(501,-189,o),
(501,-101,cs),
(501,205,l),
(431,205,l),
(431,-98,ls),
(431,-151,o),
(420,-160,o),
(368,-160,cs),
(320,-160,l),
(320,-220,l)
);
},
{
alignment = -1;
ref = n;
}
);
width = 569;
},
{
layerId = "BD1314B0-2F62-4F06-89D3-8B766BA843F0";
shapes = (
{
closed = 1;
nodes = (
(371,-220,ls),
(479,-220,o),
(533,-189,o),
(533,-61,cs),
(533,252,l),
(394,252,l),
(394,-55,ls),
(394,-94,o),
(386,-101,o),
(344,-101,cs),
(295,-101,l),
(294,-220,l)
);
},
{
alignment = -1;
ref = n;
}
);
width = 569;
}
);
unicode = 331;
},
{
glyphname = oslash;
lastChange = "2023-01-24 19:35:08 +0000";
layers = (
{
associatedMasterId = "897F30B6-1700-43C7-9C60-A606C7C7F267";
layerId = "02575D39-7864-4EEF-9012-950E1A85E8A1";
name = public.background;
shapes = (
{
closed = 1;
nodes = (
(100,0,l),
(596,546,l),
(544,546,l),
(47,0,l)
);
}
);
width = 586;
},
{
layerId = "BD1314B0-2F62-4F06-89D3-8B766BA843F0";
shapes = (
{
closed = 1;
nodes = (
(124,0,l),
(550,496,l),
(444,496,l),
(17,0,l)
);
},
{
closed = 1;
nodes = (
(427,-12,o),
(539,95,o),
(539,248,cs),
(539,401,o),
(428,508,o),
(284,508,cs),
(140,508,o),
(28,401,o),
(28,248,cs),
(28,95,o),
(140,-12,o),
(283,-12,cs)
);
},
{
closed = 1;
nodes = (
(216,96,o),
(160,147,o),
(160,248,cs),
(160,349,o),
(217,400,o),
(284,400,cs),
(351,400,o),
(407,349,o),
(407,248,cs),
(407,147,o),
(351,96,o),
(283,96,cs)
);
}
);
width = 567;
},
{
layerId = "897F30B6-1700-43C7-9C60-A606C7C7F267";
shapes = (
{
closed = 1;
nodes = (
(105,0,l),
(536,496,l),
(464,496,l),
(32,0,l)
);
},
{
closed = 1;
nodes = (
(422,-12,o),
(530,89,o),
(530,248,cs),
(530,407,o),
(424,508,o),
(285,508,cs),
(146,508,o),
(38,407,o),
(38,248,cs),
(38,89,o),
(144,-12,o),
(283,-12,cs)
);
},
{
closed = 1;
nodes = (
(193,48,o),
(110,115,o),
(110,248,cs),
(110,381,o),
(194,448,o),
(285,448,cs),
(375,448,o),
(458,381,o),
(458,248,cs),
(458,115,o),
(374,48,o),
(283,48,cs)
);
}
);
width = 567;
}
);
unicode = 248;
},
{
glyphname = oe;
kernLeft = o;
kernRight = e;
lastChange = "2023-01-24 19:35:08 +0000";
layers = (
{
associatedMasterId = "897F30B6-1700-43C7-9C60-A606C7C7F267";
layerId = "02575D39-7864-4EEF-9012-950E1A85E8A1";
name = public.background;
shapes = (
{
closed = 1;
nodes = (
(399,-8,o),
(488,47,o),
(529,144,c),
(568,47,o),
(653,-8,o),
(760,-8,cs),
(897,-8,o),
(986,70,o),
(1011,173,c),
(937,173,l),
(917,100,o),
(854,51,o),
(760,51,cs),
(655,51,o),
(567,122,o),
(567,258,cs),
(567,286,ls),
(567,424,o),
(657,494,o),
(760,494,cs),
(861,494,o),
(953,429,o),
(950,298,c),
(540,298,l),
(540,248,l),
(1017,248,l),
(1020,267,o),
(1021,281,o),
(1021,302,cs),
(1021,440,o),
(924,554,o),
(763,554,cs),
(654,554,o),
(568,499,o),
(530,403,c),
(489,499,o),
(401,554,o),
(294,554,c),
(141,554,o),
(21,447,o),
(21,273,c),
(21,100,o),
(137,-8,o),
(292,-8,c)
);
},
{
closed = 1;
nodes = (
(188,51,o),
(92,123,o),
(92,273,c),
(92,423,o),
(189,494,o),
(293,494,c),
(397,494,o),
(495,423,o),
(495,273,c),
(495,123,o),
(395,51,o),
(292,51,c)
);
}
);
width = 1111;
},
{
layerId = "BD1314B0-2F62-4F06-89D3-8B766BA843F0";
shapes = (
{
closed = 1;
nodes = (
(375,-12,o),
(440,18,o),
(483,70,c),
(530,18,o),
(600,-12,o),
(685,-12,cs),
(814,-12,o),
(910,68,o),
(937,171,c),
(793,171,l),
(775,132,o),
(738,102,o),
(684,102,cs),
(616,102,o),
(565,145,o),
(559,214,c),
(945,214,l),
(946,231,o),
(947,248,o),
(947,262,cs),
(947,403,o),
(838,508,o),
(685,508,cs),
(600,508,o),
(530,477,o),
(484,424,c),
(441,477,o),
(377,508,o),
(297,508,cs),
(148,508,o),
(31,401,o),
(31,248,cs),
(31,95,o),
(147,-12,o),
(297,-12,cs)
);
},
{
closed = 1;
nodes = (
(232,109,o),
(177,156,o),
(177,248,cs),
(177,340,o),
(233,387,o),
(297,387,cs),
(361,387,o),
(416,340,o),
(416,248,cs),
(416,156,o),
(361,109,o),
(297,109,cs)
);
},
{
closed = 1;
nodes = (
(563,298,l),
(575,363,o),
(626,395,o),
(686,395,cs),
(750,395,o),
(798,356,o),
(802,298,c)
);
}
);
width = 977;
},
{
layerId = "897F30B6-1700-43C7-9C60-A606C7C7F267";
shapes = (
{
closed = 1;
nodes = (
(374,-12,o),
(448,33,o),
(488,110,c),
(528,33,o),
(603,-12,o),
(696,-12,cs),
(818,-12,o),
(895,62,o),
(919,161,c),
(852,161,l),
(830,91,o),
(776,48,o),
(696,48,cs),
(613,48,o),
(530,108,o),
(524,233,c),
(925,233,l),
(926,252,o),
(926,265,o),
(926,279,cs),
(926,398,o),
(842,508,o),
(698,508,cs),
(603,508,o),
(527,463,o),
(487,387,c),
(449,464,o),
(375,508,o),
(283,508,cs),
(144,508,o),
(36,407,o),
(36,248,cs),
(36,89,o),
(142,-12,o),
(281,-12,cs)
);
},
{
closed = 1;
nodes = (
(191,48,o),
(108,115,o),
(108,248,cs),
(108,381,o),
(192,448,o),
(283,448,cs),
(373,448,o),
(456,381,o),
(456,248,cs),
(456,115,o),
(372,48,o),
(281,48,cs)
);
},
{
closed = 1;
nodes = (
(525,293,l),
(533,394,o),
(609,448,o),
(695,448,cs),
(786,448,o),
(854,390,o),
(858,293,c)
);
}
);
width = 977;
}
);
unicode = 339;
},
{
glyphname = thorn;
kernRight = o;
lastChange = "2023-01-24 19:35:08 +0000";
layers = (
{
associatedMasterId = "897F30B6-1700-43C7-9C60-A606C7C7F267";
layerId = "02575D39-7864-4EEF-9012-950E1A85E8A1";
name = public.background;
shapes = (
{
closed = 1;
nodes = (
(139,-258,l),
(139,136,l),
(171,53,o),
(247,-8,o),
(356,-8,c),
(505,-8,o),
(616,103,o),
(616,274,c),
(616,445,o),
(505,554,o),
(356,554,c),
(247,554,o),
(171,494,o),
(139,412,c),
(139,740,l),
(70,740,l),
(70,-258,l)
);
},
{
closed = 1;
nodes = (
(231,53,o),
(139,137,o),
(139,273,c),
(139,409,o),
(231,493,o),
(342,493,c),
(457,493,o),
(545,413,o),
(545,274,c),
(545,136,o),
(457,53,o),
(342,53,c)
);
}
);
width = 659;
},
{
layerId = "BD1314B0-2F62-4F06-89D3-8B766BA843F0";
shapes = (
{
closed = 1;
nodes = (
(188,-220,l),
(188,64,l),
(222,16,o),
(278,-12,o),
(351,-12,cs),
(489,-12,o),
(596,98,o),
(596,247,cs),
(596,396,o),
(489,508,o),
(351,508,cs),
(269,508,o),
(220,471,o),
(188,428,c),
(188,720,l),
(48,720,l),
(48,-220,l)
);
},
{
closed = 1;
nodes = (
(240,110,o),
(184,168,o),
(184,248,cs),
(184,327,o),
(240,386,o),
(318,386,cs),
(396,386,o),
(454,327,o),
(454,247,cs),
(454,168,o),
(396,110,o),
(318,110,cs)
);
}
);
width = 622;
},
{
layerId = "897F30B6-1700-43C7-9C60-A606C7C7F267";
shapes = (
{
closed = 1;
nodes = (
(153,-220,l),
(153,88,l),
(187,25,o),
(255,-12,o),
(339,-12,cs),
(490,-12,o),
(586,97,o),
(586,247,cs),
(586,397,o),
(490,508,o),
(340,508,cs),
(246,508,o),
(185,460,o),
(153,410,c),
(153,720,l),
(83,720,l),
(83,-220,l)
);
},
{
closed = 1;
nodes = (
(231,49,o),
(157,128,o),
(157,248,cs),
(157,368,o),
(231,447,o),
(336,447,cs),
(441,447,o),
(515,368,o),
(515,248,cs),
(515,128,o),
(441,49,o),
(336,49,cs)
);
}
);
width = 622;
}
);
metricLeft = l;
metricRight = o;
unicode = 254;
},
{
glyphname = rcommaaccent;
kernLeft = n;
kernRight = r;
lastChange = "2023-01-26 17:51:09 +0000";
layers = (
{
associatedMasterId = "897F30B6-1700-43C7-9C60-A606C7C7F267";
layerId = "02575D39-7864-4EEF-9012-950E1A85E8A1";
name = public.background;
shapes = (
{
closed = 1;
nodes = (
(70,-226,l),
(127,-226,o),
(160,-197,o),
(160,-119,cs),
(160,-100,o),
(158,-76,o),
(152,-52,c),
(73,-52,l),
(73,-121,l),
(116,-121,l),
(116,-135,ls),
(116,-171,o),
(103,-191,o),
(70,-191,c)
);
},
{
alignment = -1;
pos = (1,0);
ref = r;
}
);
width = 354;
},
{
layerId = "BD1314B0-2F62-4F06-89D3-8B766BA843F0";
shapes = (
{
ref = r;
},
{
pos = (-11,-166);
ref = commaaccentcomb;
}
);
width = 381;
},
{
layerId = "897F30B6-1700-43C7-9C60-A606C7C7F267";
shapes = (
{
ref = r;
},
{
pos = (-8,-135);
ref = commaaccentcomb;
}
);
width = 381;
}
);
metricLeft = r;
metricRight = r;
metricWidth = r;
unicode = 343;
},
{
glyphname = scommaaccent;
kernLeft = s;
kernRight = s;
lastChange = "2023-01-24 20:31:27 +0000";
layers = (
{
associatedMasterId = "897F30B6-1700-43C7-9C60-A606C7C7F267";
layerId = "02575D39-7864-4EEF-9012-950E1A85E8A1";
name = public.background;
shapes = (
{
closed = 1;
nodes = (
(221,-226,l),
(277,-226,o),
(311,-197,o),
(311,-119,cs),
(311,-100,o),
(308,-76,o),
(303,-52,c),
(224,-52,l),
(224,-121,l),
(267,-121,l),
(267,-135,ls),
(267,-171,o),
(254,-191,o),
(221,-191,c)
);
},
{
alignment = -1;
ref = s;
}
);
width = 532;
},
{
layerId = "BD1314B0-2F62-4F06-89D3-8B766BA843F0";
shapes = (
{
ref = s;
},
{
pos = (134,-166);
ref = commaaccentcomb;
}
);
width = 495;
},
{
layerId = "897F30B6-1700-43C7-9C60-A606C7C7F267";
shapes = (
{
ref = s;
},
{
pos = (140,-135);
ref = commaaccentcomb;
}
);
width = 495;
}
);
metricLeft = s;
metricRight = s;
unicode = 537;
},
{
color = 0;
glyphname = germandbls;
kernLeft = H;
kernRight = s;
lastChange = "2023-08-04 20:35:46 +0000";
layers = (
{
associatedMasterId = "897F30B6-1700-43C7-9C60-A606C7C7F267";
layerId = "02575D39-7864-4EEF-9012-950E1A85E8A1";
name = public.background;
shapes = (
{
closed = 1;
nodes = (
(543,-10,o),
(610,54,o),
(610,147,cs),
(610,222,o),
(570,271,o),
(474,302,cs),
(381,332,o),
(357,352,o),
(357,385,cs),
(357,453,o),
(503,486,o),
(503,609,cs),
(503,695,o),
(430,768,o),
(295,768,cs),
(146,768,o),
(72,679,o),
(72,560,cs),
(72,0,l),
(142,0,l),
(142,552,ls),
(142,649,o),
(190,709,o),
(294,709,cs),
(380,709,o),
(433,668,o),
(433,604,cs),
(433,509,o),
(286,479,o),
(286,376,cs),
(286,316,o),
(327,284,o),
(432,249,cs),
(509,224,o),
(538,195,o),
(538,142,cs),
(538,83,o),
(498,47,o),
(430,47,cs),
(355,47,o),
(309,95,o),
(303,167,c),
(232,167,l),
(242,57,o),
(319,-10,o),
(430,-10,cs)
);
}
);
width = 719;
},
{
layerId = "BD1314B0-2F62-4F06-89D3-8B766BA843F0";
shapes = (
{
closed = 1;
nodes = (
(481,388,o),
(524,444,o),
(524,524,cs),
(524,614,o),
(449,712,o),
(281,712,cs),
(136,712,o),
(47,633,o),
(47,499,cs),
(47,0,l),
(187,0,l),
(187,489,ls),
(187,551,o),
(209,594,o),
(281,594,cs),
(343,594,o),
(383,561,o),
(383,513,cs),
(383,455,o),
(337,425,o),
(265,425,cs),
(249,425,l),
(250,318,l),
(293,318,ls),
(417,318,o),
(451,263,o),
(451,213,cs),
(451,165,o),
(430,106,o),
(330,106,cs),
(290,106,o),
(263,112,o),
(239,118,c),
(239,7,l),
(265,-6,o),
(306,-12,o),
(349,-12,cs),
(472,-12,o),
(581,70,o),
(581,209,cs),
(581,318,o),
(512,382,o),
(398,402,c),
(412,369,l)
);
}
);
width = 605;
},
{
layerId = "897F30B6-1700-43C7-9C60-A606C7C7F267";
shapes = (
{
closed = 1;
nodes = (
(454,405,o),
(489,473,o),
(489,540,cs),
(489,634,o),
(406,712,o),
(292,712,cs),
(175,712,o),
(86,633,o),
(86,524,cs),
(86,0,l),
(156,0,l),
(156,505,ls),
(156,601,o),
(215,650,o),
(292,650,cs),
(363,650,o),
(417,602,o),
(417,536,cs),
(417,459,o),
(361,411,o),
(274,411,cs),
(231,411,l),
(231,350,l),
(278,350,ls),
(406,350,o),
(471,294,o),
(471,204,cs),
(471,116,o),
(405,54,o),
(308,54,cs),
(273,54,o),
(244,58,o),
(220,64,c),
(220,3,l),
(244,-3,o),
(278,-7,o),
(316,-7,cs),
(453,-7,o),
(541,90,o),
(541,206,cs),
(541,316,o),
(468,396,o),
(347,410,c),
(372,385,l)
);
}
);
width = 605;
}
);
unicode = 223;
},
{
glyphname = tcaron;
kernLeft = t;
kernRight = t;
lastChange = "2023-01-24 20:02:55 +0000";
layers = (
{
associatedMasterId = "897F30B6-1700-43C7-9C60-A606C7C7F267";
layerId = "02575D39-7864-4EEF-9012-950E1A85E8A1";
name = public.background;
shapes = (
{
closed = 1;
nodes = (
(243,591,l),
(301,591,o),
(334,616,o),
(334,683,cs),
(334,708,o),
(331,730,o),
(325,763,c),
(244,763,l),
(244,687,l),
(290,687,l),
(290,665,ls),
(290,640,o),
(277,627,o),
(243,627,c)
);
},
{
alignment = -1;
ref = t;
}
);
width = 416;
},
{
layerId = "BD1314B0-2F62-4F06-89D3-8B766BA843F0";
shapes = (
{
closed = 1;
nodes = (
(395,597,o),
(437,641,o),
(437,717,cs),
(437,750,o),
(431,777,o),
(420,816,c),
(304,816,l),
(304,708,l),
(362,708,l),
(362,690,ls),
(362,665,o),
(346,653,o),
(312,653,c),
(312,597,l)
);
},
{
alignment = -1;
ref = t;
}
);
width = 465;
},
{
layerId = "897F30B6-1700-43C7-9C60-A606C7C7F267";
shapes = (
{
closed = 1;
nodes = (
(371,591,o),
(404,616,o),
(404,683,cs),
(404,708,o),
(401,730,o),
(395,763,c),
(314,763,l),
(314,687,l),
(360,687,l),
(360,665,ls),
(360,640,o),
(347,627,o),
(313,627,c),
(313,591,l)
);
},
{
alignment = -1;
pos = (30,0);
ref = t;
}
);
width = 465;
}
);
unicode = 357;
},
{
glyphname = tcedilla;
kernLeft = t;
kernRight = t;
lastChange = "2023-01-24 20:28:42 +0000";
layers = (
{
associatedMasterId = "897F30B6-1700-43C7-9C60-A606C7C7F267";
layerId = "02575D39-7864-4EEF-9012-950E1A85E8A1";
name = public.background;
shapes = (
{
closed = 1;
nodes = (
(331,0,l),
(331,60,l),
(267,60,ls),
(204,60,o),
(181,81,o),
(181,148,cs),
(181,683,l),
(110,683,l),
(110,148,ls),
(110,39,o),
(161,0,o),
(256,0,cs)
);
},
{
closed = 1;
nodes = (
(247,-258,ls),
(317,-258,o),
(364,-220,o),
(364,-160,cs),
(364,-98,o),
(314,-65,o),
(236,-67,c),
(236,35,l),
(186,35,l),
(186,-112,l),
(233,-112,ls),
(283,-112,o),
(304,-129,o),
(304,-160,cs),
(304,-194,o),
(283,-211,o),
(233,-211,cs),
(147,-211,l),
(147,-258,l)
);
},
{
closed = 1;
nodes = (
(331,487,l),
(331,546,l),
(34,546,l),
(34,487,l)
);
},
{
alignment = -1;
ref = t;
}
);
width = 416;
},
{
layerId = "BD1314B0-2F62-4F06-89D3-8B766BA843F0";
shapes = (
{
ref = t;
},
{
pos = (135,-3);
ref = cedillacomb;
}
);
width = 400;
},
{
layerId = "897F30B6-1700-43C7-9C60-A606C7C7F267";
shapes = (
{
ref = t;
},
{
pos = (153,0);
ref = cedillacomb;
}
);
width = 400;
}
);
metricLeft = t;
metricWidth = t;
unicode = 355;
},
{
glyphname = tcommaaccent;
kernLeft = t;
kernRight = t;
lastChange = "2023-01-24 20:31:27 +0000";
layers = (
{
associatedMasterId = "897F30B6-1700-43C7-9C60-A606C7C7F267";
layerId = "02575D39-7864-4EEF-9012-950E1A85E8A1";
name = public.background;
shapes = (
{
closed = 1;
nodes = (
(34,-226,l),
(90,-226,o),
(124,-197,o),
(124,-119,cs),
(124,-100,o),
(122,-76,o),
(116,-52,c),
(37,-52,l),
(37,-121,l),
(80,-121,l),
(80,-135,ls),
(80,-171,o),
(67,-191,o),
(34,-191,c)
);
}
);
width = 200;
},
{
layerId = "BD1314B0-2F62-4F06-89D3-8B766BA843F0";
shapes = (
{
ref = t;
},
{
pos = (131,-166);
ref = commaaccentcomb;
}
);
width = 400;
},
{
layerId = "897F30B6-1700-43C7-9C60-A606C7C7F267";
shapes = (
{
ref = t;
},
{
pos = (125,-135);
ref = commaaccentcomb;
}
);
width = 400;
}
);
metricLeft = t;
metricRight = t;
unicode = 539;
},
{
glyphname = dieresiscomb;
lastChange = "2023-01-28 21:56:05 +0000";
layers = (
{
associatedMasterId = "897F30B6-1700-43C7-9C60-A606C7C7F267";
layerId = "02575D39-7864-4EEF-9012-950E1A85E8A1";
name = public.background;
shapes = (
{
closed = 1;
nodes = (
(71,623,o),
(92,644,o),
(92,669,cs),
(92,694,o),
(71,715,o),
(46,715,cs),
(20,715,o),
(0,694,o),
(0,669,cs),
(0,644,o),
(20,623,o),
(46,623,cs)
);
},
{
closed = 1;
nodes = (
(225,623,o),
(245,644,o),
(245,669,cs),
(245,694,o),
(225,715,o),
(200,715,cs),
(174,715,o),
(154,694,o),
(154,669,cs),
(154,644,o),
(174,623,o),
(200,623,cs)
);
}
);
width = 316;
},
{
anchors = (
{
name = _top;
pos = (160,496);
}
);
layerId = "BD1314B0-2F62-4F06-89D3-8B766BA843F0";
shapes = (
{
closed = 1;
nodes = (
(313,575,l),
(313,705,l),
(189,705,l),
(189,575,l)
);
},
{
closed = 1;
nodes = (
(130,575,l),
(130,705,l),
(6,705,l),
(6,575,l)
);
}
);
width = 316;
},
{
anchors = (
{
name = _top;
pos = (123,496);
}
);
layerId = "897F30B6-1700-43C7-9C60-A606C7C7F267";
shapes = (
{
closed = 1;
nodes = (
(245,597,l),
(245,700,l),
(149,700,l),
(149,597,l)
);
},
{
closed = 1;
nodes = (
(96,597,l),
(96,700,l),
(0,700,l),
(0,597,l)
);
}
);
width = 245;
}
);
unicode = 776;
},
{
glyphname = dotaccentcomb;
lastChange = "2023-01-24 21:25:38 +0000";
layers = (
{
associatedMasterId = "897F30B6-1700-43C7-9C60-A606C7C7F267";
layerId = "02575D39-7864-4EEF-9012-950E1A85E8A1";
name = public.background;
shapes = (
{
closed = 1;
nodes = (
(71,623,o),
(92,644,o),
(92,669,cs),
(92,694,o),
(71,715,o),
(46,715,cs),
(21,715,o),
(0,694,o),
(0,669,cs),
(0,644,o),
(21,623,o),
(46,623,cs)
);
}
);
width = 130;
},
{
anchors = (
{
name = _top;
pos = (65,496);
}
);
layerId = "BD1314B0-2F62-4F06-89D3-8B766BA843F0";
shapes = (
{
closed = 1;
nodes = (
(130,575,l),
(130,705,l),
(0,705,l),
(0,575,l)
);
}
);
width = 130;
},
{
anchors = (
{
name = _top;
pos = (51,496);
}
);
layerId = "897F30B6-1700-43C7-9C60-A606C7C7F267";
shapes = (
{
closed = 1;
nodes = (
(101,597,l),
(101,700,l),
(0,700,l),
(0,597,l)
);
}
);
width = 101;
}
);
unicode = 775;
},
{
glyphname = gravecomb;
lastChange = "2023-01-24 19:35:08 +0000";
layers = (
{
associatedMasterId = "897F30B6-1700-43C7-9C60-A606C7C7F267";
layerId = "02575D39-7864-4EEF-9012-950E1A85E8A1";
name = public.background;
shapes = (
{
closed = 1;
nodes = (
(205,642,l),
(0,770,l),
(0,707,l),
(205,588,l)
);
}
);
width = 230;
},
{
anchors = (
{
name = _top;
pos = (179,496);
}
);
layerId = "BD1314B0-2F62-4F06-89D3-8B766BA843F0";
shapes = (
{
closed = 1;
nodes = (
(230,634,l),
(0,753,l),
(0,642,l),
(230,535,l)
);
}
);
width = 230;
},
{
anchors = (
{
name = _top;
pos = (162,496);
}
);
layerId = "897F30B6-1700-43C7-9C60-A606C7C7F267";
shapes = (
{
closed = 1;
nodes = (
(205,612,l),
(0,740,l),
(0,657,l),
(205,538,l)
);
}
);
width = 205;
}
);
unicode = 768;
},
{
glyphname = acutecomb;
lastChange = "2023-08-08 15:47:28 +0000";
layers = (
{
associatedMasterId = "897F30B6-1700-43C7-9C60-A606C7C7F267";
layerId = "02575D39-7864-4EEF-9012-950E1A85E8A1";
name = public.background;
shapes = (
{
closed = 1;
nodes = (
(205,707,l),
(205,770,l),
(0,642,l),
(0,588,l)
);
}
);
width = 230;
},
{
anchors = (
{
name = _top;
pos = (51,496);
}
);
layerId = "BD1314B0-2F62-4F06-89D3-8B766BA843F0";
shapes = (
{
closed = 1;
nodes = (
(230,642,l),
(230,753,l),
(0,634,l),
(0,535,l)
);
}
);
width = 230;
},
{
anchors = (
{
name = _top;
pos = (73,496);
}
);
layerId = "897F30B6-1700-43C7-9C60-A606C7C7F267";
shapes = (
{
closed = 1;
nodes = (
(205,657,l),
(205,737,l),
(0,612,l),
(0,538,l)
);
}
);
width = 205;
}
);
unicode = 769;
},
{
glyphname = hungarumlautcomb;
lastChange = "2023-01-24 19:35:08 +0000";
layers = (
{
associatedMasterId = "897F30B6-1700-43C7-9C60-A606C7C7F267";
layerId = "02575D39-7864-4EEF-9012-950E1A85E8A1";
name = public.background;
shapes = (
{
closed = 1;
nodes = (
(186,601,l),
(270,740,l),
(207,740,l),
(138,601,l)
);
},
{
closed = 1;
nodes = (
(49,601,l),
(128,740,l),
(65,740,l),
(0,601,l)
);
}
);
width = 373;
},
{
anchors = (
{
name = _top;
pos = (144,496);
}
);
layerId = "BD1314B0-2F62-4F06-89D3-8B766BA843F0";
shapes = (
{
closed = 1;
nodes = (
(264,543,l),
(373,730,l),
(260,730,l),
(176,543,l)
);
},
{
closed = 1;
nodes = (
(88,543,l),
(185,730,l),
(72,730,l),
(0,543,l)
);
}
);
width = 373;
},
{
anchors = (
{
name = _top;
pos = (102,496);
}
);
layerId = "897F30B6-1700-43C7-9C60-A606C7C7F267";
shapes = (
{
closed = 1;
nodes = (
(186,551,l),
(270,690,l),
(187,690,l),
(118,551,l)
);
},
{
closed = 1;
nodes = (
(69,551,l),
(148,690,l),
(65,690,l),
(0,551,l)
);
}
);
width = 270;
}
);
unicode = 779;
},
{
glyphname = circumflexcomb;
lastChange = "2023-01-24 19:35:08 +0000";
layers = (
{
associatedMasterId = "897F30B6-1700-43C7-9C60-A606C7C7F267";
layerId = "02575D39-7864-4EEF-9012-950E1A85E8A1";
name = public.background;
shapes = (
{
closed = 1;
nodes = (
(134,688,l),
(268,604,l),
(268,661,l),
(134,743,l),
(0,661,l),
(0,604,l)
);
}
);
width = 297;
},
{
anchors = (
{
name = _top;
pos = (149,496);
}
);
layerId = "BD1314B0-2F62-4F06-89D3-8B766BA843F0";
shapes = (
{
closed = 1;
nodes = (
(149,623,l),
(297,540,l),
(297,639,l),
(149,719,l),
(0,639,l),
(0,540,l)
);
}
);
width = 297;
},
{
anchors = (
{
name = _top;
pos = (134,496);
}
);
layerId = "897F30B6-1700-43C7-9C60-A606C7C7F267";
shapes = (
{
closed = 1;
nodes = (
(134,638,l),
(268,554,l),
(268,631,l),
(134,713,l),
(0,631,l),
(0,554,l)
);
}
);
width = 268;
}
);
unicode = 770;
},
{
glyphname = caroncomb;
lastChange = "2023-01-24 19:35:08 +0000";
layers = (
{
associatedMasterId = "897F30B6-1700-43C7-9C60-A606C7C7F267";
layerId = "02575D39-7864-4EEF-9012-950E1A85E8A1";
name = public.background;
shapes = (
{
closed = 1;
nodes = (
(268,685,l),
(268,741,l),
(134,658,l),
(0,741,l),
(0,685,l),
(134,603,l)
);
}
);
width = 297;
},
{
anchors = (
{
name = _top;
pos = (149,496);
}
);
layerId = "BD1314B0-2F62-4F06-89D3-8B766BA843F0";
shapes = (
{
closed = 1;
nodes = (
(297,620,l),
(297,719,l),
(149,633,l),
(0,719,l),
(0,620,l),
(149,540,l)
);
}
);
width = 297;
},
{
anchors = (
{
name = _top;
pos = (134,496);
}
);
layerId = "897F30B6-1700-43C7-9C60-A606C7C7F267";
shapes = (
{
closed = 1;
nodes = (
(268,635,l),
(268,711,l),
(134,628,l),
(0,711,l),
(0,635,l),
(134,553,l)
);
}
);
width = 268;
}
);
unicode = 780;
},
{
glyphname = brevecomb;
lastChange = "2023-08-08 15:49:14 +0000";
layers = (
{
associatedMasterId = "897F30B6-1700-43C7-9C60-A606C7C7F267";
layerId = "02575D39-7864-4EEF-9012-950E1A85E8A1";
name = public.background;
shapes = (
{
closed = 1;
nodes = (
(225,606,o),
(271,662,o),
(271,729,cs),
(271,742,l),
(226,742,l),
(226,691,o),
(199,662,o),
(135,662,c),
(71,662,o),
(44,691,o),
(44,742,c),
(0,742,l),
(0,729,ls),
(0,662,o),
(45,606,o),
(135,606,c)
);
}
);
width = 320;
},
{
anchors = (
{
name = _top;
pos = (159,496);
}
);
layerId = "BD1314B0-2F62-4F06-89D3-8B766BA843F0";
shapes = (
{
closed = 1;
nodes = (
(249,543,o),
(320,587,o),
(320,718,c),
(235,718,l),
(235,678,o),
(216,630,o),
(160,630,cs),
(104,630,o),
(85,678,o),
(85,718,c),
(0,718,l),
(0,587,o),
(71,543,o),
(160,543,cs)
);
}
);
width = 320;
},
{
anchors = (
{
name = _top;
pos = (136,496);
}
);
layerId = "897F30B6-1700-43C7-9C60-A606C7C7F267";
shapes = (
{
closed = 1;
nodes = (
(205,573,o),
(270,604,o),
(270,709,c),
(216,709,l),
(216,664,o),
(192,629,o),
(135,629,cs),
(78,629,o),
(54,664,o),
(54,709,c),
(0,709,l),
(0,604,o),
(65,573,o),
(135,573,cs)
);
}
);
width = 271;
}
);
unicode = 774;
},
{
glyphname = ringcomb;
lastChange = "2023-01-24 20:34:02 +0000";
layers = (
{
associatedMasterId = "897F30B6-1700-43C7-9C60-A606C7C7F267";
layerId = "02575D39-7864-4EEF-9012-950E1A85E8A1";
name = public.background;
shapes = (
{
closed = 1;
nodes = (
(159,610,o),
(204,648,o),
(204,710,cs),
(204,772,o),
(159,810,o),
(102,810,cs),
(47,810,o),
(0,772,o),
(0,710,cs),
(0,648,o),
(47,610,o),
(102,610,cs)
);
},
{
closed = 1;
nodes = (
(70,649,o),
(44,673,o),
(44,710,cs),
(44,748,o),
(70,771,o),
(102,771,cs),
(135,771,o),
(161,748,o),
(161,710,cs),
(161,673,o),
(135,649,o),
(102,649,cs)
);
}
);
width = 232;
},
{
anchors = (
{
name = _top;
pos = (116,496);
}
);
layerId = "BD1314B0-2F62-4F06-89D3-8B766BA843F0";
shapes = (
{
closed = 1;
nodes = (
(180,544,o),
(232,588,o),
(232,659,cs),
(232,730,o),
(180,773,o),
(116,773,cs),
(53,773,o),
(0,730,o),
(0,659,cs),
(0,588,o),
(53,544,o),
(116,544,cs)
);
},
{
closed = 1;
nodes = (
(91,611,o),
(70,630,o),
(70,659,cs),
(70,688,o),
(91,706,o),
(116,706,cs),
(142,706,o),
(162,688,o),
(162,659,cs),
(162,630,o),
(142,611,o),
(116,611,cs)
);
}
);
width = 232;
},
{
anchors = (
{
name = _top;
pos = (102,496);
}
);
layerId = "897F30B6-1700-43C7-9C60-A606C7C7F267";
shapes = (
{
closed = 1;
nodes = (
(159,560,o),
(204,598,o),
(204,660,cs),
(204,722,o),
(159,760,o),
(102,760,cs),
(47,760,o),
(0,722,o),
(0,660,cs),
(0,598,o),
(47,560,o),
(102,560,cs)
);
},
{
closed = 1;
nodes = (
(77,611,o),
(56,630,o),
(56,660,cs),
(56,690,o),
(77,709,o),
(102,709,cs),
(129,709,o),
(149,690,o),
(149,660,cs),
(149,630,o),
(129,611,o),
(102,611,cs)
);
}
);
width = 204;
}
);
unicode = 778;
},
{
color = 0;
glyphname = tildecomb;
lastChange = "2023-01-26 17:53:58 +0000";
layers = (
{
associatedMasterId = "897F30B6-1700-43C7-9C60-A606C7C7F267";
layerId = "02575D39-7864-4EEF-9012-950E1A85E8A1";
name = public.background;
shapes = (
{
closed = 1;
nodes = (
(244,604,o),
(280,638,o),
(286,697,c),
(244,697,l),
(240,667,o),
(222,652,o),
(200,652,cs),
(157,652,o),
(140,699,o),
(88,699,cs),
(41,699,o),
(8,667,o),
(0,606,c),
(43,606,l),
(47,637,o),
(63,651,o),
(85,651,cs),
(126,651,o),
(144,604,o),
(197,604,cs)
);
}
);
width = 365;
},
{
anchors = (
{
name = _top;
pos = (179,496);
}
);
layerId = "BD1314B0-2F62-4F06-89D3-8B766BA843F0";
shapes = (
{
closed = 1;
nodes = (
(305,560,o),
(351,601,o),
(365,691,c),
(291,691,l),
(287,661,o),
(271,646,o),
(248,646,cs),
(207,646,o),
(180,692,o),
(123,692,cs),
(59,692,o),
(14,652,o),
(0,561,c),
(73,561,l),
(78,592,o),
(94,606,o),
(117,606,cs),
(157,606,o),
(184,560,o),
(242,560,cs)
);
}
);
width = 365;
},
{
anchors = (
{
name = _top;
pos = (132,496);
}
);
layerId = "897F30B6-1700-43C7-9C60-A606C7C7F267";
shapes = (
{
closed = 1;
nodes = (
(244,554,o),
(280,588,o),
(286,667,c),
(229,667,l),
(227,638,o),
(212,624,o),
(194,624,cs),
(167,624,o),
(140,669,o),
(88,669,cs),
(41,669,o),
(8,637,o),
(0,556,c),
(58,556,l),
(60,586,o),
(73,599,o),
(91,599,cs),
(116,599,o),
(144,554,o),
(197,554,cs)
);
}
);
width = 286;
}
);
unicode = 771;
},
{
glyphname = macroncomb;
lastChange = "2023-08-08 15:43:10 +0000";
layers = (
{
associatedMasterId = "897F30B6-1700-43C7-9C60-A606C7C7F267";
layerId = "02575D39-7864-4EEF-9012-950E1A85E8A1";
name = public.background;
shapes = (
{
closed = 1;
nodes = (
(339,646,l),
(339,700,l),
(0,700,l),
(0,646,l)
);
}
);
width = 381;
},
{
anchors = (
{
name = _top;
pos = (191,496);
}
);
layerId = "BD1314B0-2F62-4F06-89D3-8B766BA843F0";
shapes = (
{
closed = 1;
nodes = (
(381,575,l),
(381,674,l),
(0,674,l),
(0,575,l)
);
}
);
width = 381;
},
{
anchors = (
{
name = _top;
pos = (170,496);
}
);
layerId = "897F30B6-1700-43C7-9C60-A606C7C7F267";
shapes = (
{
closed = 1;
nodes = (
(339,596,l),
(339,670,l),
(0,670,l),
(0,596,l)
);
}
);
width = 339;
}
);
unicode = 772;
},
{
glyphname = commaaccentcomb;
lastChange = "2023-01-24 20:31:18 +0000";
layers = (
{
anchors = (
{
name = _bottom;
pos = (114,135);
},
{
name = bottom;
pos = (114,-97);
}
);
layerId = "897F30B6-1700-43C7-9C60-A606C7C7F267";
shapes = (
{
closed = 1;
nodes = (
(126,-97,o),
(159,-68,o),
(159,5,cs),
(159,91,l),
(68,91,l),
(68,15,l),
(114,15,l),
(114,-10,ls),
(114,-44,o),
(102,-62,o),
(68,-62,c),
(68,-97,l)
);
}
);
width = 230;
},
{
anchors = (
{
name = _bottom;
pos = (116,166);
},
{
name = bottom;
pos = (116,-103);
}
);
layerId = "BD1314B0-2F62-4F06-89D3-8B766BA843F0";
shapes = (
{
closed = 1;
nodes = (
(141,-103,o),
(182,-57,o),
(182,18,cs),
(182,127,l),
(50,127,l),
(50,18,l),
(108,18,l),
(108,-1,ls),
(108,-32,o),
(91,-47,o),
(57,-47,c),
(57,-103,l)
);
}
);
width = 230;
}
);
unicode = 806;
},
{
color = 0;
glyphname = cedillacomb;
lastChange = "2023-01-26 17:56:35 +0000";
layers = (
{
associatedMasterId = "897F30B6-1700-43C7-9C60-A606C7C7F267";
layerId = "02575D39-7864-4EEF-9012-950E1A85E8A1";
name = public.background;
shapes = (
{
closed = 1;
nodes = (
(100,-258,ls),
(170,-258,o),
(217,-220,o),
(217,-160,cs),
(217,-98,o),
(167,-65,o),
(89,-67,c),
(89,7,l),
(40,7,l),
(40,-112,l),
(86,-112,ls),
(136,-112,o),
(158,-129,o),
(158,-160,cs),
(158,-194,o),
(136,-211,o),
(86,-211,cs),
(0,-211,l),
(0,-258,l)
);
}
);
width = 270;
},
{
anchors = (
{
name = _bottom;
pos = (112,3);
}
);
layerId = "BD1314B0-2F62-4F06-89D3-8B766BA843F0";
shapes = (
{
closed = 1;
nodes = (
(137,-264,ls),
(207,-264,o),
(270,-229,o),
(270,-154,cs),
(270,-89,o),
(217,-57,o),
(160,-57,cs),
(149,-57,o),
(139,-58,o),
(128,-60,c),
(180,7,l),
(83,7,l),
(32,-100,ls),
(31,-103,o),
(30,-106,o),
(30,-108,cs),
(30,-115,o),
(35,-119,o),
(44,-119,cs),
(117,-119,ls),
(150,-119,o),
(173,-125,o),
(173,-151,cs),
(173,-178,o),
(150,-185,o),
(117,-185,cs),
(0,-185,l),
(0,-264,l)
);
}
);
width = 270;
},
{
anchors = (
{
name = _bottom;
pos = (86,0);
}
);
layerId = "897F30B6-1700-43C7-9C60-A606C7C7F267";
shapes = (
{
closed = 1;
nodes = (
(100,-258,ls),
(170,-258,o),
(217,-220,o),
(217,-160,cs),
(217,-101,o),
(171,-67,o),
(98,-67,cs),
(95,-67,o),
(92,-67,o),
(89,-67,c),
(129,7,l),
(80,7,l),
(34,-101,ls),
(33,-103,o),
(33,-105,o),
(33,-106,cs),
(33,-110,o),
(36,-112,o),
(39,-112,cs),
(86,-112,ls),
(136,-112,o),
(158,-129,o),
(158,-160,cs),
(158,-194,o),
(136,-211,o),
(86,-211,cs),
(0,-211,l),
(0,-258,l)
);
}
);
width = 217;
}
);
unicode = 807;
},
{
glyphname = ogonekcomb;
lastChange = "2023-01-24 19:35:08 +0000";
layers = (
{
associatedMasterId = "897F30B6-1700-43C7-9C60-A606C7C7F267";
layerId = "02575D39-7864-4EEF-9012-950E1A85E8A1";
name = public.background;
shapes = (
{
closed = 1;
nodes = (
(137,-201,o),
(163,-196,o),
(185,-188,c),
(185,-139,l),
(163,-148,o),
(140,-153,o),
(121,-153,cs),
(84,-153,o),
(59,-135,o),
(59,-102,cs),
(59,-76,o),
(75,-52,o),
(122,-29,cs),
(182,0,l),
(163,38,l),
(108,13,ls),
(29,-23,o),
(0,-64,o),
(0,-109,cs),
(0,-176,o),
(56,-201,o),
(113,-201,cs)
);
}
);
width = 227;
},
{
anchors = (
{
name = _ogonek;
pos = (222,0);
}
);
layerId = "BD1314B0-2F62-4F06-89D3-8B766BA843F0";
shapes = (
{
closed = 1;
nodes = (
(170,-212,o),
(201,-206,o),
(227,-198,c),
(227,-116,l),
(201,-126,o),
(175,-131,o),
(155,-131,cs),
(124,-131,o),
(105,-116,o),
(105,-92,cs),
(105,-69,o),
(123,-49,o),
(171,-25,cs),
(222,0,l),
(191,65,l),
(146,46,ls),
(34,-2,o),
(0,-50,o),
(0,-105,cs),
(0,-179,o),
(62,-212,o),
(137,-212,cs)
);
}
);
width = 227;
},
{
anchors = (
{
name = _ogonek;
pos = (182,0);
}
);
layerId = "897F30B6-1700-43C7-9C60-A606C7C7F267";
shapes = (
{
closed = 1;
nodes = (
(137,-201,o),
(163,-196,o),
(185,-188,c),
(185,-139,l),
(163,-148,o),
(140,-153,o),
(121,-153,cs),
(84,-153,o),
(59,-135,o),
(59,-102,cs),
(59,-76,o),
(75,-52,o),
(122,-29,cs),
(182,0,l),
(163,38,l),
(108,13,ls),
(29,-23,o),
(0,-64,o),
(0,-109,cs),
(0,-176,o),
(56,-201,o),
(113,-201,cs)
);
}
);
width = 185;
}
);
unicode = 808;
},
{
glyphname = caroncomb.alt;
lastChange = "2023-08-14 16:48:58 +0000";
layers = (
{
layerId = "897F30B6-1700-43C7-9C60-A606C7C7F267";
shapes = (
{
closed = 1;
nodes = (
(90,552,o),
(123,581,o),
(123,655,cs),
(123,740,l),
(32,740,l),
(32,664,l),
(78,664,l),
(78,639,ls),
(78,606,o),
(66,588,o),
(31,588,c),
(31,552,l)
);
}
);
width = 155;
},
{
layerId = "BD1314B0-2F62-4F06-89D3-8B766BA843F0";
shapes = (
{
closed = 1;
nodes = (
(103,495,o),
(144,547,o),
(144,632,cs),
(144,740,l),
(11,740,l),
(11,631,l),
(69,631,l),
(69,613,ls),
(69,571,o),
(53,551,o),
(19,551,c),
(19,495,l)
);
}
);
width = 155;
}
);
},
{
glyphname = dieresiscomb.case;
lastChange = "2023-01-28 21:13:17 +0000";
layers = (
{
associatedMasterId = "897F30B6-1700-43C7-9C60-A606C7C7F267";
layerId = "02575D39-7864-4EEF-9012-950E1A85E8A1";
name = public.background;
shapes = (
{
closed = 1;
nodes = (
(71,623,o),
(92,644,o),
(92,669,cs),
(92,694,o),
(71,715,o),
(46,715,cs),
(20,715,o),
(0,694,o),
(0,669,cs),
(0,644,o),
(20,623,o),
(46,623,cs)
);
},
{
closed = 1;
nodes = (
(225,623,o),
(245,644,o),
(245,669,cs),
(245,694,o),
(225,715,o),
(200,715,cs),
(174,715,o),
(154,694,o),
(154,669,cs),
(154,644,o),
(174,623,o),
(200,623,cs)
);
}
);
width = 316;
},
{
layerId = "BD1314B0-2F62-4F06-89D3-8B766BA843F0";
shapes = (
{
pos = (0,215);
ref = dieresiscomb;
}
);
width = 316;
},
{
layerId = "897F30B6-1700-43C7-9C60-A606C7C7F267";
shapes = (
{
pos = (0,187);
ref = dieresiscomb;
}
);
width = 245;
},
{
anchors = (
{
name = _top;
pos = (122,700);
}
);
associatedMasterId = "897F30B6-1700-43C7-9C60-A606C7C7F267";
layerId = "F6160AC2-0DE3-4A03-AD20-0D9313839BB9";
name = "28 Jan 23, 22:05";
shapes = (
{
closed = 1;
nodes = (
(245,784,l),
(245,887,l),
(149,887,l),
(149,784,l)
);
},
{
closed = 1;
nodes = (
(96,784,l),
(96,887,l),
(0,887,l),
(0,784,l)
);
}
);
visible = 1;
width = 245;
},
{
associatedMasterId = "BD1314B0-2F62-4F06-89D3-8B766BA843F0";
layerId = "E7C929DC-B1C1-40E6-A5BD-1E5BD91E819C";
name = "28 Jan 23, 22:08";
shapes = (
{
ref = dieresiscomb;
}
);
visible = 1;
width = 316;
},
{
associatedMasterId = "897F30B6-1700-43C7-9C60-A606C7C7F267";
layerId = "35F93952-2E0C-4D70-AD4D-D25E358468F5";
name = "28 Jan 23, 22:11";
shapes = (
{
ref = dieresiscomb;
}
);
visible = 1;
width = 245;
},
{
associatedMasterId = "BD1314B0-2F62-4F06-89D3-8B766BA843F0";
layerId = "495D133D-166A-40FC-AED4-8B7F6EBA4D85";
name = "28 Jan 23, 22:11";
shapes = (
{
pos = (0,215);
ref = dieresiscomb;
}
);
visible = 1;
width = 316;
}
);
},
{
glyphname = dotaccentcomb.case;
lastChange = "2023-08-04 18:41:21 +0000";
layers = (
{
associatedMasterId = "897F30B6-1700-43C7-9C60-A606C7C7F267";
layerId = "02575D39-7864-4EEF-9012-950E1A85E8A1";
name = public.background;
shapes = (
{
closed = 1;
nodes = (
(71,623,o),
(92,644,o),
(92,669,cs),
(92,694,o),
(71,715,o),
(46,715,cs),
(21,715,o),
(0,694,o),
(0,669,cs),
(0,644,o),
(21,623,o),
(46,623,cs)
);
}
);
width = 130;
},
{
layerId = "BD1314B0-2F62-4F06-89D3-8B766BA843F0";
shapes = (
{
pos = (0,215);
ref = dotaccentcomb;
}
);
width = 130;
},
{
layerId = "897F30B6-1700-43C7-9C60-A606C7C7F267";
shapes = (
{
alignment = -1;
pos = (0,187);
ref = dotaccentcomb;
}
);
width = 101;
},
{
anchors = (
{
name = _top;
pos = (65,700);
}
);
associatedMasterId = "BD1314B0-2F62-4F06-89D3-8B766BA843F0";
layerId = "5FAC2DC6-9556-4974-8272-3A70D2C3F02C";
name = "28 Jan 23, 22:08";
shapes = (
{
closed = 1;
nodes = (
(152,767,l),
(152,923,l),
(-21,923,l),
(-21,767,l)
);
}
);
visible = 1;
width = 130;
},
{
associatedMasterId = "897F30B6-1700-43C7-9C60-A606C7C7F267";
layerId = "00BFE720-8864-47F9-8AFA-A870C8670026";
name = "28 Jan 23, 22:11";
shapes = (
{
alignment = 1;
ref = dotaccentcomb;
}
);
visible = 1;
width = 101;
},
{
associatedMasterId = "BD1314B0-2F62-4F06-89D3-8B766BA843F0";
layerId = "CBB8022D-DF63-4CB6-9F95-BA19FEC87A4C";
name = "28 Jan 23, 22:11";
shapes = (
{
ref = dotaccentcomb;
}
);
visible = 1;
width = 130;
}
);
},
{
glyphname = gravecomb.case;
lastChange = "2023-01-28 21:13:49 +0000";
layers = (
{
associatedMasterId = "897F30B6-1700-43C7-9C60-A606C7C7F267";
layerId = "02575D39-7864-4EEF-9012-950E1A85E8A1";
name = public.background;
shapes = (
{
closed = 1;
nodes = (
(205,642,l),
(0,770,l),
(0,707,l),
(205,588,l)
);
}
);
width = 230;
},
{
layerId = "BD1314B0-2F62-4F06-89D3-8B766BA843F0";
shapes = (
{
pos = (0,204);
ref = gravecomb;
}
);
width = 230;
},
{
layerId = "897F30B6-1700-43C7-9C60-A606C7C7F267";
shapes = (
{
pos = (0,204);
ref = gravecomb;
}
);
width = 205;
},
{
anchors = (
{
name = _top;
pos = (162,700);
}
);
associatedMasterId = "897F30B6-1700-43C7-9C60-A606C7C7F267";
layerId = "0ECD813E-DD38-4F8F-AD05-45822CD800D5";
name = "28 Jan 23, 22:11";
shapes = (
{
closed = 1;
nodes = (
(205,816,l),
(0,944,l),
(0,861,l),
(205,742,l)
);
}
);
visible = 1;
width = 205;
},
{
anchors = (
{
name = _top;
pos = (179,700);
}
);
associatedMasterId = "BD1314B0-2F62-4F06-89D3-8B766BA843F0";
layerId = "D078AA9F-2A73-4015-94CB-AC017456AF36";
name = "28 Jan 23, 22:11";
shapes = (
{
closed = 1;
nodes = (
(230,838,l),
(0,957,l),
(0,846,l),
(230,739,l)
);
}
);
visible = 1;
width = 230;
}
);
},
{
glyphname = acutecomb.case;
lastChange = "2023-01-28 21:14:03 +0000";
layers = (
{
associatedMasterId = "897F30B6-1700-43C7-9C60-A606C7C7F267";
layerId = "02575D39-7864-4EEF-9012-950E1A85E8A1";
name = public.background;
shapes = (
{
closed = 1;
nodes = (
(205,707,l),
(205,770,l),
(0,642,l),
(0,588,l)
);
}
);
width = 230;
},
{
layerId = "BD1314B0-2F62-4F06-89D3-8B766BA843F0";
shapes = (
{
pos = (0,204);
ref = acutecomb;
}
);
width = 230;
},
{
layerId = "897F30B6-1700-43C7-9C60-A606C7C7F267";
shapes = (
{
pos = (0,204);
ref = acutecomb;
}
);
width = 205;
},
{
anchors = (
{
name = _top;
pos = (43,700);
}
);
associatedMasterId = "897F30B6-1700-43C7-9C60-A606C7C7F267";
layerId = "C7627D2E-B498-42B9-A8F5-28543C881383";
name = "28 Jan 23, 22:11";
shapes = (
{
closed = 1;
nodes = (
(205,861,l),
(205,944,l),
(0,816,l),
(0,742,l)
);
}
);
visible = 1;
width = 205;
},
{
anchors = (
{
name = _top;
pos = (51,700);
}
);
associatedMasterId = "BD1314B0-2F62-4F06-89D3-8B766BA843F0";
layerId = "77841FBB-C81F-4A15-8010-E4768BAF5F80";
name = "28 Jan 23, 22:11";
shapes = (
{
closed = 1;
nodes = (
(230,846,l),
(230,957,l),
(0,838,l),
(0,739,l)
);
}
);
visible = 1;
width = 230;
}
);
},
{
glyphname = hungarumlautcomb.case;
lastChange = "2023-01-28 21:14:15 +0000";
layers = (
{
associatedMasterId = "897F30B6-1700-43C7-9C60-A606C7C7F267";
layerId = "02575D39-7864-4EEF-9012-950E1A85E8A1";
name = public.background;
shapes = (
{
closed = 1;
nodes = (
(186,601,l),
(270,740,l),
(207,740,l),
(138,601,l)
);
},
{
closed = 1;
nodes = (
(49,601,l),
(128,740,l),
(65,740,l),
(0,601,l)
);
}
);
width = 373;
},
{
layerId = "BD1314B0-2F62-4F06-89D3-8B766BA843F0";
shapes = (
{
pos = (0,204);
ref = hungarumlautcomb;
}
);
width = 373;
},
{
layerId = "897F30B6-1700-43C7-9C60-A606C7C7F267";
shapes = (
{
pos = (0,204);
ref = hungarumlautcomb;
}
);
width = 270;
},
{
anchors = (
{
name = _top;
pos = (102,700);
}
);
associatedMasterId = "897F30B6-1700-43C7-9C60-A606C7C7F267";
layerId = "886DA043-6147-41F9-80A2-8A99ED22C27A";
name = "28 Jan 23, 22:11";
shapes = (
{
closed = 1;
nodes = (
(186,755,l),
(270,894,l),
(187,894,l),
(118,755,l)
);
},
{
closed = 1;
nodes = (
(69,755,l),
(148,894,l),
(65,894,l),
(0,755,l)
);
}
);
visible = 1;
width = 270;
},
{
anchors = (
{
name = _top;
pos = (144,700);
}
);
associatedMasterId = "BD1314B0-2F62-4F06-89D3-8B766BA843F0";
layerId = "1C07D8C5-F911-4D6A-8D64-3150F1CD23BB";
name = "28 Jan 23, 22:11";
shapes = (
{
closed = 1;
nodes = (
(264,747,l),
(373,934,l),
(260,934,l),
(176,747,l)
);
},
{
closed = 1;
nodes = (
(88,747,l),
(185,934,l),
(72,934,l),
(0,747,l)
);
}
);
visible = 1;
width = 373;
}
);
},
{
glyphname = circumflexcomb.case;
lastChange = "2023-01-28 21:14:28 +0000";
layers = (
{
associatedMasterId = "897F30B6-1700-43C7-9C60-A606C7C7F267";
layerId = "02575D39-7864-4EEF-9012-950E1A85E8A1";
name = public.background;
shapes = (
{
closed = 1;
nodes = (
(134,688,l),
(268,604,l),
(268,661,l),
(134,743,l),
(0,661,l),
(0,604,l)
);
}
);
width = 297;
},
{
layerId = "BD1314B0-2F62-4F06-89D3-8B766BA843F0";
shapes = (
{
pos = (0,204);
ref = circumflexcomb;
}
);
width = 297;
},
{
layerId = "897F30B6-1700-43C7-9C60-A606C7C7F267";
shapes = (
{
pos = (0,204);
ref = circumflexcomb;
}
);
width = 268;
},
{
anchors = (
{
name = _top;
pos = (134,700);
}
);
associatedMasterId = "897F30B6-1700-43C7-9C60-A606C7C7F267";
layerId = "0E98F006-0D9F-4BB2-985B-B2CDBA3216BD";
name = "28 Jan 23, 22:11";
shapes = (
{
closed = 1;
nodes = (
(134,842,l),
(268,758,l),
(268,835,l),
(134,917,l),
(0,835,l),
(0,758,l)
);
}
);
visible = 1;
width = 268;
},
{
anchors = (
{
name = _top;
pos = (149,700);
}
);
associatedMasterId = "BD1314B0-2F62-4F06-89D3-8B766BA843F0";
layerId = "B61D35B0-3D2B-4D27-8A24-391C2956E8DB";
name = "28 Jan 23, 22:11";
shapes = (
{
closed = 1;
nodes = (
(149,827,l),
(297,744,l),
(297,843,l),
(149,923,l),
(0,843,l),
(0,744,l)
);
}
);
visible = 1;
width = 297;
}
);
},
{
glyphname = caroncomb.case;
lastChange = "2023-01-28 21:14:42 +0000";
layers = (
{
associatedMasterId = "897F30B6-1700-43C7-9C60-A606C7C7F267";
layerId = "02575D39-7864-4EEF-9012-950E1A85E8A1";
name = public.background;
shapes = (
{
closed = 1;
nodes = (
(268,685,l),
(268,741,l),
(134,658,l),
(0,741,l),
(0,685,l),
(134,603,l)
);
}
);
width = 297;
},
{
layerId = "BD1314B0-2F62-4F06-89D3-8B766BA843F0";
shapes = (
{
pos = (0,204);
ref = caroncomb;
}
);
width = 297;
},
{
layerId = "897F30B6-1700-43C7-9C60-A606C7C7F267";
shapes = (
{
pos = (0,204);
ref = caroncomb;
}
);
width = 268;
},
{
anchors = (
{
name = _top;
pos = (134,700);
}
);
associatedMasterId = "897F30B6-1700-43C7-9C60-A606C7C7F267";
layerId = "679979EF-27A3-4964-9F77-F8CF0754132A";
name = "28 Jan 23, 22:11";
shapes = (
{
closed = 1;
nodes = (
(268,839,l),
(268,915,l),
(134,832,l),
(0,915,l),
(0,839,l),
(134,757,l)
);
}
);
visible = 1;
width = 268;
},
{
anchors = (
{
name = _top;
pos = (149,700);
}
);
associatedMasterId = "BD1314B0-2F62-4F06-89D3-8B766BA843F0";
layerId = "93A56D2F-4AEF-481E-BA54-8BC1028D9753";
name = "28 Jan 23, 22:11";
shapes = (
{
closed = 1;
nodes = (
(297,824,l),
(297,923,l),
(149,837,l),
(0,923,l),
(0,824,l),
(149,744,l)
);
}
);
visible = 1;
width = 297;
}
);
},
{
glyphname = brevecomb.case;
lastChange = "2023-01-28 21:14:55 +0000";
layers = (
{
associatedMasterId = "897F30B6-1700-43C7-9C60-A606C7C7F267";
layerId = "02575D39-7864-4EEF-9012-950E1A85E8A1";
name = public.background;
shapes = (
{
closed = 1;
nodes = (
(225,606,o),
(271,662,o),
(271,729,cs),
(271,742,l),
(226,742,l),
(226,691,o),
(199,662,o),
(135,662,c),
(71,662,o),
(44,691,o),
(44,742,c),
(0,742,l),
(0,729,ls),
(0,662,o),
(45,606,o),
(135,606,c)
);
}
);
width = 320;
},
{
layerId = "BD1314B0-2F62-4F06-89D3-8B766BA843F0";
shapes = (
{
pos = (0,204);
ref = brevecomb;
}
);
width = 320;
},
{
layerId = "897F30B6-1700-43C7-9C60-A606C7C7F267";
shapes = (
{
pos = (0,187);
ref = brevecomb;
}
);
width = 271;
},
{
anchors = (
{
name = _top;
pos = (135,700);
}
);
associatedMasterId = "897F30B6-1700-43C7-9C60-A606C7C7F267";
layerId = "79E80181-439A-4760-8302-415916467E3D";
name = "28 Jan 23, 22:11";
shapes = (
{
closed = 1;
nodes = (
(225,760,o),
(271,816,o),
(271,883,cs),
(271,896,l),
(214,896,l),
(214,851,o),
(192,817,o),
(135,817,cs),
(78,817,o),
(56,851,o),
(56,896,c),
(0,896,l),
(0,883,ls),
(0,816,o),
(45,760,o),
(135,760,cs)
);
}
);
visible = 1;
width = 271;
},
{
anchors = (
{
name = _top;
pos = (159,700);
}
);
associatedMasterId = "BD1314B0-2F62-4F06-89D3-8B766BA843F0";
layerId = "81D6552F-84A4-4AF8-9461-A6CA491E69A2";
name = "28 Jan 23, 22:11";
shapes = (
{
closed = 1;
nodes = (
(256,747,o),
(320,806,o),
(320,904,cs),
(320,922,l),
(235,922,l),
(235,882,o),
(216,834,o),
(160,834,cs),
(103,834,o),
(84,882,o),
(84,922,c),
(0,922,l),
(0,904,ls),
(0,806,o),
(63,747,o),
(160,747,cs)
);
}
);
visible = 1;
width = 320;
}
);
},
{
glyphname = ringcomb.case;
lastChange = "2023-01-28 21:15:12 +0000";
layers = (
{
associatedMasterId = "897F30B6-1700-43C7-9C60-A606C7C7F267";
layerId = "02575D39-7864-4EEF-9012-950E1A85E8A1";
name = public.background;
shapes = (
{
closed = 1;
nodes = (
(159,610,o),
(204,648,o),
(204,710,cs),
(204,772,o),
(159,810,o),
(102,810,cs),
(47,810,o),
(0,772,o),
(0,710,cs),
(0,648,o),
(47,610,o),
(102,610,cs)
);
},
{
closed = 1;
nodes = (
(70,649,o),
(44,673,o),
(44,710,cs),
(44,748,o),
(70,771,o),
(102,771,cs),
(135,771,o),
(161,748,o),
(161,710,cs),
(161,673,o),
(135,649,o),
(102,649,cs)
);
}
);
width = 232;
},
{
layerId = "BD1314B0-2F62-4F06-89D3-8B766BA843F0";
shapes = (
{
pos = (0,204);
ref = ringcomb;
}
);
width = 232;
},
{
layerId = "897F30B6-1700-43C7-9C60-A606C7C7F267";
shapes = (
{
pos = (0,204);
ref = ringcomb;
}
);
width = 204;
},
{
anchors = (
{
name = _top;
pos = (102,700);
}
);
associatedMasterId = "897F30B6-1700-43C7-9C60-A606C7C7F267";
layerId = "981133E1-5C66-47E6-BA70-A3A7D45C9B98";
name = "28 Jan 23, 22:11";
shapes = (
{
closed = 1;
nodes = (
(159,764,o),
(204,802,o),
(204,864,cs),
(204,926,o),
(159,964,o),
(102,964,cs),
(47,964,o),
(0,926,o),
(0,864,cs),
(0,802,o),
(47,764,o),
(102,764,cs)
);
},
{
closed = 1;
nodes = (
(77,815,o),
(56,834,o),
(56,864,cs),
(56,894,o),
(77,913,o),
(102,913,cs),
(129,913,o),
(149,894,o),
(149,864,cs),
(149,834,o),
(129,815,o),
(102,815,cs)
);
}
);
visible = 1;
width = 204;
},
{
anchors = (
{
name = _top;
pos = (116,700);
}
);
associatedMasterId = "BD1314B0-2F62-4F06-89D3-8B766BA843F0";
layerId = "85FA15B7-C6FA-474B-844B-033EC8E3928E";
name = "28 Jan 23, 22:11";
shapes = (
{
closed = 1;
nodes = (
(180,748,o),
(232,792,o),
(232,863,cs),
(232,934,o),
(180,977,o),
(116,977,cs),
(53,977,o),
(0,934,o),
(0,863,cs),
(0,792,o),
(53,748,o),
(116,748,cs)
);
},
{
closed = 1;
nodes = (
(88,810,o),
(65,831,o),
(65,863,cs),
(65,895,o),
(88,915,o),
(116,915,cs),
(145,915,o),
(167,895,o),
(167,863,cs),
(167,831,o),
(145,810,o),
(116,810,cs)
);
}
);
visible = 1;
width = 232;
}
);
},
{
color = 0;
glyphname = tildecomb.case;
lastChange = "2023-01-28 21:15:23 +0000";
layers = (
{
associatedMasterId = "897F30B6-1700-43C7-9C60-A606C7C7F267";
layerId = "02575D39-7864-4EEF-9012-950E1A85E8A1";
name = public.background;
shapes = (
{
closed = 1;
nodes = (
(244,604,o),
(280,638,o),
(286,697,c),
(244,697,l),
(240,667,o),
(222,652,o),
(200,652,cs),
(157,652,o),
(140,699,o),
(88,699,cs),
(41,699,o),
(8,667,o),
(0,606,c),
(43,606,l),
(47,637,o),
(63,651,o),
(85,651,cs),
(126,651,o),
(144,604,o),
(197,604,cs)
);
}
);
width = 365;
},
{
layerId = "BD1314B0-2F62-4F06-89D3-8B766BA843F0";
shapes = (
{
pos = (0,190);
ref = tildecomb;
}
);
width = 365;
},
{
layerId = "897F30B6-1700-43C7-9C60-A606C7C7F267";
shapes = (
{
pos = (0,204);
ref = tildecomb;
}
);
width = 286;
},
{
anchors = (
{
name = _top;
pos = (132,700);
}
);
associatedMasterId = "897F30B6-1700-43C7-9C60-A606C7C7F267";
layerId = "56CF46D2-4853-4EE6-80AD-CDD1318C1C43";
name = "28 Jan 23, 22:11";
shapes = (
{
closed = 1;
nodes = (
(244,758,o),
(280,792,o),
(286,871,c),
(229,871,l),
(227,842,o),
(212,828,o),
(194,828,cs),
(167,828,o),
(140,873,o),
(88,873,cs),
(41,873,o),
(8,841,o),
(0,760,c),
(58,760,l),
(60,790,o),
(73,803,o),
(91,803,cs),
(116,803,o),
(144,758,o),
(197,758,cs)
);
}
);
visible = 1;
width = 286;
},
{
anchors = (
{
name = _top;
pos = (179,700);
}
);
associatedMasterId = "BD1314B0-2F62-4F06-89D3-8B766BA843F0";
layerId = "E86B56C7-2F38-4AC0-831D-5053BFB8E043";
name = "28 Jan 23, 22:11";
shapes = (
{
closed = 1;
nodes = (
(305,750,o),
(351,791,o),
(365,881,c),
(291,881,l),
(287,851,o),
(271,836,o),
(248,836,cs),
(207,836,o),
(180,882,o),
(123,882,cs),
(59,882,o),
(14,842,o),
(0,751,c),
(73,751,l),
(78,782,o),
(94,796,o),
(117,796,cs),
(157,796,o),
(184,750,o),
(242,750,cs)
);
}
);
visible = 1;
width = 365;
}
);
},
{
glyphname = macroncomb.case;
lastChange = "2023-01-28 22:01:24 +0000";
layers = (
{
associatedMasterId = "897F30B6-1700-43C7-9C60-A606C7C7F267";
layerId = "02575D39-7864-4EEF-9012-950E1A85E8A1";
name = public.background;
shapes = (
{
closed = 1;
nodes = (
(339,646,l),
(339,700,l),
(0,700,l),
(0,646,l)
);
}
);
width = 381;
},
{
layerId = "BD1314B0-2F62-4F06-89D3-8B766BA843F0";
shapes = (
{
pos = (0,204);
ref = macroncomb;
}
);
width = 381;
},
{
layerId = "897F30B6-1700-43C7-9C60-A606C7C7F267";
shapes = (
{
pos = (0,204);
ref = macroncomb;
}
);
width = 339;
},
{
anchors = (
{
name = _top;
pos = (170,700);
}
);
associatedMasterId = "897F30B6-1700-43C7-9C60-A606C7C7F267";
layerId = "B81452AC-E6C1-4319-895E-CF28FA8A4F76";
name = "28 Jan 23, 22:11";
shapes = (
{
closed = 1;
nodes = (
(339,800,l),
(339,874,l),
(0,874,l),
(0,800,l)
);
}
);
visible = 1;
width = 339;
},
{
anchors = (
{
name = _top;
pos = (191,700);
}
);
associatedMasterId = "BD1314B0-2F62-4F06-89D3-8B766BA843F0";
layerId = "6B0CB970-1286-455E-9F37-E8E17EF19F69";
name = "28 Jan 23, 22:11";
shapes = (
{
closed = 1;
nodes = (
(381,779,l),
(381,878,l),
(0,878,l),
(0,779,l)
);
}
);
visible = 1;
width = 381;
}
);
},
{
color = 0;
glyphname = cedillacomb.case;
lastChange = "2023-01-28 21:12:55 +0000";
layers = (
{
associatedMasterId = "897F30B6-1700-43C7-9C60-A606C7C7F267";
layerId = "02575D39-7864-4EEF-9012-950E1A85E8A1";
name = public.background;
shapes = (
{
closed = 1;
nodes = (
(100,-258,ls),
(170,-258,o),
(217,-220,o),
(217,-160,cs),
(217,-98,o),
(167,-65,o),
(89,-67,c),
(89,7,l),
(40,7,l),
(40,-112,l),
(86,-112,ls),
(136,-112,o),
(158,-129,o),
(158,-160,cs),
(158,-194,o),
(136,-211,o),
(86,-211,cs),
(0,-211,l),
(0,-258,l)
);
}
);
width = 270;
},
{
layerId = "BD1314B0-2F62-4F06-89D3-8B766BA843F0";
shapes = (
{
ref = cedillacomb;
}
);
width = 270;
},
{
layerId = "897F30B6-1700-43C7-9C60-A606C7C7F267";
shapes = (
{
ref = cedillacomb;
}
);
width = 217;
},
{
anchors = (
{
name = _bottom;
pos = (93,0);
}
);
associatedMasterId = "897F30B6-1700-43C7-9C60-A606C7C7F267";
layerId = "F866A2C4-50D7-4A40-931B-09F4AFE48F5A";
name = "28 Jan 23, 22:11";
shapes = (
{
ref = cedillacomb;
}
);
visible = 1;
width = 217;
},
{
anchors = (
{
name = _bottom;
pos = (120,0);
}
);
associatedMasterId = "BD1314B0-2F62-4F06-89D3-8B766BA843F0";
layerId = "8709A940-295C-4D6E-85B6-4BCDF420349C";
name = "28 Jan 23, 22:11";
shapes = (
{
ref = cedillacomb;
}
);
visible = 1;
width = 270;
}
);
},
{
glyphname = ogonekcomb.case;
lastChange = "2023-01-28 21:12:55 +0000";
layers = (
{
associatedMasterId = "897F30B6-1700-43C7-9C60-A606C7C7F267";
layerId = "02575D39-7864-4EEF-9012-950E1A85E8A1";
name = public.background;
shapes = (
{
closed = 1;
nodes = (
(137,-201,o),
(163,-196,o),
(185,-188,c),
(185,-139,l),
(163,-148,o),
(140,-153,o),
(121,-153,cs),
(84,-153,o),
(59,-135,o),
(59,-102,cs),
(59,-76,o),
(75,-52,o),
(122,-29,cs),
(182,0,l),
(163,38,l),
(108,13,ls),
(29,-23,o),
(0,-64,o),
(0,-109,cs),
(0,-176,o),
(56,-201,o),
(113,-201,cs)
);
}
);
width = 227;
},
{
layerId = "BD1314B0-2F62-4F06-89D3-8B766BA843F0";
shapes = (
{
ref = ogonekcomb;
}
);
width = 227;
},
{
layerId = "897F30B6-1700-43C7-9C60-A606C7C7F267";
shapes = (
{
ref = ogonekcomb;
}
);
width = 185;
},
{
anchors = (
{
name = _ogonek;
pos = (182,0);
}
);
associatedMasterId = "897F30B6-1700-43C7-9C60-A606C7C7F267";
layerId = "CF8B61C0-056C-43F8-B675-F8CD4F9A93CE";
name = "28 Jan 23, 22:11";
shapes = (
{
closed = 1;
nodes = (
(137,-201,o),
(163,-196,o),
(185,-188,c),
(185,-139,l),
(163,-148,o),
(140,-153,o),
(121,-153,cs),
(84,-153,o),
(59,-135,o),
(59,-102,cs),
(59,-76,o),
(75,-52,o),
(122,-29,cs),
(182,0,l),
(163,38,l),
(108,13,ls),
(29,-23,o),
(0,-64,o),
(0,-109,cs),
(0,-176,o),
(56,-201,o),
(113,-201,cs)
);
}
);
visible = 1;
width = 185;
},
{
anchors = (
{
name = _ogonek;
pos = (222,0);
}
);
associatedMasterId = "BD1314B0-2F62-4F06-89D3-8B766BA843F0";
layerId = "D0DF1D71-1B7A-44CF-8423-842C5161C732";
name = "28 Jan 23, 22:11";
shapes = (
{
closed = 1;
nodes = (
(170,-212,o),
(201,-206,o),
(227,-198,c),
(227,-116,l),
(201,-126,o),
(175,-131,o),
(155,-131,cs),
(124,-131,o),
(105,-116,o),
(105,-92,cs),
(105,-69,o),
(123,-49,o),
(171,-25,cs),
(222,0,l),
(191,65,l),
(146,46,ls),
(34,-2,o),
(0,-50,o),
(0,-105,cs),
(0,-179,o),
(62,-212,o),
(137,-212,cs)
);
}
);
visible = 1;
width = 227;
}
);
},
{
glyphname = a.ss02;
kernLeft = o;
kernRight = u;
lastChange = "2023-01-28 21:57:20 +0000";
layers = (
{
associatedMasterId = "897F30B6-1700-43C7-9C60-A606C7C7F267";
layerId = "02575D39-7864-4EEF-9012-950E1A85E8A1";
name = public.background;
shapes = (
{
closed = 1;
nodes = (
(300,-10,o),
(381,44,o),
(413,116,c),
(413,0,l),
(484,0,l),
(484,319,ls),
(484,471,o),
(391,554,o),
(263,554,cs),
(133,554,o),
(51,470,o),
(35,359,c),
(104,359,l),
(117,443,o),
(177,493,o),
(261,493,cs),
(357,493,o),
(410,430,o),
(413,320,c),
(232,320,ls),
(89,320,o),
(21,246,o),
(21,150,cs),
(21,56,o),
(96,-10,o),
(203,-10,cs)
);
},
{
closed = 1;
nodes = (
(140,51,o),
(91,93,o),
(91,155,cs),
(91,218,o),
(137,263,o),
(232,263,cs),
(413,263,l),
(413,245,ls),
(413,122,o),
(317,51,o),
(216,51,cs)
);
}
);
width = 642;
},
{
anchors = (
{
name = bottom;
pos = (313,0);
},
{
name = center;
pos = (313,248);
},
{
name = ogonek;
pos = (571,0);
},
{
name = top;
pos = (302,496);
}
);
layerId = "BD1314B0-2F62-4F06-89D3-8B766BA843F0";
shapes = (
{
closed = 1;
nodes = (
(351,-12,o),
(400,25,o),
(431,68,c),
(439,0,l),
(571,0,l),
(571,496,l),
(438,496,l),
(431,432,l),
(397,480,o),
(343,508,o),
(270,508,cs),
(131,508,o),
(26,398,o),
(26,249,cs),
(26,100,o),
(131,-12,o),
(270,-12,cs)
);
},
{
closed = 1;
nodes = (
(225,110,o),
(169,169,o),
(169,249,cs),
(169,328,o),
(225,386,o),
(302,386,cs),
(380,386,o),
(435,328,o),
(435,248,cs),
(435,169,o),
(380,110,o),
(302,110,cs)
);
}
);
width = 607;
},
{
anchors = (
{
name = bottom;
pos = (300,0);
},
{
name = center;
pos = (300,248);
},
{
name = ogonek;
pos = (539,0);
},
{
name = top;
pos = (293,496);
}
);
layerId = "897F30B6-1700-43C7-9C60-A606C7C7F267";
shapes = (
{
closed = 1;
nodes = (
(385,-12,o),
(446,36,o),
(478,86,c),
(478,0,l),
(548,0,l),
(548,496,l),
(478,496,l),
(478,408,l),
(444,471,o),
(376,508,o),
(292,508,cs),
(141,508,o),
(45,399,o),
(45,249,cs),
(45,99,o),
(141,-12,o),
(291,-12,cs)
);
},
{
closed = 1;
nodes = (
(190,49,o),
(116,128,o),
(116,248,cs),
(116,368,o),
(190,447,o),
(295,447,cs),
(400,447,o),
(474,368,o),
(474,248,cs),
(474,128,o),
(400,49,o),
(295,49,cs)
);
}
);
width = 606;
}
);
},
{
glyphname = ae.ss02;
kernLeft = o;
kernRight = e;
lastChange = "2023-01-24 19:35:08 +0000";
layers = (
{
associatedMasterId = "897F30B6-1700-43C7-9C60-A606C7C7F267";
layerId = "02575D39-7864-4EEF-9012-950E1A85E8A1";
name = public.background;
shapes = (
{
closed = 1;
nodes = (
(387,-8,o),
(465,49,o),
(500,126,c),
(500,0,l),
(561,0,l),
(561,126,l),
(597,41,o),
(683,-8,o),
(780,-8,cs),
(913,-8,o),
(1001,70,o),
(1026,173,c),
(950,173,l),
(933,99,o),
(866,51,o),
(769,51,cs),
(670,51,o),
(569,120,o),
(569,265,cs),
(569,283,ls),
(569,421,o),
(664,494,o),
(770,494,cs),
(874,494,o),
(966,429,o),
(962,300,c),
(559,300,l),
(559,248,l),
(1030,248,l),
(1033,267,o),
(1034,281,o),
(1034,302,cs),
(1034,438,o),
(938,554,o),
(780,554,cs),
(685,554,o),
(605,512,o),
(561,422,c),
(561,546,l),
(502,546,l),
(502,423,l),
(463,503,o),
(387,554,o),
(285,554,c),
(132,554,o),
(21,445,o),
(21,274,c),
(21,103,o),
(132,-8,o),
(282,-8,c)
);
},
{
closed = 1;
nodes = (
(180,53,o),
(92,136,o),
(92,274,c),
(92,413,o),
(180,493,o),
(295,493,c),
(407,493,o),
(498,409,o),
(498,273,c),
(498,137,o),
(407,53,o),
(295,53,c)
);
}
);
width = 1124;
},
{
anchors = (
{
name = bottom;
pos = (492,0);
},
{
name = top;
pos = (494,496);
}
);
layerId = "BD1314B0-2F62-4F06-89D3-8B766BA843F0";
shapes = (
{
closed = 1;
nodes = (
(341,-12,o),
(392,-2,o),
(437,42,c),
(446,0,l),
(556,0,l),
(557,41,l),
(596,8,o),
(649,-12,o),
(712,-12,cs),
(836,-12,o),
(924,68,o),
(950,171,c),
(811,171,l),
(794,132,o),
(759,102,o),
(707,102,cs),
(641,102,o),
(592,145,o),
(586,214,c),
(958,214,l),
(959,231,o),
(960,248,o),
(960,262,cs),
(960,403,o),
(859,508,o),
(718,508,cs),
(654,508,o),
(598,488,o),
(557,443,c),
(557,496,l),
(446,496,l),
(437,438,l),
(406,483,o),
(350,508,o),
(280,508,cs),
(141,508,o),
(36,398,o),
(36,249,cs),
(36,100,o),
(141,-12,o),
(288,-12,cs)
);
},
{
closed = 1;
nodes = (
(235,110,o),
(179,169,o),
(179,249,cs),
(179,328,o),
(235,386,o),
(312,386,cs),
(390,386,o),
(445,328,o),
(445,248,cs),
(445,169,o),
(390,110,o),
(312,110,cs)
);
},
{
closed = 1;
nodes = (
(602,363,o),
(650,395,o),
(708,395,cs),
(769,395,o),
(814,356,o),
(818,298,c),
(590,298,l)
);
}
);
width = 992;
},
{
anchors = (
{
name = bottom;
pos = (501,0);
},
{
name = top;
pos = (506,496);
}
);
layerId = "897F30B6-1700-43C7-9C60-A606C7C7F267";
shapes = (
{
closed = 1;
nodes = (
(347,-12,o),
(410,3,o),
(464,66,c),
(470,0,l),
(534,0,l),
(534,64,l),
(578,16,o),
(639,-12,o),
(711,-12,cs),
(833,-12,o),
(910,62,o),
(934,161,c),
(867,161,l),
(845,91,o),
(791,48,o),
(711,48,cs),
(628,48,o),
(545,108,o),
(539,233,c),
(940,233,l),
(941,252,o),
(941,265,o),
(941,279,cs),
(941,398,o),
(857,508,o),
(713,508,cs),
(639,508,o),
(578,481,o),
(534,433,c),
(534,496,l),
(470,496,l),
(464,417,l),
(428,474,o),
(363,508,o),
(283,508,cs),
(132,508,o),
(36,399,o),
(36,249,cs),
(36,99,o),
(132,-12,o),
(282,-12,cs)
);
},
{
closed = 1;
nodes = (
(181,49,o),
(107,128,o),
(107,248,cs),
(107,368,o),
(181,447,o),
(286,447,cs),
(391,447,o),
(465,368,o),
(465,248,cs),
(465,128,o),
(391,49,o),
(286,49,cs)
);
},
{
closed = 1;
nodes = (
(548,394,o),
(624,448,o),
(710,448,cs),
(801,448,o),
(869,390,o),
(873,293,c),
(540,293,l)
);
}
);
width = 992;
}
);
},
{
glyphname = fi;
kernLeft = f;
kernRight = i;
lastChange = "2023-01-24 19:35:08 +0000";
layers = (
{
associatedMasterId = "897F30B6-1700-43C7-9C60-A606C7C7F267";
layerId = "02575D39-7864-4EEF-9012-950E1A85E8A1";
metricRight = "=i";
name = public.background;
shapes = (
{
closed = 1;
nodes = (
(472,0,l),
(472,546,l),
(22,546,l),
(22,487,l),
(402,487,l),
(402,0,l)
);
},
{
closed = 1;
nodes = (
(167,0,l),
(167,584,ls),
(167,663,o),
(197,697,o),
(290,697,c),
(290,757,l),
(152,757,o),
(97,701,o),
(97,584,cs),
(97,0,l)
);
},
{
closed = 1;
nodes = (
(466,649,o),
(489,671,o),
(489,701,cs),
(489,731,o),
(466,752,o),
(438,752,c),
(410,752,o),
(387,731,o),
(387,701,cs),
(387,671,o),
(410,649,o),
(438,649,c)
);
},
{
alignment = -1;
ref = f;
},
{
alignment = -1;
ref = i;
}
);
width = 598;
},
{
layerId = "BD1314B0-2F62-4F06-89D3-8B766BA843F0";
shapes = (
{
closed = 1;
nodes = (
(223,0,l),
(223,379,l),
(413,379,l),
(413,0,l),
(553,0,l),
(553,496,l),
(223,496,l),
(223,546,ls),
(223,590,o),
(234,601,o),
(281,601,cs),
(316,601,l),
(316,720,l),
(253,720,ls),
(129,720,o),
(83,700,o),
(83,554,cs),
(83,496,l),
(16,496,l),
(16,379,l),
(83,379,l),
(83,0,l)
);
},
{
closed = 1;
nodes = (
(570,564,l),
(570,720,l),
(397,720,l),
(397,564,l)
);
}
);
width = 598;
},
{
layerId = "897F30B6-1700-43C7-9C60-A606C7C7F267";
shapes = (
{
closed = 1;
nodes = (
(198,0,l),
(198,436,l),
(433,436,l),
(433,0,l),
(503,0,l),
(503,496,l),
(198,496,l),
(198,588,ls),
(198,649,o),
(211,660,o),
(271,660,cs),
(310,660,l),
(310,720,l),
(260,720,ls),
(164,720,o),
(128,690,o),
(128,594,cs),
(128,496,l),
(52,496,l),
(52,436,l),
(128,436,l),
(128,0,l)
);
},
{
closed = 1;
nodes = (
(520,599,l),
(520,702,l),
(418,702,l),
(418,599,l)
);
}
);
width = 598;
}
);
unicode = 64257;
},
{
glyphname = fl;
kernLeft = f;
kernRight = l;
lastChange = "2023-01-24 19:35:08 +0000";
layers = (
{
associatedMasterId = "897F30B6-1700-43C7-9C60-A606C7C7F267";
layerId = "02575D39-7864-4EEF-9012-950E1A85E8A1";
name = public.background;
shapes = (
{
alignment = -1;
ref = f;
},
{
alignment = -1;
pos = (325,0);
ref = l;
}
);
width = 635;
},
{
anchors = (
{
name = bottom;
pos = (502,0);
},
{
name = caret_1;
pos = (318,0);
},
{
name = commaaccent;
pos = (502,10);
},
{
name = top;
pos = (502,720);
},
{
name = topright;
pos = (626,554);
}
);
layerId = "BD1314B0-2F62-4F06-89D3-8B766BA843F0";
shapes = (
{
closed = 1;
nodes = (
(437,601,l),
(437,720,l),
(313,720,l),
(313,601,l)
);
},
{
alignment = -1;
ref = f;
},
{
alignment = -1;
pos = (367,0);
ref = l;
}
);
width = 603;
},
{
anchors = (
{
name = bottom;
pos = (430,0);
},
{
name = caret_1;
pos = (267,0);
},
{
name = commaaccent;
pos = (430,10);
},
{
name = top;
pos = (430,720);
},
{
name = topright;
pos = (520,546);
}
);
layerId = "897F30B6-1700-43C7-9C60-A606C7C7F267";
shapes = (
{
closed = 1;
nodes = (
(445,660,l),
(445,720,l),
(310,720,l),
(310,660,l)
);
},
{
alignment = -1;
pos = (31,0);
ref = f;
},
{
alignment = -1;
pos = (356,0);
ref = l;
}
);
width = 603;
}
);
unicode = 64258;
},
{
glyphname = ordfeminine;
lastChange = "2023-01-24 19:35:08 +0000";
layers = (
{
associatedMasterId = "897F30B6-1700-43C7-9C60-A606C7C7F267";
layerId = "02575D39-7864-4EEF-9012-950E1A85E8A1";
name = public.background;
shapes = (
{
closed = 1;
nodes = (
(270,347,o),
(318,380,o),
(337,426,c),
(337,353,l),
(394,353,l),
(394,703,l),
(337,703,l),
(337,629,l),
(317,675,o),
(270,709,o),
(200,709,cs),
(105,709,o),
(35,636,o),
(35,529,c),
(35,423,o),
(105,347,o),
(202,347,cs)
);
},
{
closed = 1;
nodes = (
(148,392,o),
(94,443,o),
(94,529,c),
(94,614,o),
(148,664,o),
(214,664,cs),
(283,664,o),
(337,613,o),
(337,528,c),
(337,443,o),
(283,392,o),
(214,392,cs)
);
}
);
width = 462;
},
{
layerId = "BD1314B0-2F62-4F06-89D3-8B766BA843F0";
shapes = (
{
closed = 1;
nodes = (
(253,348,o),
(294,372,o),
(315,405,c),
(324,354,l),
(422,354,l),
(422,705,l),
(324,705,l),
(315,652,l),
(293,686,o),
(252,710,o),
(191,710,cs),
(98,710,o),
(25,640,o),
(25,530,cs),
(25,420,o),
(98,348,o),
(193,348,cs)
);
},
{
closed = 1;
nodes = (
(177,432,o),
(135,467,o),
(135,529,cs),
(135,591,o),
(177,626,o),
(225,626,cs),
(274,626,o),
(315,592,o),
(315,529,cs),
(315,467,o),
(274,432,o),
(225,432,cs)
);
}
);
width = 452;
},
{
layerId = "897F30B6-1700-43C7-9C60-A606C7C7F267";
shapes = (
{
closed = 1;
nodes = (
(275,347,o),
(323,380,o),
(342,426,c),
(348,353,l),
(399,353,l),
(399,703,l),
(348,703,l),
(342,629,l),
(322,675,o),
(275,709,o),
(205,709,cs),
(110,709,o),
(40,636,o),
(40,529,cs),
(40,423,o),
(110,347,o),
(207,347,cs)
);
},
{
closed = 1;
nodes = (
(153,392,o),
(99,443,o),
(99,529,cs),
(99,614,o),
(153,664,o),
(219,664,cs),
(288,664,o),
(342,613,o),
(342,528,cs),
(342,443,o),
(288,392,o),
(219,392,cs)
);
}
);
width = 452;
}
);
unicode = 170;
},
{
glyphname = ordmasculine;
lastChange = "2023-01-24 19:35:08 +0000";
layers = (
{
associatedMasterId = "897F30B6-1700-43C7-9C60-A606C7C7F267";
layerId = "02575D39-7864-4EEF-9012-950E1A85E8A1";
name = public.background;
shapes = (
{
closed = 1;
nodes = (
(316,345,o),
(395,418,o),
(395,527,c),
(395,637,o),
(318,709,o),
(215,709,c),
(113,709,o),
(35,637,o),
(35,527,c),
(35,418,o),
(111,345,o),
(214,345,c)
);
},
{
closed = 1;
nodes = (
(148,392,o),
(94,439,o),
(94,527,c),
(94,616,o),
(149,663,o),
(214,663,c),
(280,663,o),
(336,616,o),
(336,527,c),
(336,439,o),
(279,392,o),
(214,392,c)
);
}
);
width = 449;
},
{
layerId = "BD1314B0-2F62-4F06-89D3-8B766BA843F0";
shapes = (
{
closed = 1;
nodes = (
(335,349,o),
(416,424,o),
(416,531,cs),
(416,639,o),
(336,712,o),
(220,712,cs),
(104,712,o),
(23,639,o),
(23,531,cs),
(23,424,o),
(103,349,o),
(219,349,cs)
);
},
{
closed = 1;
nodes = (
(171,433,o),
(133,466,o),
(133,531,cs),
(133,597,o),
(172,629,o),
(219,629,cs),
(266,629,o),
(307,597,o),
(307,531,cs),
(307,466,o),
(265,433,o),
(219,433,cs)
);
}
);
width = 440;
},
{
layerId = "897F30B6-1700-43C7-9C60-A606C7C7F267";
shapes = (
{
closed = 1;
nodes = (
(316,348,o),
(395,421,o),
(395,530,cs),
(395,640,o),
(318,712,o),
(215,712,cs),
(113,712,o),
(35,640,o),
(35,530,cs),
(35,421,o),
(111,348,o),
(214,348,cs)
);
},
{
closed = 1;
nodes = (
(148,395,o),
(94,442,o),
(94,530,cs),
(94,619,o),
(149,666,o),
(214,666,cs),
(280,666,o),
(336,619,o),
(336,530,cs),
(336,442,o),
(279,395,o),
(214,395,cs)
);
}
);
width = 440;
}
);
unicode = 186;
},
{
glyphname = pi;
lastChange = "2023-01-24 19:35:08 +0000";
layers = (
{
associatedMasterId = "897F30B6-1700-43C7-9C60-A606C7C7F267";
layerId = "02575D39-7864-4EEF-9012-950E1A85E8A1";
name = public.background;
shapes = (
{
closed = 1;
nodes = (
(131,0,l),
(131,490,l),
(445,490,l),
(445,0,l),
(515,0,l),
(515,490,l),
(596,490,l),
(596,546,l),
(-20,546,l),
(-20,490,l),
(61,490,l),
(61,0,l)
);
}
);
width = 647;
},
{
layerId = "BD1314B0-2F62-4F06-89D3-8B766BA843F0";
shapes = (
{
closed = 1;
nodes = (
(234,0,l),
(234,389,l),
(395,389,l),
(395,0,l),
(535,0,l),
(535,389,l),
(608,389,l),
(608,496,l),
(20,496,l),
(20,389,l),
(94,389,l),
(94,0,l)
);
}
);
width = 628;
},
{
layerId = "897F30B6-1700-43C7-9C60-A606C7C7F267";
shapes = (
{
closed = 1;
nodes = (
(191,0,l),
(191,440,l),
(435,440,l),
(435,0,l),
(505,0,l),
(505,440,l),
(586,440,l),
(586,496,l),
(40,496,l),
(40,440,l),
(121,440,l),
(121,0,l)
);
}
);
width = 628;
}
);
unicode = 960;
},
{
glyphname = zero;
lastChange = "2023-08-08 15:14:15 +0000";
layers = (
{
associatedMasterId = "897F30B6-1700-43C7-9C60-A606C7C7F267";
layerId = "02575D39-7864-4EEF-9012-950E1A85E8A1";
name = public.background;
shapes = (
{
closed = 1;
nodes = (
(484,-2,o),
(531,156,o),
(531,365,c),
(531,570,o),
(484,727,o),
(288,727,cs),
(91,727,o),
(45,570,o),
(45,365,c),
(45,156,o),
(91,-2,o),
(288,-2,cs)
);
},
{
closed = 1;
nodes = (
(136,62,o),
(114,197,o),
(114,365,c),
(114,527,o),
(136,664,o),
(288,664,cs),
(440,664,o),
(462,527,o),
(462,365,c),
(462,197,o),
(440,62,o),
(288,62,cs)
);
}
);
width = 587;
},
{
layerId = "BD1314B0-2F62-4F06-89D3-8B766BA843F0";
shapes = (
{
closed = 1;
nodes = (
(489,-12,o),
(597,132,o),
(597,350,cs),
(597,568,o),
(489,712,o),
(325,712,cs),
(161,712,o),
(53,568,o),
(53,350,cs),
(53,132,o),
(161,-12,o),
(325,-12,cs)
);
},
{
closed = 1;
nodes = (
(238,114,o),
(193,194,o),
(193,350,cs),
(193,506,o),
(238,586,o),
(325,586,cs),
(412,586,o),
(457,506,o),
(457,350,cs),
(457,194,o),
(412,114,o),
(325,114,cs)
);
}
);
width = 650;
},
{
layerId = "897F30B6-1700-43C7-9C60-A606C7C7F267";
shapes = (
{
closed = 1;
nodes = (
(476,-12,o),
(570,126,o),
(570,350,cs),
(570,574,o),
(476,712,o),
(325,712,cs),
(174,712,o),
(80,574,o),
(80,350,cs),
(80,126,o),
(174,-12,o),
(325,-12,cs)
);
},
{
closed = 1;
nodes = (
(216,49,o),
(152,161,o),
(152,350,cs),
(152,538,o),
(216,650,o),
(325,650,cs),
(434,650,o),
(498,538,o),
(498,350,cs),
(498,161,o),
(434,49,o),
(325,49,cs)
);
}
);
width = 650;
}
);
unicode = 48;
},
{
glyphname = one;
kernRight = H;
lastChange = "2023-08-08 15:14:23 +0000";
layers = (
{
associatedMasterId = "897F30B6-1700-43C7-9C60-A606C7C7F267";
layerId = "02575D39-7864-4EEF-9012-950E1A85E8A1";
name = public.background;
shapes = (
{
closed = 1;
nodes = (
(213,0,l),
(213,717,l),
(43,717,l),
(43,654,l),
(142,654,l),
(142,0,l)
);
}
);
width = 331;
},
{
layerId = "BD1314B0-2F62-4F06-89D3-8B766BA843F0";
shapes = (
{
closed = 1;
nodes = (
(409,0,l),
(409,700,l),
(269,700,l),
(269,661,ls),
(269,636,o),
(252,622,o),
(227,620,cs),
(92,610,l),
(92,508,l),
(269,508,l),
(269,0,l)
);
},
{
closed = 1;
nodes = (
(67,0,l),
(607,0,l),
(607,114,l),
(67,114,l)
);
}
);
width = 650;
},
{
background = {
shapes = (
{
closed = 1;
nodes = (
(385,0,l),
(385,700,l),
(314,700,l),
(314,685,ls),
(314,660,o),
(297,643,o),
(272,643,cs),
(213,643,l),
(213,588,l),
(314,588,l),
(314,0,l)
);
}
);
};
layerId = "897F30B6-1700-43C7-9C60-A606C7C7F267";
shapes = (
{
closed = 1;
nodes = (
(385,0,l),
(385,700,l),
(314,700,l),
(314,657,ls),
(314,632,o),
(297,617,o),
(272,615,cs),
(123,603,l),
(123,552,l),
(314,552,l),
(314,0,l)
);
},
{
closed = 1;
nodes = (
(99,0,l),
(578,0,l),
(578,59,l),
(99,59,l)
);
}
);
width = 650;
}
);
unicode = 49;
},
{
color = 0;
glyphname = two;
lastChange = "2023-08-08 15:14:26 +0000";
layers = (
{
associatedMasterId = "897F30B6-1700-43C7-9C60-A606C7C7F267";
layerId = "02575D39-7864-4EEF-9012-950E1A85E8A1";
name = public.background;
shapes = (
{
closed = 1;
nodes = (
(528,5,l),
(528,64,l),
(158,64,l),
(299,168,o),
(506,337,o),
(506,520,cs),
(506,658,o),
(414,729,o),
(289,729,cs),
(157,729,o),
(65,646,o),
(57,495,c),
(125,495,l),
(131,595,o),
(183,669,o),
(289,669,cs),
(400,669,o),
(436,600,o),
(436,517,cs),
(436,364,o),
(257,209,o),
(51,55,c),
(51,5,l)
);
}
);
width = 571;
},
{
background = {
shapes = (
{
closed = 1;
nodes = (
(574,0,l),
(574,114,l),
(232,114,l),
(232,165,o),
(256,204,o),
(337,244,cs),
(375,263,ls),
(514,333,o),
(567,411,o),
(567,505,cs),
(567,621,o),
(486,712,o),
(339,712,cs),
(204,712,o),
(94,636,o),
(90,478,c),
(225,478,l),
(225,543,o),
(266,594,o),
(334,594,cs),
(399,594,o),
(431,547,o),
(431,497,cs),
(431,435,o),
(382,401,o),
(307,365,cs),
(286,355,ls),
(157,294,o),
(84,230,o),
(84,56,cs),
(84,0,l)
);
}
);
};
layerId = "BD1314B0-2F62-4F06-89D3-8B766BA843F0";
shapes = (
{
closed = 1;
nodes = (
(588,0,l),
(588,114,l),
(217,114,l),
(217,165,o),
(246,201,o),
(337,244,cs),
(377,263,ls),
(525,333,o),
(581,411,o),
(581,505,cs),
(581,621,o),
(495,712,o),
(340,712,cs),
(197,712,o),
(80,636,o),
(76,478,c),
(211,478,l),
(211,543,o),
(257,594,o),
(334,594,cs),
(409,594,o),
(445,547,o),
(445,497,cs),
(445,435,o),
(390,403,o),
(306,365,cs),
(284,355,ls),
(146,294,o),
(70,230,o),
(70,56,cs),
(70,0,l)
);
}
);
width = 650;
},
{
background = {
shapes = (
{
closed = 1;
nodes = (
(561,0,l),
(561,59,l),
(169,59,l),
(169,143,o),
(189,214,o),
(299,268,cs),
(401,318,ls),
(485,359,o),
(548,419,o),
(548,519,cs),
(548,653,o),
(451,712,o),
(335,712,cs),
(204,712,o),
(114,629,o),
(114,495,c),
(182,495,l),
(182,578,o),
(230,652,o),
(335,652,cs),
(441,652,o),
(478,587,o),
(478,516,cs),
(478,443,o),
(437,407,o),
(355,368,cs),
(292,338,ls),
(179,284,o),
(99,212,o),
(99,38,cs),
(99,0,l)
);
}
);
};
layerId = "897F30B6-1700-43C7-9C60-A606C7C7F267";
shapes = (
{
closed = 1;
nodes = (
(574,0,l),
(574,59,l),
(156,59,l),
(156,143,o),
(178,213,o),
(297,268,cs),
(405,318,ls),
(494,359,o),
(561,419,o),
(561,519,cs),
(561,653,o),
(458,712,o),
(335,712,cs),
(197,712,o),
(101,629,o),
(101,495,c),
(169,495,l),
(169,578,o),
(221,652,o),
(335,652,cs),
(450,652,o),
(491,587,o),
(491,516,cs),
(491,443,o),
(445,408,o),
(356,368,cs),
(290,338,ls),
(170,284,o),
(86,212,o),
(86,38,cs),
(86,0,l)
);
}
);
width = 650;
}
);
unicode = 50;
},
{
color = 0;
glyphname = three;
lastChange = "2023-08-08 15:14:33 +0000";
layers = (
{
associatedMasterId = "897F30B6-1700-43C7-9C60-A606C7C7F267";
layerId = "02575D39-7864-4EEF-9012-950E1A85E8A1";
name = public.background;
shapes = (
{
closed = 1;
nodes = (
(449,-5,o),
(522,81,o),
(522,190,cs),
(522,296,o),
(458,358,o),
(367,376,c),
(367,381,l),
(461,396,o),
(509,466,o),
(509,547,cs),
(509,649,o),
(435,730,o),
(297,730,cs),
(163,730,o),
(72,656,o),
(62,534,c),
(130,534,l),
(141,621,o),
(206,669,o),
(295,669,cs),
(390,669,o),
(441,616,o),
(441,540,cs),
(441,452,o),
(374,407,o),
(237,407,cs),
(214,407,l),
(214,348,l),
(236,348,ls),
(375,348,o),
(455,302,o),
(455,196,cs),
(455,117,o),
(404,54,o),
(298,54,cs),
(192,54,o),
(130,119,o),
(118,204,c),
(50,204,l),
(65,68,o),
(163,-5,o),
(298,-5,cs)
);
}
);
width = 599;
},
{
background = {
shapes = (
{
closed = 1;
nodes = (
(481,-12,o),
(567,84,o),
(567,200,cs),
(567,290,o),
(515,354,o),
(437,369,c),
(497,388,o),
(549,442,o),
(549,524,cs),
(549,626,o),
(469,712,o),
(323,712,cs),
(186,712,o),
(93,633,o),
(87,499,c),
(223,499,l),
(227,551,o),
(261,594,o),
(323,594,cs),
(377,594,o),
(412,563,o),
(412,513,cs),
(412,453,o),
(362,425,o),
(300,425,cs),
(248,425,l),
(248,310,l),
(300,310,ls),
(378,310,o),
(431,273,o),
(431,206,cs),
(431,148,o),
(392,105,o),
(324,105,cs),
(252,105,o),
(208,154,o),
(208,219,c),
(71,219,l),
(74,61,o),
(187,-12,o),
(324,-12,cs)
);
}
);
};
layerId = "BD1314B0-2F62-4F06-89D3-8B766BA843F0";
shapes = (
{
closed = 1;
nodes = (
(500,-12,o),
(596,84,o),
(596,200,cs),
(596,290,o),
(538,354,o),
(451,369,c),
(518,388,o),
(576,442,o),
(576,524,cs),
(576,626,o),
(487,712,o),
(323,712,cs),
(170,712,o),
(66,633,o),
(60,499,c),
(197,499,l),
(201,551,o),
(245,594,o),
(323,594,cs),
(394,594,o),
(440,563,o),
(440,513,cs),
(440,453,o),
(377,425,o),
(298,425,cs),
(240,425,l),
(240,310,l),
(298,310,ls),
(393,310,o),
(458,273,o),
(458,206,cs),
(458,148,o),
(410,105,o),
(325,105,cs),
(234,105,o),
(179,154,o),
(179,219,c),
(42,219,l),
(45,61,o),
(171,-12,o),
(325,-12,cs)
);
}
);
width = 650;
},
{
background = {
shapes = (
{
closed = 1;
nodes = (
(480,-12,o),
(559,86,o),
(559,201,cs),
(559,304,o),
(495,366,o),
(412,384,c),
(494,404,o),
(529,472,o),
(529,539,cs),
(529,633,o),
(460,712,o),
(328,712,cs),
(203,712,o),
(121,632,o),
(116,523,c),
(188,523,l),
(194,597,o),
(246,650,o),
(328,650,cs),
(414,650,o),
(457,601,o),
(457,535,cs),
(457,458,o),
(401,410,o),
(304,410,cs),
(251,410,l),
(251,350,l),
(303,350,ls),
(402,350,o),
(487,305,o),
(487,200,cs),
(487,117,o),
(433,50,o),
(328,50,cs),
(222,50,o),
(160,121,o),
(160,205,c),
(88,205,l),
(93,62,o),
(193,-12,o),
(328,-12,cs)
);
}
);
};
layerId = "897F30B6-1700-43C7-9C60-A606C7C7F267";
shapes = (
{
closed = 1;
nodes = (
(487,-12,o),
(570,86,o),
(570,201,cs),
(570,304,o),
(503,366,o),
(416,384,c),
(502,404,o),
(539,472,o),
(539,539,cs),
(539,633,o),
(467,712,o),
(328,712,cs),
(197,712,o),
(111,632,o),
(106,523,c),
(179,523,l),
(185,597,o),
(241,650,o),
(328,650,cs),
(421,650,o),
(467,601,o),
(467,535,cs),
(467,458,o),
(407,410,o),
(303,410,cs),
(248,410,l),
(248,350,l),
(302,350,ls),
(407,350,o),
(498,305,o),
(498,200,cs),
(498,117,o),
(440,50,o),
(328,50,cs),
(215,50,o),
(149,121,o),
(149,205,c),
(77,205,l),
(82,62,o),
(187,-12,o),
(328,-12,cs)
);
}
);
width = 650;
}
);
unicode = 51;
},
{
glyphname = four;
lastChange = "2023-08-08 15:14:36 +0000";
layers = (
{
associatedMasterId = "897F30B6-1700-43C7-9C60-A606C7C7F267";
layerId = "02575D39-7864-4EEF-9012-950E1A85E8A1";
name = public.background;
shapes = (
{
closed = 1;
nodes = (
(461,0,l),
(461,170,l),
(568,170,l),
(568,231,l),
(461,231,l),
(461,713,l),
(378,713,l),
(14,223,l),
(14,170,l),
(392,170,l),
(392,0,l)
);
},
{
closed = 1;
nodes = (
(395,636,l),
(395,231,l),
(95,231,l)
);
}
);
width = 651;
},
{
layerId = "BD1314B0-2F62-4F06-89D3-8B766BA843F0";
shapes = (
{
closed = 1;
nodes = (
(505,0,l),
(505,124,l),
(595,124,l),
(595,246,l),
(505,246,l),
(505,700,l),
(362,700,l),
(32,236,l),
(32,124,l),
(378,124,l),
(378,0,l)
);
},
{
closed = 1;
nodes = (
(417,599,l),
(383,609,l),
(383,183,l),
(437,246,l),
(118,246,l),
(141,193,l)
);
}
);
width = 650;
},
{
layerId = "897F30B6-1700-43C7-9C60-A606C7C7F267";
shapes = (
{
closed = 1;
nodes = (
(471,0,l),
(471,157,l),
(578,157,l),
(578,218,l),
(471,218,l),
(471,700,l),
(388,700,l),
(28,210,l),
(28,157,l),
(402,157,l),
(402,0,l)
);
},
{
closed = 1;
nodes = (
(423,648,l),
(405,654,l),
(405,187,l),
(437,218,l),
(76,218,l),
(89,192,l)
);
}
);
width = 650;
}
);
unicode = 52;
},
{
glyphname = five;
lastChange = "2023-08-08 15:14:41 +0000";
layers = (
{
associatedMasterId = "897F30B6-1700-43C7-9C60-A606C7C7F267";
layerId = "02575D39-7864-4EEF-9012-950E1A85E8A1";
name = public.background;
shapes = (
{
closed = 1;
nodes = (
(478,-3,o),
(552,111,o),
(552,246,cs),
(552,359,o),
(493,481,o),
(320,481,cs),
(244,481,o),
(175,446,o),
(143,401,c),
(143,657,l),
(509,657,l),
(509,718,l),
(78,718,l),
(78,321,l),
(144,321,l),
(172,381,o),
(232,421,o),
(311,421,cs),
(425,421,o),
(485,354,o),
(485,245,cs),
(485,137,o),
(430,57,o),
(309,57,cs),
(218,57,o),
(151,106,o),
(133,195,c),
(64,195,l),
(82,76,o),
(170,-3,o),
(309,-3,cs)
);
}
);
width = 622;
},
{
background = {
shapes = (
{
closed = 1;
nodes = (
(484,-12,o),
(589,93,o),
(589,242,cs),
(589,366,o),
(514,481,o),
(363,481,cs),
(303,481,o),
(252,459,o),
(223,429,c),
(252,577,l),
(541,577,l),
(541,700,l),
(148,700,l),
(88,295,l),
(223,295,l),
(239,336,o),
(283,368,o),
(338,368,cs),
(404,368,o),
(454,320,o),
(454,241,cs),
(454,165,o),
(405,107,o),
(337,107,cs),
(273,107,o),
(226,147,o),
(216,199,c),
(79,199,l),
(88,77,o),
(181,-12,o),
(336,-12,cs)
);
}
);
};
layerId = "BD1314B0-2F62-4F06-89D3-8B766BA843F0";
shapes = (
{
closed = 1;
nodes = (
(494,-12,o),
(605,93,o),
(605,242,cs),
(605,366,o),
(518,481,o),
(356,481,cs),
(272,481,o),
(218,450,o),
(188,415,c),
(200,376,l),
(240,577,l),
(554,577,l),
(554,700,l),
(136,700,l),
(75,303,l),
(202,303,l),
(223,341,o),
(278,368,o),
(338,368,cs),
(415,368,o),
(469,316,o),
(469,241,cs),
(469,162,o),
(415,107,o),
(337,107,cs),
(268,107,o),
(211,145,o),
(199,199,c),
(63,199,l),
(72,77,o),
(171,-12,o),
(336,-12,cs)
);
}
);
width = 650;
},
{
layerId = "897F30B6-1700-43C7-9C60-A606C7C7F267";
shapes = (
{
closed = 1;
nodes = (
(485,-12,o),
(569,104,o),
(569,236,cs),
(569,379,o),
(473,481,o),
(339,481,cs),
(253,481,o),
(188,444,o),
(159,396,c),
(163,379,l),
(212,639,l),
(518,639,l),
(518,700,l),
(157,700,l),
(97,321,l),
(163,321,l),
(191,381,o),
(251,421,o),
(334,421,cs),
(434,421,o),
(502,345,o),
(502,235,cs),
(502,130,o),
(437,48,o),
(330,48,cs),
(235,48,o),
(169,103,o),
(152,186,c),
(83,186,l),
(100,73,o),
(187,-12,o),
(329,-12,cs)
);
}
);
width = 650;
}
);
unicode = 53;
},
{
glyphname = six;
lastChange = "2023-08-08 15:14:43 +0000";
layers = (
{
associatedMasterId = "897F30B6-1700-43C7-9C60-A606C7C7F267";
layerId = "02575D39-7864-4EEF-9012-950E1A85E8A1";
name = public.background;
shapes = (
{
closed = 1;
nodes = (
(496,-3,o),
(568,107,o),
(568,234,cs),
(568,385,o),
(480,476,o),
(340,476,cs),
(245,476,o),
(161,429,o),
(134,347,c),
(129,585,o),
(200,672,o),
(326,672,cs),
(416,672,o),
(463,623,o),
(477,542,c),
(542,542,l),
(529,647,o),
(460,731,o),
(326,731,cs),
(143,731,o),
(72,588,o),
(72,361,cs),
(72,155,o),
(120,-3,o),
(334,-3,cs)
);
},
{
closed = 1;
nodes = (
(201,56,o),
(143,144,o),
(143,245,cs),
(143,363,o),
(238,416,o),
(327,416,cs),
(438,416,o),
(500,347,o),
(500,231,cs),
(500,123,o),
(434,56,o),
(331,56,cs)
);
}
);
width = 635;
},
{
background = {
shapes = (
{
closed = 1;
nodes = (
(486,-12,o),
(587,97,o),
(587,225,cs),
(587,365,o),
(480,453,o),
(365,453,cs),
(293,453,o),
(224,416,o),
(193,364,c),
(196,520,o),
(250,597,o),
(334,597,cs),
(393,597,o),
(431,565,o),
(443,507,c),
(573,507,l),
(563,614,o),
(484,712,o),
(335,712,cs),
(159,712,o),
(56,563,o),
(56,328,cs),
(56,162,o),
(127,-12,o),
(340,-12,cs)
);
},
{
closed = 1;
nodes = (
(262,108,o),
(210,156,o),
(210,223,cs),
(210,286,o),
(262,335,o),
(331,335,cs),
(402,335,o),
(453,290,o),
(453,221,cs),
(453,156,o),
(402,108,o),
(333,108,cs)
);
}
);
};
layerId = "BD1314B0-2F62-4F06-89D3-8B766BA843F0";
shapes = (
{
closed = 1;
nodes = (
(496,-12,o),
(603,97,o),
(603,225,cs),
(603,365,o),
(489,453,o),
(368,453,cs),
(276,453,o),
(189,401,o),
(170,335,c),
(178,297,l),
(166,498,o),
(226,597,o),
(335,597,cs),
(402,597,o),
(445,565,o),
(458,507,c),
(588,507,l),
(577,614,o),
(494,712,o),
(336,712,cs),
(149,712,o),
(40,563,o),
(40,328,cs),
(40,162,o),
(116,-12,o),
(341,-12,cs)
);
},
{
closed = 1;
nodes = (
(245,108,o),
(192,151,o),
(192,223,cs),
(192,293,o),
(244,335,o),
(332,335,cs),
(418,335,o),
(469,293,o),
(469,221,cs),
(469,150,o),
(419,108,o),
(334,108,cs)
);
}
);
width = 650;
},
{
layerId = "897F30B6-1700-43C7-9C60-A606C7C7F267";
shapes = (
{
closed = 1;
nodes = (
(487,-12,o),
(576,107,o),
(576,222,cs),
(576,357,o),
(463,447,o),
(343,447,cs),
(229,447,o),
(153,379,o),
(125,308,c),
(132,290,l),
(130,538,o),
(217,650,o),
(335,650,cs),
(417,650,o),
(474,604,o),
(488,523,c),
(553,523,l),
(540,628,o),
(463,712,o),
(335,712,cs),
(166,712,o),
(67,551,o),
(67,321,cs),
(67,155,o),
(136,-12,o),
(335,-12,cs)
);
},
{
closed = 1;
nodes = (
(231,50,o),
(155,121,o),
(155,217,cs),
(155,307,o),
(231,385,o),
(330,385,cs),
(430,385,o),
(504,319,o),
(504,218,cs),
(504,121,o),
(430,50,o),
(330,50,cs)
);
}
);
width = 650;
}
);
unicode = 54;
},
{
glyphname = seven;
lastChange = "2023-08-08 15:14:46 +0000";
layers = (
{
associatedMasterId = "897F30B6-1700-43C7-9C60-A606C7C7F267";
layerId = "02575D39-7864-4EEF-9012-950E1A85E8A1";
name = public.background;
shapes = (
{
closed = 1;
nodes = (
(215,0,l),
(494,662,l),
(494,716,l),
(26,716,l),
(26,656,l),
(426,656,l),
(144,0,l)
);
}
);
width = 534;
},
{
background = {
shapes = (
{
closed = 1;
nodes = (
(307,0,l),
(567,602,l),
(567,700,l),
(88,700,l),
(88,580,l),
(423,580,l),
(163,0,l)
);
}
);
};
layerId = "BD1314B0-2F62-4F06-89D3-8B766BA843F0";
shapes = (
{
closed = 1;
nodes = (
(290,0,l),
(590,602,l),
(590,700,l),
(51,700,l),
(51,580,l),
(446,580,l),
(146,0,l)
);
}
);
width = 650;
},
{
layerId = "897F30B6-1700-43C7-9C60-A606C7C7F267";
shapes = (
{
closed = 1;
nodes = (
(263,0,l),
(582,643,l),
(582,700,l),
(86,700,l),
(86,640,l),
(510,640,l),
(188,0,l)
);
}
);
width = 650;
}
);
unicode = 55;
},
{
glyphname = eight;
lastChange = "2023-08-08 15:14:48 +0000";
layers = (
{
associatedMasterId = "897F30B6-1700-43C7-9C60-A606C7C7F267";
layerId = "02575D39-7864-4EEF-9012-950E1A85E8A1";
name = public.background;
shapes = (
{
closed = 1;
nodes = (
(438,-12,o),
(540,70,o),
(540,188,cs),
(540,274,o),
(483,349,o),
(394,372,c),
(478,399,o),
(521,460,o),
(521,524,cs),
(521,630,o),
(437,712,o),
(302,712,cs),
(167,712,o),
(83,630,o),
(83,524,cs),
(83,460,o),
(126,399,o),
(210,372,c),
(121,349,o),
(64,274,o),
(64,188,cs),
(64,70,o),
(166,-12,o),
(302,-12,cs)
);
},
{
closed = 1;
nodes = (
(204,51,o),
(135,107,o),
(135,192,cs),
(135,289,o),
(215,337,o),
(302,337,cs),
(389,337,o),
(469,289,o),
(469,192,cs),
(469,107,o),
(400,51,o),
(302,51,cs)
);
},
{
closed = 1;
nodes = (
(226,399,o),
(155,450,o),
(155,524,cs),
(155,608,o),
(225,650,o),
(302,650,cs),
(379,650,o),
(449,608,o),
(449,524,cs),
(449,450,o),
(378,399,o),
(302,399,cs)
);
}
);
width = 634;
},
{
background = {
shapes = (
{
closed = 1;
nodes = (
(470,-12,o),
(585,70,o),
(585,197,cs),
(585,281,o),
(540,347,o),
(467,377,c),
(527,405,o),
(567,461,o),
(567,525,cs),
(567,623,o),
(486,712,o),
(325,712,cs),
(165,712,o),
(83,623,o),
(83,525,cs),
(83,459,o),
(122,405,o),
(183,377,c),
(111,348,o),
(65,281,o),
(65,197,cs),
(65,70,o),
(180,-12,o),
(325,-12,cs)
);
},
{
closed = 1;
nodes = (
(244,104,o),
(201,149,o),
(201,209,cs),
(201,274,o),
(248,315,o),
(325,315,cs),
(403,315,o),
(448,274,o),
(448,209,cs),
(448,149,o),
(406,104,o),
(325,104,cs)
);
},
{
closed = 1;
nodes = (
(259,417,o),
(221,454,o),
(221,507,cs),
(221,564,o),
(259,599,o),
(325,599,cs),
(392,599,o),
(430,564,o),
(430,507,cs),
(430,455,o),
(392,417,o),
(325,417,cs)
);
}
);
};
layerId = "BD1314B0-2F62-4F06-89D3-8B766BA843F0";
shapes = (
{
closed = 1;
nodes = (
(480,-12,o),
(602,70,o),
(602,197,cs),
(602,281,o),
(553,348,o),
(477,377,c),
(541,405,o),
(582,459,o),
(582,525,cs),
(582,623,o),
(496,712,o),
(325,712,cs),
(154,712,o),
(68,623,o),
(68,525,cs),
(68,459,o),
(109,405,o),
(173,377,c),
(97,348,o),
(48,281,o),
(48,197,cs),
(48,70,o),
(170,-12,o),
(325,-12,cs)
);
},
{
closed = 1;
nodes = (
(232,104,o),
(184,140,o),
(184,209,cs),
(184,279,o),
(232,315,o),
(325,315,cs),
(418,315,o),
(466,279,o),
(466,209,cs),
(466,140,o),
(418,104,o),
(325,104,cs)
);
},
{
closed = 1;
nodes = (
(244,417,o),
(203,447,o),
(203,507,cs),
(203,568,o),
(244,599,o),
(325,599,cs),
(406,599,o),
(447,568,o),
(447,507,cs),
(447,447,o),
(406,417,o),
(325,417,cs)
);
}
);
width = 650;
},
{
background = {
shapes = (
{
closed = 1;
nodes = (
(461,-12,o),
(563,70,o),
(563,188,cs),
(563,274,o),
(506,351,o),
(421,372,c),
(501,397,o),
(544,460,o),
(544,526,cs),
(544,630,o),
(460,712,o),
(325,712,cs),
(190,712,o),
(106,630,o),
(106,526,cs),
(106,460,o),
(149,397,o),
(229,372,c),
(144,351,o),
(87,274,o),
(87,188,cs),
(87,70,o),
(189,-12,o),
(325,-12,cs)
);
},
{
closed = 1;
nodes = (
(213,51,o),
(158,107,o),
(158,192,cs),
(158,289,o),
(224,337,o),
(325,337,cs),
(426,337,o),
(492,289,o),
(492,192,cs),
(492,107,o),
(437,51,o),
(325,51,cs)
);
},
{
closed = 1;
nodes = (
(235,399,o),
(178,450,o),
(178,524,cs),
(178,608,o),
(234,650,o),
(325,650,cs),
(416,650,o),
(472,608,o),
(472,524,cs),
(472,450,o),
(415,399,o),
(325,399,cs)
);
}
);
};
layerId = "897F30B6-1700-43C7-9C60-A606C7C7F267";
shapes = (
{
closed = 1;
nodes = (
(469,-12,o),
(577,70,o),
(577,188,cs),
(577,274,o),
(517,351,o),
(427,372,c),
(511,397,o),
(557,460,o),
(557,526,cs),
(557,630,o),
(468,712,o),
(325,712,cs),
(182,712,o),
(93,630,o),
(93,526,cs),
(93,460,o),
(139,397,o),
(223,372,c),
(133,351,o),
(73,274,o),
(73,188,cs),
(73,70,o),
(181,-12,o),
(325,-12,cs)
);
},
{
closed = 1;
nodes = (
(204,51,o),
(145,107,o),
(145,192,cs),
(145,289,o),
(216,337,o),
(325,337,cs),
(434,337,o),
(505,289,o),
(505,192,cs),
(505,107,o),
(446,51,o),
(325,51,cs)
);
},
{
closed = 1;
nodes = (
(227,399,o),
(164,450,o),
(164,524,cs),
(164,608,o),
(225,650,o),
(325,650,cs),
(425,650,o),
(486,608,o),
(486,524,cs),
(486,450,o),
(423,399,o),
(325,399,cs)
);
}
);
width = 650;
}
);
unicode = 56;
},
